<svg id="atm_1_" data-name="atm (1)" xmlns="http://www.w3.org/2000/svg" width="29.875" height="29.875" viewBox="0 0 29.875 29.875">
  <path id="Path_6310" data-name="Path 6310" d="M166.231,144.6a5.563,5.563,0,1,0,5.563,5.563A5.569,5.569,0,0,0,166.231,144.6Zm0,9.375a3.812,3.812,0,1,1,3.812-3.812A3.816,3.816,0,0,1,166.231,153.976Zm0,0" transform="translate(-151.293 -136.164)" fill="#3897f0"/>
  <path id="Path_6311" data-name="Path 6311" d="M28.795,1.08A3.663,3.663,0,0,0,26.187,0H3.688A3.688,3.688,0,0,0,0,3.688v3.75a3.688,3.688,0,0,0,3.688,3.688H5.625v16a2.75,2.75,0,0,0,2.75,2.75H21.5a2.75,2.75,0,0,0,2.75-2.75v-16h1.937a3.687,3.687,0,0,0,3.688-3.687V3.688A3.663,3.663,0,0,0,28.795,1.08ZM22.5,27.125a1,1,0,0,1-1,1H8.375a1,1,0,0,1-1-1V6.438H22.5ZM28.124,7.438a1.938,1.938,0,0,1-1.937,1.937H24.25V6.438h1a.875.875,0,0,0,0-1.75H4.625a.875.875,0,0,0,0,1.75h1V9.375H3.688A1.937,1.937,0,0,1,1.75,7.438V3.688A1.937,1.937,0,0,1,3.688,1.75h22.5a1.937,1.937,0,0,1,1.937,1.937Zm0,0" fill="#3897f0"/>
  <path id="Path_6312" data-name="Path 6312" d="M170.918,401.668h-9.375a.875.875,0,0,0,0,1.75h9.375a.875.875,0,0,0,0-1.75Zm0,0" transform="translate(-151.293 -378.231)" fill="#3897f0"/>
</svg>
