<svg id="surface1" xmlns="http://www.w3.org/2000/svg" width="23.726" height="24.066" viewBox="0 0 23.726 24.066">
  <path id="Path_6421" data-name="Path 6421" d="M56,176h1.851v8.331H56Zm0,0" transform="translate(-52.76 -165.818)" fill="#caacf5"/>
  <path id="Path_6422" data-name="Path 6422" d="M.926,384H0v1.851H11.107V384Zm0,0" transform="translate(0 -361.785)" fill="#8236e5"/>
  <path id="Path_6423" data-name="Path 6423" d="M37.933,352H16v1.851H37.933Zm0,0" transform="translate(-15.074 -331.636)" fill="#8a3cf0"/>
  <path id="Path_6424" data-name="Path 6424" d="M43.7,320H40v1.851h3.7Zm0,0" transform="translate(-37.686 -301.488)" fill="#b78ff2"/>
  <path id="Path_6425" data-name="Path 6425" d="M43.7,145.851V144H40v1.851Zm0,0" transform="translate(-37.686 -135.669)" fill="#b78ff2"/>
  <path id="Path_6426" data-name="Path 6426" d="M376,176h1.851v8.58H376Zm0,0" transform="translate(-357.424 -165.818)" fill="#caacf5"/>
  <path id="Path_6427" data-name="Path 6427" d="M360,145.851h3.7V144H360Zm0,0" transform="translate(-342.349 -135.669)" fill="#b78ff2"/>
  <path id="Path_6428" data-name="Path 6428" d="M160,176v8.331h1.851V176Zm0,0" transform="translate(-151.917 -165.818)" fill="#caacf5"/>
  <path id="Path_6429" data-name="Path 6429" d="M144,320v1.851h3.7V320Zm0,0" transform="translate(-136.81 -301.488)" fill="#b78ff2"/>
  <path id="Path_6430" data-name="Path 6430" d="M144.926,145.851H147.7V144H144v1.851Zm0,0" transform="translate(-136.81 -135.669)" fill="#b78ff2"/>
  <path id="Path_6431" data-name="Path 6431" d="M272,176h1.851v8.58H272Zm0,0" transform="translate(-258.259 -165.818)" fill="#caacf5"/>
  <path id="Path_6432" data-name="Path 6432" d="M256.926,145.851H259.7V144H256v1.851Zm0,0" transform="translate(-243.217 -135.669)" fill="#b78ff2"/>
  <path id="Path_6434" data-name="Path 6434" d="M30.26,35.882l.657,2.184,21.445.219V35.644L41.52,32.45Zm12.059-.658a.807.807,0,1,1-.8-.926A.869.869,0,0,1,42.319,35.224Zm0,0" transform="translate(-29.686 -31.059)" fill="#99d2f7"/>
  <path id="Path_6435" data-name="Path 6435" d="M217.851,56.926a.926.926,0,1,1-.926-.926A.926.926,0,0,1,217.851,56.926Zm0,0" transform="translate(-205.088 -52.76)" fill="#309ade"/>
  <path id="Path_6444" data-name="Path 6444" d="M1.393,384H0v1.851H16.72V384Zm0,0" transform="translate(7.006 -361.785)" fill="#8236e5"/>
  <path id="Path_6445" data-name="Path 6445" d="M144,320v1.851h3.7V320Zm0,0" transform="translate(-131.267 -301.488)" fill="#b78ff2"/>
  <path id="Path_6446" data-name="Path 6446" d="M144,320v1.851h3.7V320Zm0,0" transform="translate(-126.348 -301.488)" fill="#b78ff2"/>
  <path id="Path_6433" data-name="Path 6433" d="M0,3.7V8.331H23.667V3.7L11.834,0ZM22.035,6.479H1.632V5.112l10.2-3.193,10.2,3.193Zm0,0" fill="#3eb2fd"/>
</svg>
