<svg xmlns="http://www.w3.org/2000/svg" width="26.217" height="21.684" viewBox="0 0 26.217 21.684">
  <g id="camera" transform="translate(-89 -892.468)">
    <g id="noun_Camera_757300" transform="translate(89 892.468)">
      <g id="Group_40482" data-name="Group 40482" transform="translate(0 0)">
        <path id="Path_108999" data-name="Path 108999" d="M14.613,965.362a.652.652,0,0,0-.5.284l-1.875,3.232H8.2A3.22,3.22,0,0,0,5,972.1v11.721a3.22,3.22,0,0,0,3.2,3.223H28.013a3.22,3.22,0,0,0,3.2-3.223V972.1a3.22,3.22,0,0,0-3.2-3.223H23.98L22.1,965.646a.594.594,0,0,0-.5-.284Zm.328,1.172h6.336l1.866,3.223a.594.594,0,0,0,.5.293h4.369a2.028,2.028,0,0,1,2.039,2.051v11.721a2.028,2.028,0,0,1-2.039,2.051H8.2a2.028,2.028,0,0,1-2.039-2.051V972.1A2.028,2.028,0,0,1,8.2,970.05h4.369a.594.594,0,0,0,.5-.293Zm3.168,4.688a6.74,6.74,0,1,0,6.7,6.74A6.729,6.729,0,0,0,18.108,971.222Zm9.03.293A1.465,1.465,0,1,0,28.6,972.98,1.47,1.47,0,0,0,27.139,971.516Zm-9.03.879a5.568,5.568,0,1,1-5.535,5.567A5.542,5.542,0,0,1,18.108,972.395Zm9.03.293a.293.293,0,1,1-.291.293A.284.284,0,0,1,27.139,972.688Zm-9.03,1.465a3.809,3.809,0,1,0,3.787,3.809A3.807,3.807,0,0,0,18.108,974.153Zm0,1.172a2.637,2.637,0,1,1-2.622,2.637A2.621,2.621,0,0,1,18.108,975.325Z" transform="translate(-5 -965.362)" fill="#666"/>
      </g>
    </g>
  </g>
</svg>
