<svg xmlns="http://www.w3.org/2000/svg" width="14.905" height="14.646" viewBox="0 0 14.905 14.646">
  <path id="diamond" d="M3.767,2.385,6.1,6.6,8.552,2.385Zm5.212,0,2.371,4.2,2.28-4.2ZM3.432,2.6,1.262,6.823l4.512.006L3.431,2.6Zm10.535,0-2.3,4.238,4.5.006L13.966,2.6Zm-5.2.212L6.422,6.829l4.611.006L8.763,2.81ZM1.3,7.22l7.1,9.811L5.948,7.225,1.3,7.22Zm5.052.006,2.363,9.423L11.09,7.232,6.357,7.226Zm5.142.007-2.467,9.8,7.094-9.792L11.5,7.232Z" transform="translate(-1.262 -2.385)" fill="#fff"/>
</svg>
