<svg xmlns="http://www.w3.org/2000/svg" xmlns:xlink="http://www.w3.org/1999/xlink" width="125" height="120" viewBox="0 0 125 120">
  <defs>
    <linearGradient id="linear-gradient" x1="0.5" x2="0.5" y2="1" gradientUnits="objectBoundingBox">
      <stop offset="0" stop-color="#00b3ff"/>
      <stop offset="1" stop-color="#a831ff"/>
    </linearGradient>
    <filter id="Polygon_1" x="0" y="0" width="125" height="120" filterUnits="userSpaceOnUse">
      <feOffset dy="3" input="SourceAlpha"/>
      <feGaussianBlur stdDeviation="3" result="blur"/>
      <feFlood flood-opacity="0.161"/>
      <feComposite operator="in" in2="blur"/>
      <feComposite in="SourceGraphic"/>
    </filter>
    <filter id="Path_72239" x="27.238" y="36.061" width="69.839" height="68.939" filterUnits="userSpaceOnUse">
      <feOffset dy="3" input="SourceAlpha"/>
      <feGaussianBlur stdDeviation="3" result="blur-2"/>
      <feFlood flood-opacity="0.161"/>
      <feComposite operator="in" in2="blur-2"/>
      <feComposite in="SourceGraphic"/>
    </filter>
  </defs>
  <g id="Group_40568" data-name="Group 40568" transform="translate(213 -18447)">
    <g transform="matrix(1, 0, 0, 1, -213, 18447)" filter="url(#Polygon_1)">
      <path id="Polygon_1-2" data-name="Polygon 1" d="M45.847,5.573a13,13,0,0,1,15.306,0L99.379,33.411a13,13,0,0,1,4.714,14.518L89.479,93.009A13,13,0,0,1,77.113,102H29.887a13,13,0,0,1-12.366-8.991L2.907,47.928A13,13,0,0,1,7.621,33.411Z" transform="translate(9 6)" fill="url(#linear-gradient)"/>
    </g>
    <g transform="matrix(1, 0, 0, 1, -213, 18447)" filter="url(#Path_72239)">
      <path id="Path_72239-2" data-name="Path 72239" d="M9.976,2.385l8.11,14.649L26.618,2.385Zm18.126,0,8.246,14.62L44.28,2.385ZM8.808,3.124l-7.546,14.7,15.695.019L8.807,3.124Zm36.64,0-8,14.741,15.652.019L45.448,3.125Zm-18.095.738L19.21,17.844l16.037.019-7.9-14ZM1.409,19.2l24.7,34.123-8.551-34.1L1.409,19.2Zm17.572.02L27.2,52l8.246-32.753-16.463-.02Zm17.885.023L28.286,53.32,52.96,19.264l-16.095-.019Z" transform="translate(34.98 39.68)" fill="#fff"/>
    </g>
  </g>
</svg>
