<svg id="emoji" xmlns="http://www.w3.org/2000/svg" width="23.877" height="21.977" viewBox="0 0 23.877 21.977">
  <g id="Group_1618" data-name="Group 1618" transform="translate(0 0)">
    <g id="noun_emoji_2664296">
      <path id="Path_17" data-name="Path 17" d="M7.149,0A7.271,7.271,0,0,0,0,7.387a7.271,7.271,0,0,0,7.149,7.387A7.271,7.271,0,0,0,14.3,7.387,7.269,7.269,0,0,0,7.149,0Zm1.51,4.351a1.8,1.8,0,0,1,2.465.582.628.628,0,0,1-.166.853.58.58,0,0,1-.447.091.6.6,0,0,1-.379-.263.646.646,0,0,0-.865-.2.585.585,0,0,1-.817-.216.627.627,0,0,1,.209-.844Zm-5.486.582a1.8,1.8,0,0,1,2.465-.582.627.627,0,0,1,.209.844.585.585,0,0,1-.817.216.646.646,0,0,0-.865.2.584.584,0,0,1-.826.172.628.628,0,0,1-.166-.853Zm3.975,6.733c-2.133,0-3.89-1.182-4.14-2.709a.249.249,0,0,1,.075-.224.231.231,0,0,1,.223-.053,15.014,15.014,0,0,0,3.843.56,15.013,15.013,0,0,0,3.843-.56.231.231,0,0,1,.223.053.249.249,0,0,1,.075.224C11.039,10.484,9.282,11.666,7.149,11.666Z" transform="translate(0 0)" fill="#fff"/>
    </g>
  </g>
  <g id="Group_1619" data-name="Group 1619" transform="translate(9.579 7.203)">
    <g id="noun_emoji_2664296-2" data-name="noun_emoji_2664296" transform="translate(0 0)">
      <path id="Path_17-2" data-name="Path 17" d="M7.149,0A7.271,7.271,0,0,0,0,7.387a7.271,7.271,0,0,0,7.149,7.387A7.271,7.271,0,0,0,14.3,7.387,7.269,7.269,0,0,0,7.149,0Zm1.51,4.351a1.8,1.8,0,0,1,2.465.582.628.628,0,0,1-.166.853.58.58,0,0,1-.447.091.6.6,0,0,1-.379-.263.646.646,0,0,0-.865-.2.585.585,0,0,1-.817-.216.627.627,0,0,1,.209-.844Zm-5.486.582a1.8,1.8,0,0,1,2.465-.582.627.627,0,0,1,.209.844.585.585,0,0,1-.817.216.646.646,0,0,0-.865.2.584.584,0,0,1-.826.172.628.628,0,0,1-.166-.853Zm3.975,6.733c-2.133,0-3.89-1.182-4.14-2.709a.249.249,0,0,1,.075-.224.231.231,0,0,1,.223-.053,15.014,15.014,0,0,0,3.843.56,15.013,15.013,0,0,0,3.843-.56.231.231,0,0,1,.223.053.249.249,0,0,1,.075.224C11.039,10.484,9.282,11.666,7.149,11.666Z" transform="translate(0 0)" fill="#fff"/>
    </g>
  </g>
</svg>
