<svg xmlns="http://www.w3.org/2000/svg" xmlns:xlink="http://www.w3.org/1999/xlink" width="125" height="120" viewBox="0 0 125 120">
  <defs>
    <linearGradient id="linear-gradient" x1="0.5" x2="0.5" y2="1" gradientUnits="objectBoundingBox">
      <stop offset="0" stop-color="#00b3ff"/>
      <stop offset="1" stop-color="#a831ff"/>
    </linearGradient>
    <filter id="Polygon_1" x="0" y="0" width="125" height="120" filterUnits="userSpaceOnUse">
      <feOffset dy="3" input="SourceAlpha"/>
      <feGaussianBlur stdDeviation="3" result="blur"/>
      <feFlood flood-opacity="0.161"/>
      <feComposite operator="in" in2="blur"/>
      <feComposite in="SourceGraphic"/>
    </filter>
  </defs>
  <g id="video" transform="translate(213 -18447)">
    <g transform="matrix(1, 0, 0, 1, -213, 18447)" filter="url(#Polygon_1)">
      <path id="Polygon_1-2" data-name="Polygon 1" d="M45.847,5.573a13,13,0,0,1,15.306,0L99.379,33.411a13,13,0,0,1,4.714,14.518L89.479,93.009A13,13,0,0,1,77.113,102H29.887a13,13,0,0,1-12.366-8.991L2.907,47.928A13,13,0,0,1,7.621,33.411Z" transform="translate(9 6)" fill="url(#linear-gradient)"/>
    </g>
    <g id="Icon_ionic-ios-videocam" data-name="Icon ionic-ios-videocam" transform="matrix(0.966, -0.259, 0.259, 0.966, -185.036, 18494.906)">
      <path id="Path_4" data-name="Path 4" d="M36.588,10.8a2.041,2.041,0,0,0-1.111.323L25.143,17.645a1.022,1.022,0,0,0-.478.86v9.079a1.022,1.022,0,0,0,.478.86l10.334,6.523a2.147,2.147,0,0,0,1.111.323h2.485A1.017,1.017,0,0,0,40.1,34.275V11.815A1.025,1.025,0,0,0,39.073,10.8Z" transform="translate(15.67 1.258)" fill="#fff"/>
      <path id="Path_5" data-name="Path 5" d="M31.1,39.583H8.4A6.172,6.172,0,0,1,2.25,33.443v-18.3A6.162,6.162,0,0,1,8.391,9h22.7a6.162,6.162,0,0,1,6.141,6.141v18.29A6.146,6.146,0,0,1,31.1,39.583Z" fill="#fff"/>
    </g>
  </g>
</svg>
