<svg xmlns="http://www.w3.org/2000/svg" width="16.586" height="16.027" viewBox="0 0 16.586 16.027">
  <path id="hash" d="M12.574-11.763h2.3a2.249,2.249,0,0,0,.684-.112,2.46,2.46,0,0,0,.781-.467,1.294,1.294,0,0,1,.614-.356q.226,0,.226.247a3.672,3.672,0,0,1-.28.9,2.62,2.62,0,0,1-.824,1.139,2.131,2.131,0,0,1-1.352.424H12.114l-.983,3.631h2.292a2.15,2.15,0,0,0,.683-.117,2.594,2.594,0,0,0,.78-.467,1.3,1.3,0,0,1,.613-.35q.226,0,.226.247a3.676,3.676,0,0,1-.28.9,2.619,2.619,0,0,1-.823,1.139,2.126,2.126,0,0,1-1.35.424h-2.6L9.539-.332A.631.631,0,0,1,9.3-.01a.613.613,0,0,1-.37.139q-.315,0-.315-.268a.767.767,0,0,1,.032-.193L9.78-4.587H6.02L4.888-.332a.631.631,0,0,1-.239.322.613.613,0,0,1-.37.139q-.315,0-.315-.268A.767.767,0,0,1,4-.332L5.129-4.587H3.059a3.269,3.269,0,0,0-.792.1,2.451,2.451,0,0,0-.835.414,1.343,1.343,0,0,1-.625.313q-.216,0-.216-.15a3.794,3.794,0,0,1,.3-.843,2.875,2.875,0,0,1,.862-1.155,2.133,2.133,0,0,1,1.373-.451H5.588L6.571-9.99H4.505a3.26,3.26,0,0,0-.791.1,2.445,2.445,0,0,0-.834.414,1.339,1.339,0,0,1-.624.313q-.215,0-.215-.15a3.643,3.643,0,0,1,.28-.838A2.825,2.825,0,0,1,3.17-11.3a2.149,2.149,0,0,1,1.4-.462H7.031L8.046-15.5a.492.492,0,0,1,.2-.285.534.534,0,0,1,.31-.113.345.345,0,0,1,.266.113.378.378,0,0,1,.1.263l-.021.086-.983,3.674h3.76L12.7-15.5a.486.486,0,0,1,.207-.285.545.545,0,0,1,.3-.113q.391,0,.391.322l-.011.075ZM11.223-9.99H7.463L6.48-6.359h3.76Z" transform="translate(-0.591 15.898)"/>
</svg>
