<svg xmlns="http://www.w3.org/2000/svg" width="28.394" height="16.868" viewBox="0 0 28.394 16.868">
  <g id="Icon_ionic-ios-videocam" data-name="Icon ionic-ios-videocam" transform="translate(-1.5 -8.25)">
    <path id="Path_4" data-name="Path 4" d="M30.657,10.8a1.026,1.026,0,0,0-.558.162L24.906,14.24a.514.514,0,0,0-.24.432v4.562a.514.514,0,0,0,.24.432L30.1,22.944a1.079,1.079,0,0,0,.558.162h1.249a.511.511,0,0,0,.516-.51V11.31a.515.515,0,0,0-.516-.51Z" transform="translate(-3.278 -0.263)" fill="none" stroke="#666" stroke-width="1.5"/>
    <path id="Path_5" data-name="Path 5" d="M16.747,24.368H5.342A3.1,3.1,0,0,1,2.25,21.282v-9.2A3.1,3.1,0,0,1,5.336,9H16.741a3.1,3.1,0,0,1,3.086,3.086v9.191A3.088,3.088,0,0,1,16.747,24.368Z" fill="none" stroke="#666" stroke-width="1.5"/>
  </g>
</svg>
