<svg xmlns="http://www.w3.org/2000/svg" width="18.945" height="18.95" viewBox="0 0 18.945 18.95">
  <path id="Icon_ionic-ios-settings" data-name="Icon ionic-ios-settings" d="M21.881,13.973A2.438,2.438,0,0,1,23.445,11.7a9.663,9.663,0,0,0-1.169-2.817,2.471,2.471,0,0,1-.992.212,2.433,2.433,0,0,1-2.225-3.424A9.634,9.634,0,0,0,16.247,4.5a2.436,2.436,0,0,1-4.549,0A9.663,9.663,0,0,0,8.881,5.669,2.433,2.433,0,0,1,6.656,9.093a2.39,2.39,0,0,1-.992-.212A9.877,9.877,0,0,0,4.5,11.7a2.437,2.437,0,0,1,0,4.549,9.663,9.663,0,0,0,1.169,2.817,2.434,2.434,0,0,1,3.212,3.212A9.72,9.72,0,0,0,11.7,23.45a2.431,2.431,0,0,1,4.539,0,9.663,9.663,0,0,0,2.817-1.169,2.436,2.436,0,0,1,3.212-3.212,9.72,9.72,0,0,0,1.169-2.817A2.45,2.45,0,0,1,21.881,13.973Zm-7.864,3.942a3.947,3.947,0,1,1,3.947-3.947A3.946,3.946,0,0,1,14.017,17.915Z" transform="translate(-4.5 -4.5)" fill="#fff"/>
</svg>
