<svg xmlns="http://www.w3.org/2000/svg" width="21.985" height="21.981" viewBox="0 0 21.985 21.981">
  <path id="Icon_awesome-hashtag" data-name="Icon awesome-hashtag" d="M20.638,9.28l.335-1.873a.562.562,0,0,0-.553-.661h-3.5L17.6,2.911a.562.562,0,0,0-.553-.661h-1.9a.562.562,0,0,0-.553.463l-.72,4.033H9.251l.685-3.835a.562.562,0,0,0-.553-.661H7.48a.562.562,0,0,0-.553.463l-.72,4.033H2.5a.562.562,0,0,0-.553.463L1.615,9.082a.562.562,0,0,0,.553.661h3.5L4.6,15.738H.9a.562.562,0,0,0-.553.463L.009,18.074a.562.562,0,0,0,.553.661h3.5L3.381,22.57a.562.562,0,0,0,.553.661h1.9a.562.562,0,0,0,.553-.463l.72-4.033H11.73l-.685,3.835a.562.562,0,0,0,.553.661h1.9a.562.562,0,0,0,.553-.463l.72-4.033h3.7a.562.562,0,0,0,.553-.463l.335-1.873a.562.562,0,0,0-.553-.661h-3.5l1.07-5.995h3.7a.562.562,0,0,0,.553-.463Zm-8.373,6.458H7.646l1.07-5.995h4.619Z" transform="translate(0.502 -1.75)" fill="#d3ab5f" stroke="#362f23" stroke-width="1"/>
</svg>
