<svg xmlns="http://www.w3.org/2000/svg" width="15" height="17" viewBox="0 0 15 17">
  <path id="list" d="M.148,17H0V2.319A2.594,2.594,0,0,1,.548.682,1.711,1.711,0,0,1,1.875,0h11.25a1.71,1.71,0,0,1,1.327.681A2.6,2.6,0,0,1,15,2.319v7.727H12.5V17h-.053L6.336,13.98.148,17Zm6.188-4.255h0l4.914,2.709V2.319a2.786,2.786,0,0,1,.116-.774H1.875a.571.571,0,0,0-.442.228.865.865,0,0,0-.182.546V15.454l5.085-2.709Zm6.79-11.2a.71.71,0,0,0-.625.77V8.5h1.25V2.319A.71.71,0,0,0,13.126,1.549Z" fill="#bdbcbd"/>
</svg>
