<svg xmlns="http://www.w3.org/2000/svg" width="53" height="53" viewBox="0 0 53 53">
  <g id="magic_wand" data-name="magic wand" transform="translate(-15 -694)">
    <g id="Rectangle_22649" data-name="Rectangle 22649" transform="translate(15 694)" fill="rgba(255,255,255,0.3)" stroke="#fff" stroke-width="1">
      <rect width="53" height="53" rx="26.5" stroke="none"/>
      <rect x="0.5" y="0.5" width="52" height="52" rx="26" fill="none"/>
    </g>
    <g id="noun_beautify_3283121" transform="translate(26 704.572)">
      <path id="Path_6386" data-name="Path 6386" d="M24,16.05a.5.5,0,0,0-.2-.51L18.88,12l.76-6a.49.49,0,0,0-.25-.49.5.5,0,0,0-.55,0L14,9.14,8.56,6.58A.51.51,0,0,0,8,6.66a.48.48,0,0,0-.14.53L9.75,12.9,5.64,17.27a.5.5,0,0,0,.36.84h6l2.89,5.26a.5.5,0,0,0,.44.26h0a.51.51,0,0,0,.43-.35l1.84-5.71,5.9-1.13A.5.5,0,0,0,24,16.05Z" fill="#fff"/>
      <path id="Path_6387" data-name="Path 6387" d="M26.35,25.65l-6.5-6.5a.495.495,0,0,0-.7.7l6.5,6.5a.5.5,0,1,0,.7-.7Z" fill="#fff"/>
    </g>
  </g>
</svg>
