<svg xmlns="http://www.w3.org/2000/svg" xmlns:xlink="http://www.w3.org/1999/xlink" width="40" height="40" viewBox="0 0 40 40">
  <defs>
    <linearGradient id="linear-gradient" x1="0.5" x2="0.5" y2="1" gradientUnits="objectBoundingBox">
      <stop offset="0" stop-color="#00b3ff"/>
      <stop offset="1" stop-color="#a831ff"/>
    </linearGradient>
  </defs>
  <g id="Group_40566" data-name="Group 40566" transform="translate(-1380 -18931)">
    <g id="_96ec9db1757fe525fd3ab79a1b4af686" data-name="96ec9db1757fe525fd3ab79a1b4af686" transform="translate(1380 18931)" stroke="#fff" stroke-width="1" fill="url(#linear-gradient)">
      <circle cx="20" cy="20" r="20" stroke="none"/>
      <circle cx="20" cy="20" r="19.5" fill="none"/>
    </g>
    <g id="Group_38087" data-name="Group 38087" transform="translate(1235 18892)">
      <g id="more" transform="translate(154.999 -136.333)">
        <path id="Path_6013" data-name="Path 6013" d="M390.754,194.034a2.4,2.4,0,1,1-3.387,0,2.4,2.4,0,0,1,3.387,0" transform="translate(-372.295 0)" fill="#fff"/>
        <path id="Path_6014" data-name="Path 6014" d="M197.422,194.034a2.4,2.4,0,1,1-3.387,0,2.4,2.4,0,0,1,3.387,0" transform="translate(-186.148 0)" fill="#fff"/>
        <path id="Path_6015" data-name="Path 6015" d="M4.089,194.034a2.4,2.4,0,1,1-3.387,0,2.4,2.4,0,0,1,3.387,0" transform="translate(0 0)" fill="#fff"/>
      </g>
    </g>
  </g>
</svg>
