<svg xmlns="http://www.w3.org/2000/svg" width="45" height="45" viewBox="0 0 45 45">
  <g id="multi_live" data-name="multi live" transform="translate(2496 -2606)">
    <circle id="Ellipse_4" data-name="Ellipse 4" cx="22.5" cy="22.5" r="22.5" transform="translate(-2496 2606)" fill="#00b3ff"/>
    <g id="emoji" transform="translate(-2488 2616)">
      <g id="Group_1618" data-name="Group 1618">
        <g id="noun_emoji_2664296">
          <path id="Path_17" data-name="Path 17" d="M8.415,0A8.559,8.559,0,0,0,0,8.7a8.559,8.559,0,0,0,8.415,8.7A8.559,8.559,0,0,0,16.83,8.7,8.556,8.556,0,0,0,8.415,0Zm1.778,5.121a2.119,2.119,0,0,1,2.9.685.739.739,0,0,1-.2,1,.682.682,0,0,1-.527.108.7.7,0,0,1-.446-.309.76.76,0,0,0-1.018-.241.689.689,0,0,1-.961-.254.738.738,0,0,1,.246-.993Zm-6.457.685a2.119,2.119,0,0,1,2.9-.685.738.738,0,0,1,.246.993.689.689,0,0,1-.961.254A.76.76,0,0,0,4.9,6.609a.687.687,0,0,1-.972.2.739.739,0,0,1-.2-1Zm4.679,7.926c-2.511,0-4.579-1.391-4.874-3.188a.293.293,0,0,1,.088-.263.272.272,0,0,1,.263-.063,17.672,17.672,0,0,0,4.523.659,17.672,17.672,0,0,0,4.523-.659.272.272,0,0,1,.263.063.293.293,0,0,1,.088.263C12.994,12.34,10.926,13.732,8.415,13.732Z" fill="#fff"/>
        </g>
      </g>
      <g id="Group_1619" data-name="Group 1619" transform="translate(11.275 8.478)">
        <g id="noun_emoji_2664296-2" data-name="noun_emoji_2664296" transform="translate(0)">
          <path id="Path_17-2" data-name="Path 17" d="M8.415,0A8.559,8.559,0,0,0,0,8.7a8.559,8.559,0,0,0,8.415,8.7A8.559,8.559,0,0,0,16.83,8.7,8.556,8.556,0,0,0,8.415,0Zm1.778,5.121a2.119,2.119,0,0,1,2.9.685.739.739,0,0,1-.2,1,.682.682,0,0,1-.527.108.7.7,0,0,1-.446-.309.76.76,0,0,0-1.018-.241.689.689,0,0,1-.961-.254.738.738,0,0,1,.246-.993Zm-6.457.685a2.119,2.119,0,0,1,2.9-.685.738.738,0,0,1,.246.993.689.689,0,0,1-.961.254A.76.76,0,0,0,4.9,6.609a.687.687,0,0,1-.972.2.739.739,0,0,1-.2-1Zm4.679,7.926c-2.511,0-4.579-1.391-4.874-3.188a.293.293,0,0,1,.088-.263.272.272,0,0,1,.263-.063,17.672,17.672,0,0,0,4.523.659,17.672,17.672,0,0,0,4.523-.659.272.272,0,0,1,.263.063.293.293,0,0,1,.088.263C12.994,12.34,10.926,13.732,8.415,13.732Z" fill="#fff"/>
        </g>
      </g>
    </g>
  </g>
</svg>
