<svg id="mute" xmlns="http://www.w3.org/2000/svg" width="45" height="45" viewBox="0 0 45 45">
  <circle id="Ellipse_4" data-name="Ellipse 4" cx="22.5" cy="22.5" r="22.5" opacity="0.45"/>
  <path id="Icon_metro-volume-mute2" data-name="Icon metro-volume-mute2" d="M19.648,13.732v1.509H18.139l-1.906-1.906-1.906,1.906H12.817V13.732l1.906-1.906L12.817,9.919V8.41h1.509l1.906,1.906L18.139,8.41h1.509V9.919l-1.906,1.906ZM9.971,19.795a.569.569,0,0,1-.4-.167L5.181,15.241H3.14a.569.569,0,0,1-.569-.569V8.979A.569.569,0,0,1,3.14,8.41H5.181L9.568,4.023a.569.569,0,0,1,.972.4v14.8a.569.569,0,0,1-.569.569Z" transform="translate(10.929 10.769)" fill="#fff"/>
</svg>
