<svg xmlns="http://www.w3.org/2000/svg" width="18.641" height="13.16" viewBox="0 0 18.641 13.16">
  <g id="noun_friends_1205616" transform="translate(-7.301 -38.4)" opacity="0.6">
    <path id="Path_72234" data-name="Path 72234" d="M7.3,76.628V79.26H18.98V76.628A2.8,2.8,0,0,0,16.153,73.8h-6A2.855,2.855,0,0,0,7.3,76.628Z" transform="translate(0 -27.7)" fill="#fff"/>
    <path id="Path_72235" data-name="Path 72235" d="M22.363,44.925A3.263,3.263,0,1,0,19.1,41.663,3.3,3.3,0,0,0,22.363,44.925Z" transform="translate(-9.233)" fill="#fff"/>
    <path id="Path_72236" data-name="Path 72236" d="M61,49.694A2.7,2.7,0,1,0,58.3,47,2.7,2.7,0,0,0,61,49.694Z" transform="translate(-39.907 -4.617)" fill="#fff"/>
    <path id="Path_72237" data-name="Path 72237" d="M65.433,73.6H60.8a3.6,3.6,0,0,1,1.262,2.741l.131,2.741H67.8V75.949A2.331,2.331,0,0,0,65.433,73.6Z" transform="translate(-41.863 -27.544)" fill="#fff"/>
  </g>
</svg>
