<svg xmlns="http://www.w3.org/2000/svg" width="16.351" height="15.567" viewBox="0 0 16.351 15.567">
  <g id="noun_TV_1004082" transform="translate(0 -1.2)">
    <g id="Group_40551" data-name="Group 40551" transform="translate(0 1.2)">
      <path id="Path_109091" data-name="Path 109091" d="M14.988,4.13H7.7L9.163,2.665a.337.337,0,0,0-.477-.477l-1.6,1.6L4.6,1.3a.337.337,0,1,0-.477.477l2.35,2.35H1.363A1.367,1.367,0,0,0,0,5.492v8.652a1.367,1.367,0,0,0,1.363,1.363h.477v.92a.322.322,0,0,0,.341.341H4.156a.322.322,0,0,0,.341-.341v-.92h7.392v.92a.322.322,0,0,0,.341.341H14.2a.322.322,0,0,0,.341-.341v-.92h.443a1.367,1.367,0,0,0,1.363-1.363V5.492A1.367,1.367,0,0,0,14.988,4.13ZM3.781,16.052H2.521v-.545H3.815v.545Zm10.049,0H12.536v-.545H13.83Zm1.839-1.942a.683.683,0,0,1-.681.681H1.363a.683.683,0,0,1-.681-.681V5.492a.683.683,0,0,1,.681-.681H14.988a.683.683,0,0,1,.681.681Z" transform="translate(0 -1.2)" fill="#bdbdbd"/>
      <path id="Path_109092" data-name="Path 109092" d="M13.2,13.8H5.363A1.367,1.367,0,0,0,4,15.163V21.09a1.367,1.367,0,0,0,1.363,1.363H13.2A1.367,1.367,0,0,0,14.56,21.09V15.163A1.367,1.367,0,0,0,13.2,13.8Zm.681,7.256a.683.683,0,0,1-.681.681H5.363a.683.683,0,0,1-.681-.681V15.163a.683.683,0,0,1,.681-.681H13.2a.683.683,0,0,1,.681.681Z" transform="translate(-2.637 -9.508)" fill="#bdbdbd"/>
      <path id="Path_109093" data-name="Path 109093" d="M39.339,35.3h-1.5a.341.341,0,1,0,0,.681h1.5a.341.341,0,0,0,0-.681Z" transform="translate(-24.726 -23.684)" fill="#bdbdbd"/>
      <path id="Path_109094" data-name="Path 109094" d="M39.339,30h-1.5a.341.341,0,1,0,0,.681h1.5a.341.341,0,0,0,0-.681Z" transform="translate(-24.726 -20.189)" fill="#bdbdbd"/>
      <path id="Path_109095" data-name="Path 109095" d="M38.1,15.3a1.4,1.4,0,0,0-1.4,1.4,1.381,1.381,0,0,0,1.4,1.4,1.4,1.4,0,1,0,0-2.793Zm0,2.112a.72.72,0,0,1-.715-.715.7.7,0,0,1,.715-.715.715.715,0,0,1,0,1.431Z" transform="translate(-24.198 -10.497)" fill="#bdbdbd"/>
    </g>
  </g>
</svg>
