<svg xmlns="http://www.w3.org/2000/svg" width="11.404" height="18.756" viewBox="0 0 11.404 18.756">
  <g id="noun_favorite_tag_1625233" data-name="noun_favorite tag_1625233" transform="translate(-20.9 -1.837)">
    <g id="Group_40550" data-name="Group 40550" transform="translate(21 1.937)">
      <path id="Path_109086" data-name="Path 109086" d="M26.6,1.937a.58.58,0,0,0-.573.592v.966H24.863a.508.508,0,0,0-.4.157L21.181,6.742A.58.58,0,0,0,21,7.165V19.914a.58.58,0,0,0,.579.579H31.624a.58.58,0,0,0,.58-.579V7.165a.58.58,0,0,0-.181-.423L28.739,3.652a.58.58,0,0,0-.4-.157H27.181V2.529a.58.58,0,0,0-.586-.592ZM25.087,4.654h.936v.477a1.932,1.932,0,1,0,1.159,0V4.654h.936l2.928,2.759V19.334H22.159V7.418ZM26.6,6.2a.773.773,0,1,1-.773.773A.764.764,0,0,1,26.6,6.2Zm-1.563,5.022a2.265,2.265,0,0,0-1.7.755,2.329,2.329,0,0,0-.6,1.5s0,.008,0,.012a4.009,4.009,0,0,0,1.237,2.728,14.191,14.191,0,0,0,2.294,1.847.58.58,0,0,0,.664,0,14.193,14.193,0,0,0,2.294-1.847,4.008,4.008,0,0,0,1.237-2.728s0-.008,0-.012a2.329,2.329,0,0,0-.6-1.5,2.265,2.265,0,0,0-1.7-.755,2.389,2.389,0,0,0-1.563.573A2.389,2.389,0,0,0,25.038,11.221Zm0,1.159a1.281,1.281,0,0,1,1.044.555.58.58,0,0,0,1.038,0,1.281,1.281,0,0,1,1.044-.555,1.043,1.043,0,0,1,.833.362,1.254,1.254,0,0,1,.308.749s0,0,0,.006a2.845,2.845,0,0,1-.924,1.926A11.869,11.869,0,0,1,26.6,16.878a11.868,11.868,0,0,1-1.781-1.455A2.845,2.845,0,0,1,23.9,13.5v-.006a1.254,1.254,0,0,1,.308-.749A1.043,1.043,0,0,1,25.038,12.38Z" transform="translate(-21 -1.937)" fill="#bdbdbd" stroke="#fff" stroke-width="0.2"/>
    </g>
  </g>
</svg>
