<svg xmlns="http://www.w3.org/2000/svg" width="19.254" height="10.691" viewBox="0 0 19.254 10.691">
  <g id="noun_Phone_video_579574" data-name="noun_Phone video_579574" transform="translate(-6.9 43.882)">
    <g id="Слой_2" data-name="Слой 2" transform="translate(7 -43.782)">
      <g id="Слой_1" data-name="Слой 1">
        <path id="Path_109087" data-name="Path 109087" d="M18.01,0H1.044A1.151,1.151,0,0,0,0,1.234V9.257a1.151,1.151,0,0,0,1.044,1.234H18.01a1.151,1.151,0,0,0,1.044-1.234V1.234A1.151,1.151,0,0,0,18.01,0ZM15.922.617V9.874H3.393V.617ZM.522,9.257V1.234A.576.576,0,0,1,1.044.617H2.871V9.874H1.044A.576.576,0,0,1,.522,9.257Zm18.01,0a.576.576,0,0,1-.522.617H16.444V.617H18.01a.576.576,0,0,1,.522.617Z" fill="#bdbdbd" stroke="#bdbdbd" stroke-width="0.2"/>
        <ellipse id="Ellipse_506" data-name="Ellipse 506" cx="0.5" rx="0.5" transform="translate(17 2.782)" fill="#bdbdbd" stroke="#bdbdbd" stroke-width="0.2"/>
        <path id="Path_109088" data-name="Path 109088" d="M66.261,13a.274.274,0,0,0-.261.286V15a.262.262,0,1,0,.522,0V13.286A.274.274,0,0,0,66.261,13Z" transform="translate(-48.773 -8.897)" fill="#bdbdbd" stroke="#bdbdbd" stroke-width="0.2"/>
        <path id="Path_109089" data-name="Path 109089" d="M35,14v1.714l1.305-.857Z" transform="translate(-25.864 -9.612)" fill="#bdbdbd" stroke="#bdbdbd" stroke-width="0.2"/>
        <path id="Path_109090" data-name="Path 109090" d="M30.349,13.919c1.3,0,2.349-1.325,2.349-2.96S31.647,8,30.349,8,28,9.325,28,10.96s1.052,2.96,2.349,2.96Zm0-5.262a2.106,2.106,0,0,1,1.827,2.3,2.106,2.106,0,0,1-1.827,2.3,2.106,2.106,0,0,1-1.827-2.3A2.106,2.106,0,0,1,30.349,8.658Z" transform="translate(-20.692 -5.714)" fill="#bdbdbd" stroke="#bdbdbd" stroke-width="0.2"/>
      </g>
    </g>
  </g>
</svg>
