<svg xmlns="http://www.w3.org/2000/svg" width="26.79" height="26.787" viewBox="0 0 26.79 26.787">
  <g id="noun_explore_2232152" transform="translate(0.004)">
    <g id="Group_4905" data-name="Group 4905" transform="translate(-0.004 0)">
      <g id="Group_4904" data-name="Group 4904">
        <path id="Path_6793" data-name="Path 6793" d="M48.934,43.2a13.363,13.363,0,0,0-3.812,11.165,13.716,13.716,0,0,0,1.161,4.009A13.394,13.394,0,0,0,63.5,65.049a13.667,13.667,0,0,0,3.67-2.257,13.383,13.383,0,0,0,3.79-14.784,13.6,13.6,0,0,0-5.2-6.536,13.394,13.394,0,0,0-15.207.352A13.868,13.868,0,0,0,48.933,43.2a.851.851,0,1,0,1.2,1.2q.443-.443.927-.841l.225-.179c.113-.091-.184.139-.008.008l.1-.074c.165-.122.33-.238.5-.352a12.549,12.549,0,0,1,2.081-1.119l-.206.086a12.725,12.725,0,0,1,3.181-.869l-.227.031a12.785,12.785,0,0,1,3.39,0l-.227-.031a12.725,12.725,0,0,1,3.181.869l-.206-.086a12.367,12.367,0,0,1,1.638.838c.267.162.525.332.778.515l.2.145c.054.04.252.206.023.018.128.1.259.206.383.309a12.527,12.527,0,0,1,1.371,1.346c.1.113.2.23.3.349.052.063.1.128.154.193.082.1-.057-.074-.057-.074.034.042.065.088.1.131.188.25.364.508.531.77a12.5,12.5,0,0,1,.965,1.843l-.086-.206a12.724,12.724,0,0,1,.869,3.181c-.011-.076-.02-.15-.031-.227a12.784,12.784,0,0,1,0,3.39c.011-.076.02-.15.031-.227a12.724,12.724,0,0,1-.869,3.181l.086-.206a12.366,12.366,0,0,1-.838,1.638c-.162.267-.332.525-.515.778l-.145.2c-.04.054-.206.252-.018.023-.1.128-.206.259-.309.383a12.528,12.528,0,0,1-1.346,1.371c-.113.1-.23.2-.349.3-.063.051-.128.1-.193.153-.1.082.074-.057.074-.057-.042.034-.088.065-.131.1-.25.188-.508.364-.77.531a12.5,12.5,0,0,1-1.843.965l.206-.086a12.726,12.726,0,0,1-3.181.869l.227-.031a12.786,12.786,0,0,1-3.39,0l.227.031a12.726,12.726,0,0,1-3.184-.872l.206.086a12.364,12.364,0,0,1-1.638-.838c-.267-.162-.525-.332-.778-.515l-.2-.145c-.054-.04-.252-.206-.023-.018-.128-.1-.259-.206-.383-.309a12.528,12.528,0,0,1-1.371-1.346c-.1-.113-.2-.23-.3-.349-.052-.063-.1-.128-.154-.193-.082-.1.057.074.057.074-.034-.042-.065-.088-.1-.131-.188-.25-.364-.508-.531-.77a12.5,12.5,0,0,1-.965-1.843l.086.206a12.725,12.725,0,0,1-.869-3.181c.011.076.02.15.031.227a12.786,12.786,0,0,1,0-3.39c-.011.076-.02.15-.031.227a12.725,12.725,0,0,1,.869-3.181l-.086.206A12.544,12.544,0,0,1,48.7,46.147c.113-.17.23-.335.352-.5l.074-.1c.131-.173-.1.125-.008.008.06-.076.12-.15.179-.225a12.357,12.357,0,0,1,.841-.927.85.85,0,1,0-1.2-1.206Z" transform="translate(-45.013 -39.276)" fill="#666"/>
      </g>
    </g>
    <g id="Group_4907" data-name="Group 4907" transform="translate(12.32 12.326)">
      <g id="Group_4906" data-name="Group 4906" transform="translate(0 0)">
        <path id="Path_6794" data-name="Path 6794" d="M475.914,470.414a1.114,1.114,0,0,0-.314.754,1.067,1.067,0,1,0,1.068-1.068,1.119,1.119,0,0,0-.754.314.783.783,0,0,0,1.107,1.107.317.317,0,0,1,.034-.029c-.052.042-.1.081-.159.123a.248.248,0,0,1,.057-.031l-.191.078a.527.527,0,0,1,.063-.018l-.209.029a.48.48,0,0,1,.086,0l-.209-.029a.41.41,0,0,1,.063.018l-.191-.078.057.031c-.052-.042-.1-.081-.159-.123a.307.307,0,0,1,.066.065c-.042-.052-.081-.1-.123-.159a.258.258,0,0,1,.031.057l-.078-.191a.6.6,0,0,1,.018.063c-.011-.071-.018-.138-.029-.209a.448.448,0,0,1,0,.086c.011-.07.018-.138.029-.209a.433.433,0,0,1-.018.063l.078-.191c-.01.021-.021.039-.031.057.042-.052.081-.1.123-.159a.307.307,0,0,1-.066.065c.052-.042.1-.081.159-.123a.243.243,0,0,1-.057.032l.191-.078a.579.579,0,0,1-.063.018l.209-.029a.469.469,0,0,1-.086,0l.209.029a.431.431,0,0,1-.063-.018l.191.078-.057-.032c.052.042.1.081.159.123a.308.308,0,0,1-.065-.065c.042.052.081.1.123.159a.251.251,0,0,1-.031-.057l.078.191a.557.557,0,0,1-.018-.063c.011.071.018.138.029.209a.48.48,0,0,1,0-.086c-.01.071-.018.138-.029.209a.454.454,0,0,1,.018-.063l-.078.191c.01-.021.021-.039.031-.057-.042.052-.081.1-.123.159a.17.17,0,0,1,.029-.034.815.815,0,0,0,.23-.554.783.783,0,0,0-1.335-.556Z" transform="translate(-475.6 -470.1)" fill="#666"/>
      </g>
    </g>
    <g id="Group_4909" data-name="Group 4909" transform="translate(6.494 6.493)">
      <g id="Group_4908" data-name="Group 4908" transform="translate(0 0)">
        <path id="Path_6795" data-name="Path 6795" d="M253.411,260.18c.3-.113.6-.222.9-.334l2.147-.8,2.58-.961,2.2-.82c.335-.125.667-.245,1-.374h0a.874.874,0,0,0,.407-.286.993.993,0,0,0,.141-.266.062.062,0,0,1,.008-.021c.015-.045.034-.086.05-.131.073-.191.144-.381.216-.572.258-.676.514-1.355.773-2.032q.485-1.281.974-2.564l.877-2.306c.159-.418.318-.838.477-1.256a.548.548,0,0,0,.021-.057.789.789,0,0,0-.963-.963l-.883.337-2.123.807-2.575.979-2.232.849c-.368.141-.736.276-1.1.421l-.018.008a1,1,0,0,0-.266.141.892.892,0,0,0-.286.407.028.028,0,0,1,0,0c-.013.031-.024.065-.036.1-.065.173-.128.347-.191.52-.245.661-.494,1.322-.739,1.984l-.954,2.561q-.435,1.163-.867,2.327c-.159.425-.316.849-.477,1.274a.544.544,0,0,0-.021.06.782.782,0,1,0,1.509.413l.329-.88.784-2.1q.477-1.277.954-2.556c.275-.733.545-1.467.82-2.2.134-.358.277-.713.4-1.076a.02.02,0,0,1,0-.015l-.548.548c.3-.113.593-.225.891-.339.708-.269,1.418-.538,2.125-.81l2.585-.982,2.235-.849c.36-.135.726-.264,1.084-.413a.035.035,0,0,1,.015,0l-.963-.964c-.113.3-.224.593-.339.891-.269.708-.538,1.418-.81,2.125q-.489,1.293-.982,2.585c-.286.744-.566,1.491-.849,2.235-.135.36-.286.718-.413,1.083a.036.036,0,0,0,0,.015l.548-.548-.88.329-2.1.784-2.556.954c-.734.275-1.468.545-2.2.82-.358.134-.718.264-1.076.4l-.015,0a.838.838,0,0,0-.467.36.782.782,0,0,0,.883,1.144Z" transform="translate(-252.421 -246.412)" fill="#666"/>
      </g>
    </g>
  </g>
</svg>
