<svg xmlns="http://www.w3.org/2000/svg" width="54.49" height="54.49" viewBox="0 0 54.49 54.49">
  <g id="noun_Chair_576711" transform="translate(1 1)">
    <g id="Group_40470" data-name="Group 40470">
      <path id="Path_108995" data-name="Path 108995" d="M44.008,21.324a1.64,1.64,0,0,1-1.64-1.64V9.839A6.565,6.565,0,0,0,35.81,3.281H12.839A6.564,6.564,0,0,0,6.281,9.839v9.845a1.64,1.64,0,1,1-3.281,0V9.839A9.85,9.85,0,0,1,12.839,0H35.81a9.849,9.849,0,0,1,9.839,9.839v9.845A1.64,1.64,0,0,1,44.008,21.324Z" transform="translate(1.921)" fill="#fff" stroke="#1c1a69" stroke-width="2"/>
      <path id="Path_108996" data-name="Path 108996" d="M5.731,35.027a1.64,1.64,0,0,1-1.64-1.64V28.912a1.64,1.64,0,0,1,3.281,0v4.475A1.64,1.64,0,0,1,5.731,35.027Z" transform="translate(2.62 17.463)" fill="#fff" stroke="#1c1a69" stroke-width="2"/>
      <path id="Path_108997" data-name="Path 108997" d="M27.549,35.027a1.639,1.639,0,0,1-1.64-1.64V28.912a1.64,1.64,0,0,1,3.281,0v4.475A1.639,1.639,0,0,1,27.549,35.027Z" transform="translate(16.59 17.463)" fill="#fff" stroke="#1c1a69" stroke-width="2"/>
      <path id="Path_108998" data-name="Path 108998" d="M44.287,38.885H8.2a8.213,8.213,0,0,1-8.2-8.2V19.2a8.2,8.2,0,0,1,16.4,0V23.3a.827.827,0,0,0,.827.827H35.26a.827.827,0,0,0,.827-.827V19.2a8.2,8.2,0,0,1,16.4,0V30.682A8.212,8.212,0,0,1,44.287,38.885ZM8.2,14.281A4.927,4.927,0,0,0,3.281,19.2V30.682A4.929,4.929,0,0,0,8.2,35.6H44.287a4.93,4.93,0,0,0,4.923-4.923V19.2a4.921,4.921,0,0,0-9.842,0V23.3A4.111,4.111,0,0,1,35.26,27.4H17.23A4.111,4.111,0,0,1,13.123,23.3V19.2A4.927,4.927,0,0,0,8.2,14.281Z" transform="translate(0 7.044)" fill="#fff" stroke="#1c1a69" stroke-width="2"/>
    </g>
  </g>
</svg>
