<svg xmlns="http://www.w3.org/2000/svg" width="16.879" height="19.122" viewBox="0 0 16.879 19.122">
  <g id="noun_notification_1594277" transform="translate(-25.25 -21.75)">
    <g id="Group_38143" data-name="Group 38143" transform="translate(26 22.5)">
      <g id="Group_38142" data-name="Group 38142" transform="translate(0)">
        <path id="Path_72243" data-name="Path 72243" d="M32.248,24.6a5.768,5.768,0,0,0-4.325,5.585v3.844a.642.642,0,0,1-.64.641,1.282,1.282,0,1,0,0,2.563H40.094a1.282,1.282,0,1,0,0-2.563.639.639,0,0,1-.64-.641V30.189A5.769,5.769,0,0,0,35.131,24.6v-.662a1.442,1.442,0,1,0-2.884,0Zm-.8,13.275h4.485a2.243,2.243,0,0,1-4.485,0Z" transform="translate(-26 -22.5)" fill="none" stroke="#000" stroke-width="1.5" fill-rule="evenodd"/>
      </g>
    </g>
  </g>
</svg>
