<svg id="noun_profile_1069814" xmlns="http://www.w3.org/2000/svg" width="26" height="26" viewBox="0 0 26 26">
  <path id="Path_6791" data-name="Path 6791" d="M18,5A13,13,0,1,0,31,18,13,13,0,0,0,18,5ZM10.836,26.828a9.741,9.741,0,0,1,14.326,0A11.345,11.345,0,0,1,10.836,26.828Zm15.513-1.112a11.365,11.365,0,0,0-16.7,0,11.376,11.376,0,1,1,16.7,0Z" transform="translate(-5 -5)" fill="#00b3ff"/>
  <path id="Path_6792" data-name="Path 6792" d="M35.826,21.88a5.516,5.516,0,1,0,5.516,5.513,5.516,5.516,0,0,0-5.516-5.513Zm0,9.455a3.939,3.939,0,1,1,3.939-3.942,3.939,3.939,0,0,1-3.939,3.942Z" transform="translate(-22.826 -16.889)" fill="#00b3ff"/>
</svg>
