<svg id="paypal-seeklogo.com" xmlns="http://www.w3.org/2000/svg" width="20.249" height="24.027" viewBox="0 0 20.249 24.027">
  <path id="Path_69685" data-name="Path 69685" d="M174.988,386.87h6.777c3.639,0,5.008,1.842,4.8,4.548-.35,4.468-3.051,6.94-6.634,6.94h-1.809c-.492,0-.822.325-.955,1.207l-.768,5.126c-.051.332-.226.525-.488.551H171.65c-.4,0-.542-.306-.437-.969l2.6-16.432A1.033,1.033,0,0,1,174.988,386.87Z" transform="translate(-166.334 -381.214)" fill="#009ee3" fill-rule="evenodd"/>
  <path id="Path_69688" data-name="Path 69688" d="M147.9,354.54h6.784c1.91,0,4.177.061,5.692,1.4a4.6,4.6,0,0,1,1.422,3.849c-.416,5.18-3.514,8.082-7.671,8.082H150.78c-.57,0-.946.378-1.107,1.4l-.934,5.948c-.061.385-.227.612-.525.64h-4.186c-.464,0-.628-.35-.507-1.123l3.009-19.064A1.2,1.2,0,0,1,147.9,354.54Z" transform="translate(-143.482 -354.54)" fill="#113984" fill-rule="evenodd"/>
  <path id="Path_69689" data-name="Path 69689" d="M179.43,395.332l1.184-7.5a1.037,1.037,0,0,1,1.181-.973h6.777a6.61,6.61,0,0,1,2.739.5c-.68,4.611-3.663,7.172-7.568,7.172H180.4A.987.987,0,0,0,179.43,395.332Z" transform="translate(-173.141 -381.206)" fill="#172c70" fill-rule="evenodd"/>
</svg>
