<svg id="camera" xmlns="http://www.w3.org/2000/svg" width="26.473" height="21.221" viewBox="0 0 26.473 21.221">
  <path id="Path_1" data-name="Path 1" d="M20.734,24.906H32.641a2.4,2.4,0,0,0,2.408-2.223V15.99a2.568,2.568,0,0,0-2.408-2.408H30.207c0-.979-1.005-1.482-2.223-1.482H25.365c-1.217,0-2.223.5-2.223,1.482H20.708A2.548,2.548,0,0,0,18.3,15.99v6.694A2.41,2.41,0,0,0,20.734,24.906Zm5.953-9.287a3.731,3.731,0,1,1-3.731,3.731A3.726,3.726,0,0,1,26.688,15.619Z" transform="translate(-13.477 -12.1)" fill="#fff"/>
  <circle id="Ellipse_1" data-name="Ellipse 1" cx="2.223" cy="2.223" r="2.223" transform="translate(10.988 5.001)" fill="#fff"/>
  <path id="Path_2" data-name="Path 2" d="M69.111,55.032a6.259,6.259,0,0,0-1.508-.82A4.321,4.321,0,0,0,67.02,54s.185.106.529.318a6.452,6.452,0,0,1,1.244,1.058,2.6,2.6,0,0,1,.5.873,1.21,1.21,0,0,1-.132.953,4.006,4.006,0,0,1-2.037,1.4,20.317,20.317,0,0,1-5.715,1.032c-.714.053-1.4.053-2.011.053V62.52c.714-.079,1.508-.212,2.355-.37a20.2,20.2,0,0,0,6.059-2.2,8.153,8.153,0,0,0,1.323-.979,3.338,3.338,0,0,0,.926-1.376,1.978,1.978,0,0,0-.106-1.561A2.541,2.541,0,0,0,69.111,55.032Z" transform="translate(-43.702 -42.913)" fill="#fff"/>
  <path id="Path_3" data-name="Path 3" d="M2.434,60a20.2,20.2,0,0,0,6.059,2.2c.635.132,1.27.238,1.852.318v1.693l3.44-2.963-3.44-2.963v1.455c-.476,0-.979-.026-1.508-.053a20.277,20.277,0,0,1-5.715-1.005A4.177,4.177,0,0,1,1.058,57.3a1.1,1.1,0,0,1-.132-.953,2.168,2.168,0,0,1,.476-.873,5.885,5.885,0,0,1,1.244-1.058,5.5,5.5,0,0,1,.529-.318,4.323,4.323,0,0,0-.582.212,6.791,6.791,0,0,0-1.508.82,2.936,2.936,0,0,0-.82.953,2.1,2.1,0,0,0-.079,1.561,3.79,3.79,0,0,0,.953,1.376A6.943,6.943,0,0,0,2.434,60Z" transform="translate(-0.072 -42.987)" fill="#fff"/>
</svg>
