<svg xmlns="http://www.w3.org/2000/svg" width="33.375" height="30.461" viewBox="0 0 33.375 30.461">
  <g id="picture" transform="translate(4.444 -29.021)">
    <path id="Path_103831" data-name="Path 103831" d="M27.283,45.969,7.952,53.609a1.9,1.9,0,0,1-2.468-1.07L.134,39A1.9,1.9,0,0,1,1.2,36.534l19.331-7.64A1.9,1.9,0,0,1,23,29.964L28.353,43.5A1.9,1.9,0,0,1,27.283,45.969Z" transform="translate(4.629 1.28) rotate(9)" fill="#b7eaff" stroke="#fff" stroke-width="1"/>
    <path id="Path_103832" data-name="Path 103832" d="M53.9,108.568H32.343a1.9,1.9,0,0,1-1.9-1.9V91.535a1.9,1.9,0,0,1,1.9-1.9H53.9a1.9,1.9,0,0,1,1.9,1.9v15.131A1.9,1.9,0,0,1,53.9,108.568Z" transform="translate(-28.586 -57.164)" fill="#fff"/>
    <path id="Path_103833" data-name="Path 103833" d="M58.189,132.986V118.619a1.235,1.235,0,0,1,1.235-1.235H80.745a1.235,1.235,0,0,1,1.235,1.235v14.366a1.235,1.235,0,0,1-1.235,1.235H59.424A1.235,1.235,0,0,1,58.189,132.986Z" transform="translate(-55.55 -83.866)" fill="#51cbff"/>
    <path id="Path_103834" data-name="Path 103834" d="M94.375,185.068l-1.986,3.561a.676.676,0,0,1-1.188-.013L87.746,182.1a.676.676,0,0,0-1.216,0l-5.808,11.254H99.953l-4.362-8.284A.676.676,0,0,0,94.375,185.068Z" transform="translate(-75.803 -143.638)" fill="#88ffdf"/>
    <circle id="Ellipse_16" data-name="Ellipse 16" cx="2.029" cy="2.029" r="2.029" transform="translate(14.097 35.374)" fill="#ffe290"/>
  </g>
</svg>
