<svg xmlns="http://www.w3.org/2000/svg" width="13" height="13" viewBox="0 0 13 13">
  <g id="Group_40564" data-name="Group 40564" transform="translate(-0.049 0.248)">
    <circle id="Ellipse_50" data-name="Ellipse 50" cx="6.5" cy="6.5" r="6.5" transform="translate(0.049 -0.248)" fill="#f55065"/>
    <path id="Icon_ionic-ios-heart" data-name="Icon ionic-ios-heart" d="M6.756,3.938H6.745a1.266,1.266,0,0,0-1.057.578,1.266,1.266,0,0,0-1.057-.578H4.621A1.257,1.257,0,0,0,3.375,5.194,2.707,2.707,0,0,0,3.907,6.67,9.317,9.317,0,0,0,5.688,8.386,9.317,9.317,0,0,0,7.47,6.67,2.707,2.707,0,0,0,8,5.194,1.257,1.257,0,0,0,6.756,3.938Z" transform="translate(0.674 -0.186)" fill="#fff"/>
  </g>
</svg>
