<svg xmlns="http://www.w3.org/2000/svg" fill="#ffffff" width="29.124" height="19.44" viewBox="0 0 29.124 19.44">
  <g id="social" transform="translate(-85.497 -888.844)">
    <g id="noun_users_791122" transform="translate(78.541 867.244)">
      <g id="Group_38146" data-name="Group 38146" transform="translate(7.459 22.1)">
        <circle id="Ellipse_19" data-name="Ellipse 19" cx="3.767" cy="3.767" r="3.767" transform="translate(10.292 0)" fill="none" stroke="#30b3fc" stroke-width="1"/>
        <circle id="Ellipse_20" data-name="Ellipse 20" cx="2.809" cy="2.809" r="2.809" transform="translate(19.71 1.818)" fill="none" stroke="#30b3fc" stroke-width="1"/>
        <path id="Path_72245" data-name="Path 72245" d="M75.026,53.251c-.562-3.536-2.412-5.651-5.585-5.651a5.02,5.02,0,0,0-3.04.892,2.979,2.979,0,0,0,.33.3,11.293,11.293,0,0,1,2.71,6.081c0,.1.033.2.033.264C72.547,55.168,75.257,54.639,75.026,53.251Z" transform="translate(-46.921 -39.173)" fill="none" stroke="#30b3fc" stroke-width="1"/>
        <circle id="Ellipse_21" data-name="Ellipse 21" cx="2.809" cy="2.809" r="2.809" transform="translate(2.79 1.818)" fill="none" stroke="#30b3fc" stroke-width="1"/>
        <path id="Path_72246" data-name="Path 72246" d="M15.8,48.79l.3-.3a5.089,5.089,0,0,0-3.04-.892c-3.14,0-4.99,2.082-5.585,5.651-.231,1.388,2.512,1.917,5.585,1.917a.644.644,0,0,1,.033-.264A11.043,11.043,0,0,1,15.8,48.79Z" transform="translate(-7.459 -39.173)" fill="none" stroke="#30b3fc" stroke-width="1"/>
        <path id="Path_72247" data-name="Path 72247" d="M34.834,57.48c-4.131,0-7.766-.727-7.469-2.545.793-4.759,3.272-7.535,7.469-7.535s6.676,2.809,7.469,7.535C42.6,56.753,38.965,57.48,34.834,57.48Z" transform="translate(-20.775 -39.039)" fill="none" stroke="#30b3fc" stroke-width="1"/>
      </g>
    </g>
  </g>
</svg>
