<svg width="512" height="512" xmlns="http://www.w3.org/2000/svg">

 <g>
  <title>background</title>
  <rect fill="#d6d6d6" id="canvas_background" height="514" width="514" y="-1" x="-1"/>
 </g>
 <g>
  <title>Layer 1</title>
  <g id="svg_1">
   <path id="svg_2" fill="#ffffff" d="m256,0c-141.36328,0 -256,114.63672 -256,256s114.63672,256 256,256s256,-114.63672 256,-256s-114.63672,-256 -256,-256zm116.88672,199.60156c0.11328,2.51953 0.16797,5.05078 0.16797,7.59375c0,77.64453 -59.10156,167.17969 -167.1836,167.1836l0.00391,0l-0.00391,0c-33.18359,0 -64.0625,-9.72657 -90.0664,-26.39453c4.59765,0.54296 9.27734,0.8125 14.01562,0.8125c27.53125,0 52.86719,-9.39063 72.98047,-25.15235c-25.72265,-0.47656 -47.41015,-17.46484 -54.89453,-40.8125c3.58203,0.6875 7.26563,1.0625 11.04297,1.0625c5.36328,0 10.55859,-0.72265 15.49609,-2.07031c-26.88672,-5.38281 -47.14062,-29.14453 -47.14062,-57.59766c0,-0.26562 0,-0.5039 0.00781,-0.75c7.91797,4.40235 16.97266,7.05078 26.61328,7.34766c-15.77734,-10.52734 -26.14844,-28.52344 -26.14844,-48.91016c0,-10.76562 2.91016,-20.85156 7.95704,-29.53515c28.97656,35.55468 72.28125,58.9375 121.11718,61.39453c-1.00781,-4.30469 -1.52734,-8.78906 -1.52734,-13.39844c0,-32.4375 26.31641,-58.75391 58.76562,-58.75391c16.90235,0 32.16797,7.14454 42.89063,18.56641c13.38672,-2.64062 25.95703,-7.53125 37.3125,-14.26172c-4.39453,13.71485 -13.70703,25.22266 -25.83984,32.5c11.88671,-1.42187 23.21484,-4.57422 33.74218,-9.2539c-7.86328,11.78515 -17.83593,22.13671 -29.30859,30.42968zm0,0"/>
  </g>
 </g>
</svg>