<svg id="coin" xmlns="http://www.w3.org/2000/svg" xmlns:xlink="http://www.w3.org/1999/xlink" width="27.586" height="33.992" viewBox="0 0 27.586 33.992">
  <defs>
    <linearGradient id="linear-gradient" x1="0.157" y1="-0.028" x2="0.844" y2="1.028" gradientUnits="objectBoundingBox">
      <stop offset="0" stop-color="#ffe53b"/>
      <stop offset="1" stop-color="#ffa200"/>
    </linearGradient>
    <linearGradient id="linear-gradient-2" x1="0.254" y1="0.042" x2="0.68" y2="1.119" gradientUnits="objectBoundingBox">
      <stop offset="0" stop-color="#fff73b"/>
      <stop offset="1" stop-color="#ffba00"/>
    </linearGradient>
    <linearGradient id="linear-gradient-3" y1="0.5" x2="1.407" y2="0.5" gradientUnits="objectBoundingBox">
      <stop offset="0" stop-color="#fff654"/>
      <stop offset="0.655" stop-color="#ffd947"/>
    </linearGradient>
    <linearGradient id="linear-gradient-4" x1="0.253" y1="0.114" x2="0.747" y2="0.886" xlink:href="#linear-gradient"/>
    <linearGradient id="linear-gradient-5" x1="0.328" y1="-0.036" x2="0.58" y2="1.032" xlink:href="#linear-gradient-2"/>
    <linearGradient id="linear-gradient-6" x1="0" y1="0.5" x2="1.407" y2="0.5" xlink:href="#linear-gradient-3"/>
    <linearGradient id="linear-gradient-7" x1="0.213" y1="-0.01" x2="0.787" y2="1.01" xlink:href="#linear-gradient"/>
    <linearGradient id="linear-gradient-8" x1="0.302" y1="0.045" x2="0.616" y2="1.154" xlink:href="#linear-gradient-2"/>
    <linearGradient id="linear-gradient-10" x1="0.213" y1="-0.01" x2="0.787" y2="1.01" xlink:href="#linear-gradient"/>
    <linearGradient id="linear-gradient-11" x1="0.302" y1="0.045" x2="0.616" y2="1.154" xlink:href="#linear-gradient-2"/>
  </defs>
  <g id="Group_38969" data-name="Group 38969" transform="translate(11.912 10.519)">
    <path id="Path_106619" data-name="Path 106619" d="M238.942,136.152c-.937,2.665,1.592,5.988,5.656,7.42s8.116.434,9.058-2.234c.064-.183.537-1.432.57-1.62a7.912,7.912,0,0,1-2.672,1.971,9.342,9.342,0,0,1-6.24-.052c-6.178-2.857-5.8-7.1-5.8-7.1C239.41,134.712,239.012,135.956,238.942,136.152Z" transform="translate(-238.747 -131.648)" fill="#ed8203"/>
    <g id="Group_38961" data-name="Group 38961" transform="translate(0.058 4.058)">
      <path id="Path_106620" data-name="Path 106620" d="M238.823,138.258a4.629,4.629,0,0,0,.247.941c.049-.126.1-.249.142-.377a18.287,18.287,0,0,1,.683-1.978,5.945,5.945,0,0,1-.226-.765c-.192.511-.437,1-.612,1.525C238.982,137.821,238.9,138.038,238.823,138.258Z" transform="translate(-238.823 -136.08)" fill="#c66802"/>
      <path id="Path_106621" data-name="Path 106621" d="M245.138,145.256c.217-.687.336-1.414.61-2.078-.2-.105-.371-.218-.553-.327-.256.685-.528,1.366-.794,2.046C244.638,145.024,244.884,145.146,245.138,145.256Z" transform="translate(-240.173 -137.719)" fill="#c66802"/>
      <path id="Path_106622" data-name="Path 106622" d="M240.554,141.812c.146.174.3.349.469.517.252-.756.5-1.514.778-2.262-.146-.159-.274-.316-.4-.473q-.292.832-.612,1.655C240.722,141.438,240.638,141.624,240.554,141.812Z" transform="translate(-239.242 -136.93)" fill="#c66802"/>
      <path id="Path_106623" data-name="Path 106623" d="M239.619,140.423c.08.143.168.285.265.428.3-.735.641-1.464.888-2.2a6.705,6.705,0,0,1-.344-.587c-.272.614-.389,1.283-.63,1.92C239.745,140.128,239.68,140.275,239.619,140.423Z" transform="translate(-239.016 -136.56)" fill="#c66802"/>
      <path id="Path_106624" data-name="Path 106624" d="M242.2,143.4a11.859,11.859,0,0,1,.8-2.161c-.161-.137-.312-.278-.456-.418-.265.743-.517,1.489-.764,2.236C241.914,143.176,242.053,143.291,242.2,143.4Z" transform="translate(-239.538 -137.228)" fill="#c66802"/>
      <path id="Path_106625" data-name="Path 106625" d="M243.55,144.377c.271-.689.548-1.379.8-2.075-.219-.146-.42-.294-.614-.442a11.721,11.721,0,0,0-.769,2.147C243.157,144.137,243.352,144.261,243.55,144.377Z" transform="translate(-239.827 -137.479)" fill="#c66802"/>
      <path id="Path_106626" data-name="Path 106626" d="M246.041,145.647c.106.044.21.089.322.126.133.049.268.084.4.128.239-.636.5-1.266.688-1.924-.128-.044-.259-.086-.374-.139-.15-.069-.294-.139-.435-.21A18.878,18.878,0,0,0,246.041,145.647Z" transform="translate(-240.57 -137.907)" fill="#c66802"/>
      <path id="Path_106627" data-name="Path 106627" d="M251.848,146.626c.038-.111.08-.217.113-.329q.279-.872.572-1.739c-.243.023-.493.042-.745.051q-.341,1.014-.66,2.034C251.373,146.648,251.612,146.639,251.848,146.626Z" transform="translate(-241.801 -138.132)" fill="#c66802"/>
      <path id="Path_106628" data-name="Path 106628" d="M252.9,146.493c.227-.03.446-.075.661-.124.084-.2.163-.409.24-.623.181-.49.321-.994.487-1.489-.226.055-.458.1-.7.144-.226.669-.434,1.345-.661,2.012C252.92,146.442,252.912,146.466,252.9,146.493Z" transform="translate(-242.231 -138.059)" fill="#c66802"/>
      <path id="Path_106629" data-name="Path 106629" d="M254.866,145.506c-.064.166-.13.329-.2.49a5.819,5.819,0,0,0,.733-.3c.159-.431.327-.862.462-1.3.092-.309.192-.61.307-.908a4.806,4.806,0,0,1-.765.371l-.006,0C255.2,144.4,255.063,144.963,254.866,145.506Z" transform="translate(-242.659 -137.872)" fill="#c66802"/>
      <path id="Path_106630" data-name="Path 106630" d="M256.687,144.847a4.225,4.225,0,0,0,.736-.7c.221-.738.45-1.483.727-2.2-.149.146-.33.309-.537.484a9.752,9.752,0,0,0-.81,2.088C256.767,144.628,256.724,144.736,256.687,144.847Z" transform="translate(-243.147 -137.5)" fill="#c66802"/>
      <path id="Path_106631" data-name="Path 106631" d="M250.139,146.622c.209-.669.431-1.336.65-2.006-.236,0-.475-.013-.709-.035-.21.654-.4,1.317-.592,1.975C249.705,146.585,249.922,146.609,250.139,146.622Z" transform="translate(-241.404 -138.138)" fill="#c66802"/>
      <path id="Path_106632" data-name="Path 106632" d="M248.488,146.4c.2-.65.378-1.305.584-1.951-.232-.037-.456-.081-.669-.136-.186.656-.451,1.279-.694,1.913C247.969,146.292,248.229,146.347,248.488,146.4Z" transform="translate(-240.974 -138.072)" fill="#c66802"/>
    </g>
    <path id="Path_106633" data-name="Path 106633" d="M240.114,137.415c-.236.835-.442,1.684-.758,2.484a9.316,9.316,0,0,0,5.365,4.362c.277-.632.546-1.264.789-1.907a.4.4,0,0,1-.049-.02C242.154,140.8,240.724,138.876,240.114,137.415Z" transform="translate(-238.894 -132.345)" fill="#ffee52" opacity="0.25"/>
    <path id="Path_106634" data-name="Path 106634" d="M240.371,141.612a9.5,9.5,0,0,0,2.9,2.38c.3-.669.554-1.354.8-2.046a10.113,10.113,0,0,1-2.8-2.481C240.983,140.187,240.671,140.9,240.371,141.612Z" transform="translate(-239.14 -132.841)" fill="#ffee52" opacity="0.28"/>
    <g id="Group_38962" data-name="Group 38962" transform="translate(1.231 6.624)">
      <path id="Path_106635" data-name="Path 106635" d="M241.714,142.977q.375-1.1.756-2.2c-.205-.192-.393-.384-.568-.577-.223.753-.512,1.487-.784,2.223A7.915,7.915,0,0,0,241.714,142.977Z" transform="translate(-240.552 -139.643)" fill="#ffee52" opacity="0.35"/>
      <path id="Path_106636" data-name="Path 106636" d="M240.51,141.767c.281-.749.562-1.5.769-2.282-.007-.007-.016-.014-.017-.02-.279.722-.59,1.436-.891,2.147C240.41,141.665,240.466,141.716,240.51,141.767Z" transform="translate(-240.371 -139.465)" fill="#ffee52" opacity="0.35"/>
      <path id="Path_106637" data-name="Path 106637" d="M242.818,143.864c.225-.723.473-1.439.727-2.157-.089-.068-.183-.139-.27-.208-.247.723-.5,1.441-.744,2.165C242.621,143.731,242.721,143.795,242.818,143.864Z" transform="translate(-240.894 -139.957)" fill="#ffee52" opacity="0.35"/>
      <path id="Path_106638" data-name="Path 106638" d="M244.165,144.749c.3-.669.554-1.354.8-2.046-.06-.035-.111-.075-.168-.11-.238.7-.479,1.4-.716,2.1C244.107,144.714,244.136,144.732,244.165,144.749Z" transform="translate(-241.268 -140.222)" fill="#ffee52" opacity="0.35"/>
    </g>
    <path id="Path_106639" data-name="Path 106639" d="M250.456,144.265c-.21.667-.433,1.326-.672,1.982a7.845,7.845,0,0,0,4.735-.782c.263-.769.55-1.533.824-2.289a5.027,5.027,0,0,1-1.118.6A9.615,9.615,0,0,1,250.456,144.265Z" transform="translate(-241.418 -133.74)" fill="#7a4103" opacity="0.32"/>
    <path id="Path_106640" data-name="Path 106640" d="M251.5,146.472a8.332,8.332,0,0,0,2.294-.347,23.185,23.185,0,0,1,1.016-2.25c-.055.023-.111.055-.168.075a8.6,8.6,0,0,1-2.4.478C251.991,145.108,251.743,145.787,251.5,146.472Z" transform="translate(-241.833 -133.909)" fill="#7a4103" opacity="0.32"/>
    <path id="Path_106641" data-name="Path 106641" d="M251.657,143.844c-.232.67-.42,1.352-.643,2.028,2.7.064,4.94-.983,5.61-2.879.064-.183.537-1.432.57-1.62a7.912,7.912,0,0,1-2.672,1.971A9.084,9.084,0,0,1,251.657,143.844Z" transform="translate(-241.716 -133.303)" fill="#7a4103" opacity="0.32"/>
    <path id="Path_106642" data-name="Path 106642" d="M239.7,133.613c-.939,2.665,1.591,5.988,5.654,7.42s8.118.431,9.057-2.236-1.593-5.986-5.654-7.417S240.636,130.948,239.7,133.613Z" transform="translate(-238.929 -130.726)" fill="#fcd517"/>
    <path id="Path_106643" data-name="Path 106643" d="M255.513,138.644a21.221,21.221,0,0,1,.34,2.713,3.914,3.914,0,0,0,1.989-2.141c.817-2.313-1-5.119-4.152-6.756A37.892,37.892,0,0,1,255.513,138.644Z" transform="translate(-242.364 -131.146)" fill="#ffbc00"/>
    <path id="Path_106644" data-name="Path 106644" d="M250.448,131.206a36.845,36.845,0,0,1,2.291,3.659c-.307-1.067-.627-2.131-.91-3.206-.141-.053-.283-.113-.426-.164C251.082,131.383,250.764,131.29,250.448,131.206Z" transform="translate(-241.579 -130.842)" fill="#ffbc00"/>
    <path id="Path_106645" data-name="Path 106645" d="M239.7,133.614c-.939,2.665,1.591,5.988,5.654,7.42a10.623,10.623,0,0,0,4.878.568c-.168-.171-.333-.34-.493-.518a14.65,14.65,0,0,1-3.546-6.29,9.867,9.867,0,0,1-.314-4.03C242.927,130.526,240.41,131.588,239.7,133.614Z" transform="translate(-238.929 -130.727)" fill="#fff7ab" opacity="0.54"/>
    <path id="Path_106646" data-name="Path 106646" d="M239.7,133.857c-.939,2.665,1.591,5.988,5.654,7.42.331.117.665.212.994.3a20.645,20.645,0,0,1-3-3.756c-.858-1.412-1.958-4.041-1.7-6.083A3.887,3.887,0,0,0,239.7,133.857Z" transform="translate(-238.929 -130.97)" fill="#fff7ab" opacity="0.54"/>
    <path id="Path_106647" data-name="Path 106647" d="M246.036,130.759c-.93,3.135.593,6.273,2.815,8.692a27.627,27.627,0,0,0,2.347,2.2c.186-.013.367-.029.546-.052-.168-.171-.334-.34-.493-.518a14.65,14.65,0,0,1-3.546-6.29,9.868,9.868,0,0,1-.314-4.03A9.2,9.2,0,0,0,246.036,130.759Z" transform="translate(-240.444 -130.729)" fill="#fff7ab" opacity="0.54"/>
    <g id="Group_38963" data-name="Group 38963" transform="translate(0.576 3.499)">
      <path id="Path_106648" data-name="Path 106648" d="M239.55,135.343c-.4,2.541,2.044,5.482,5.8,6.807,3.071,1.081,6.133.772,7.852-.594a8.486,8.486,0,0,1-7.422.292C240.1,139.559,239.616,136.28,239.55,135.343Z" transform="translate(-239.507 -135.343)" fill="#ffffd7"/>
    </g>
    <path id="Path_106649" data-name="Path 106649" d="M242.01,133.7c-.643,1.823,1.463,4.227,4.706,5.372s6.395.592,7.035-1.233-1.463-4.226-4.708-5.369S242.653,131.881,242.01,133.7Z" transform="translate(-239.509 -131.005)" fill="url(#linear-gradient)"/>
    <path id="Path_106650" data-name="Path 106650" d="M242.01,133.7c-.643,1.823,1.463,4.227,4.706,5.372a10.727,10.727,0,0,0,2.281.533c-.122-.159-.252-.316-.365-.487a12.921,12.921,0,0,1-2.289-7.22C244.209,131.756,242.467,132.4,242.01,133.7Z" transform="translate(-239.509 -131.006)" fill="url(#linear-gradient-2)"/>
    <path id="Path_106651" data-name="Path 106651" d="M253.763,137.842c.643-1.822-1.463-4.226-4.708-5.369s-6.39-.593-7.033,1.23a1.949,1.949,0,0,0-.08.316c.864-1.584,3.838-2.015,6.9-.937s5.1,3.281,4.786,5.058A1.764,1.764,0,0,0,253.763,137.842Z" transform="translate(-239.52 -131.005)" fill="#ed8203"/>
    <g id="Group_38964" data-name="Group 38964" transform="translate(3.476 3.056)">
      <path id="Path_106652" data-name="Path 106652" d="M250.365,136.8c.067.067.131.128.188.186s.113.108.168.157a1.707,1.707,0,0,0,.152.12,1.16,1.16,0,0,0,.248.108,1.737,1.737,0,0,0,.287.058l.736.084.139-.4a13.031,13.031,0,0,0-1.224-.766l.716-.2.142-.4a8.155,8.155,0,0,0-1.074-.089.627.627,0,0,0-.283-.009l-.406.111a8.718,8.718,0,0,0-1.178-.561,7.125,7.125,0,0,0-1.074-.33,4.407,4.407,0,0,0-.9-.108,3.657,3.657,0,0,0-.9.044s-.108.268-.142.4a.568.568,0,0,0,.1.431,2.242,2.242,0,0,0,.415.484c.181.166.373.332.572.493l-1.381.38a2.716,2.716,0,0,1-.307-.283c-.082-.089-.153-.168-.212-.241s-.122-.146-.179-.205a.941.941,0,0,0-.21-.164,1.159,1.159,0,0,0-.257-.117c-.088-.031-.957-.557-1.032-.566l-.141.4a2.691,2.691,0,0,0,.525.681,6.5,6.5,0,0,0,.891.747l-.612-.189-.139.4.572.343a1.115,1.115,0,0,0,.36.143.552.552,0,0,0,.28.007l.456-.124a9.306,9.306,0,0,0,1.193.557,6.738,6.738,0,0,0,1.1.32,4.053,4.053,0,0,0,.939.093,2.089,2.089,0,0,0,.727-.137.549.549,0,0,0,.276-.2.307.307,0,0,0,.053-.246.658.658,0,0,0-.128-.29,2.387,2.387,0,0,0-.258-.316c-.1-.106-.218-.217-.345-.324s-.254-.221-.387-.332l1.3-.358C250.22,136.666,250.3,136.735,250.365,136.8ZM248,137.831a1.781,1.781,0,0,1-1.4-.263l1.2-.331a1.339,1.339,0,0,1,.3.366C248.156,137.7,248.123,137.782,248,137.831Zm.106-1.507a1.406,1.406,0,0,1-.3-.376c-.049-.108-.014-.188.111-.241a.661.661,0,0,1,.2-.035,1.211,1.211,0,0,1,.278.028,3.535,3.535,0,0,1,.36.111c.135.055.287.124.456.21Z" transform="translate(-243.333 -134.757)" fill="#d67003"/>
    </g>
    <g id="Group_38965" data-name="Group 38965" transform="translate(3.617 2.662)">
      <path id="Path_106653" data-name="Path 106653" d="M250.552,136.273l.188.186c.058.059.114.108.165.158a1.1,1.1,0,0,0,.157.115.945.945,0,0,0,.243.108,1.48,1.48,0,0,0,.29.058l.734.088a2.526,2.526,0,0,0-.355-.526,4.312,4.312,0,0,0-.728-.64l.716-.2-.572-.345a1.149,1.149,0,0,0-.36-.144.613.613,0,0,0-.285-.008l-.407.11a8.572,8.572,0,0,0-1.176-.561,7.055,7.055,0,0,0-1.076-.329,4.286,4.286,0,0,0-.9-.106,1.708,1.708,0,0,0-.647.1c-.225.095-.355.205-.387.338a.565.565,0,0,0,.095.431,2.281,2.281,0,0,0,.415.487c.181.165.374.329.575.493l-1.383.38a2.659,2.659,0,0,1-.307-.283c-.082-.089-.152-.168-.215-.243s-.121-.143-.179-.2a.975.975,0,0,0-.208-.166,1.5,1.5,0,0,0-.252-.117,1.3,1.3,0,0,0-.256-.058l-.922-.108a2.714,2.714,0,0,0,.524.678,6.889,6.889,0,0,0,.893.749l-.753.208.572.344a1.179,1.179,0,0,0,.362.144.583.583,0,0,0,.283.008l.453-.124a9.2,9.2,0,0,0,1.193.555,7.06,7.06,0,0,0,1.1.323,4.194,4.194,0,0,0,.943.09,2.055,2.055,0,0,0,.727-.137.589.589,0,0,0,.277-.194.338.338,0,0,0,.051-.248.7.7,0,0,0-.126-.287,2.254,2.254,0,0,0-.263-.315c-.1-.108-.217-.219-.343-.327s-.256-.221-.387-.329l1.3-.359C250.407,136.143,250.482,136.211,250.552,136.273Zm-2.366,1.032a1.8,1.8,0,0,1-1.405-.261l1.207-.334a1.507,1.507,0,0,1,.3.365C248.343,137.179,248.309,137.256,248.186,137.3Zm.1-1.507a1.41,1.41,0,0,1-.3-.376c-.051-.106-.013-.188.111-.239a.547.547,0,0,1,.2-.039,1.4,1.4,0,0,1,.277.033,2.565,2.565,0,0,1,.362.11,4.12,4.12,0,0,1,.455.208Z" transform="translate(-243.519 -134.238)" fill="#fcd517"/>
    </g>
    <g id="Group_38966" data-name="Group 38966" transform="translate(3.617 2.662)">
      <path id="Path_106654" data-name="Path 106654" d="M244.754,137.271a1.179,1.179,0,0,0,.362.144.583.583,0,0,0,.283.008l.453-.124a9.2,9.2,0,0,0,1.193.555,7.06,7.06,0,0,0,1.1.323,4.194,4.194,0,0,0,.943.09c.024,0,.045,0,.071-.007a8.25,8.25,0,0,1-1.5-3.99,3.75,3.75,0,0,0-.464-.033,1.708,1.708,0,0,0-.647.1c-.225.095-.355.205-.387.338a.565.565,0,0,0,.095.431,2.281,2.281,0,0,0,.415.487c.181.165.374.329.575.493l-1.383.38a2.659,2.659,0,0,1-.307-.283c-.082-.089-.152-.168-.215-.243s-.121-.143-.179-.2a.975.975,0,0,0-.208-.166,1.5,1.5,0,0,0-.252-.117,1.3,1.3,0,0,0-.256-.058l-.922-.108a2.714,2.714,0,0,0,.524.678,6.889,6.889,0,0,0,.893.749l-.753.208Zm3.233-.561a1.507,1.507,0,0,1,.3.365c.051.1.017.181-.106.23a1.8,1.8,0,0,1-1.405-.261Z" transform="translate(-243.519 -134.238)" fill="url(#linear-gradient-3)"/>
    </g>
    <g id="Group_38967" data-name="Group 38967" transform="translate(3.617 2.662)">
      <path id="Path_106655" data-name="Path 106655" d="M244.754,137.608a1.179,1.179,0,0,0,.362.144.583.583,0,0,0,.283.008l.453-.124a9.2,9.2,0,0,0,1.193.555,7.059,7.059,0,0,0,1.1.323,4.194,4.194,0,0,0,.943.09,2.055,2.055,0,0,0,.727-.137.589.589,0,0,0,.277-.194.338.338,0,0,0,.051-.248.7.7,0,0,0-.126-.287,2.562,2.562,0,0,0-.217-.261,2.378,2.378,0,0,1-1.489.053.174.174,0,0,1-.121.111,1.8,1.8,0,0,1-1.405-.261l.429-.119a10.875,10.875,0,0,1-1.3-.471l-.055.015c-.035-.029-.066-.055-.1-.084a15.076,15.076,0,0,1-1.9-1.056l-.336-.038a2.714,2.714,0,0,0,.524.678,6.886,6.886,0,0,0,.893.749l-.753.208Z" transform="translate(-243.519 -134.574)" fill="#ffee52"/>
      <path id="Path_106656" data-name="Path 106656" d="M252.445,135.276a1.149,1.149,0,0,0-.36-.144.613.613,0,0,0-.285-.008l-.407.11a8.572,8.572,0,0,0-1.176-.561,7.055,7.055,0,0,0-1.076-.329,4.286,4.286,0,0,0-.9-.106,2,2,0,0,0-.365.029,5.735,5.735,0,0,1,2.283.63,6.485,6.485,0,0,1,2.6,2.015l.625.075a2.526,2.526,0,0,0-.355-.526,4.312,4.312,0,0,0-.728-.64l.716-.2Z" transform="translate(-244.575 -134.238)" fill="#ffee52"/>
    </g>
    <g id="Group_38968" data-name="Group 38968" transform="translate(3.617 2.662)">
      <path id="Path_106657" data-name="Path 106657" d="M247.653,134.271a3.75,3.75,0,0,0-.464-.033,1.708,1.708,0,0,0-.647.1c-.225.095-.355.205-.387.338a.565.565,0,0,0,.095.431,2.281,2.281,0,0,0,.415.487c.181.165.374.329.575.493l-1.383.38a2.659,2.659,0,0,1-.307-.283c-.082-.089-.152-.168-.215-.243s-.121-.143-.179-.2a.975.975,0,0,0-.208-.166,1.5,1.5,0,0,0-.252-.117,1.3,1.3,0,0,0-.256-.058l-.922-.108a2.714,2.714,0,0,0,.524.678,6.889,6.889,0,0,0,.893.749l-.753.208.205.124c.077-.014.5-.139.831-.234.1-.029-1.41-1.286-1.315-1.313a2.254,2.254,0,0,1,.884.155c.166.1.986,1,1.032.988.3-.055.959-.285,1.652-.473-.183-.375-1.215-.806-1.118-1.411C246.4,134.47,247.032,134.313,247.653,134.271Z" transform="translate(-243.519 -134.238)" fill="#fff8b8"/>
    </g>
    <path id="Path_106658" data-name="Path 106658" d="M239.759,133.613s1.292-2.939,6.01-2.634a15.1,15.1,0,0,1,5.413,1.554,11.4,11.4,0,0,0-2.366-1.154C244.752,129.948,240.7,130.948,239.759,133.613Z" transform="translate(-238.992 -130.726)" fill="#f9af19"/>
  </g>
  <g id="Group_38996" data-name="Group 38996" transform="translate(7.74)">
    <path id="Path_106739" data-name="Path 106739" d="M229.378,141.014a9.38,9.38,0,0,1-4.982,3.756c-6.64,1.5-8.929-2.1-8.929-2.1.029.206.471,1.432.534,1.631.879,2.687,4.91,3.781,9,2.444s6.7-4.6,5.825-7.287c-.064-.188-.444-1.463-.535-1.635A7.932,7.932,0,0,1,229.378,141.014Z" transform="translate(-215.298 -134.81)" fill="#ed8203"/>
    <g id="Group_38988" data-name="Group 38988" transform="translate(0.993 3.612)">
      <path id="Path_106740" data-name="Path 106740" d="M216.554,145.333c.161.521.263,1.06.442,1.58.073.219.142.44.215.661a4.422,4.422,0,0,0,.771.6c-.037-.128-.075-.258-.119-.384a18.481,18.481,0,0,1-.663-1.982A6.828,6.828,0,0,1,216.554,145.333Z" transform="translate(-216.554 -140.24)" fill="#c66802"/>
      <path id="Path_106741" data-name="Path 106741" d="M225.665,149.43c.268-.046.533-.1.8-.165-.247-.676-.594-1.328-.782-2.02-.221.038-.428.055-.636.077C225.264,148.025,225.462,148.728,225.665,149.43Z" transform="translate(-218.61 -140.702)" fill="#c66802"/>
      <path id="Path_106742" data-name="Path 106742" d="M220.6,148.748c.058.192.106.391.153.59.223.051.453.093.687.126-.263-.753-.521-1.507-.766-2.269-.208-.038-.407-.082-.6-.133Q220.348,147.9,220.6,148.748Z" transform="translate(-217.406 -140.658)" fill="#c66802"/>
      <path id="Path_106743" data-name="Path 106743" d="M219.025,148.356c.044.15.086.3.124.459.152.062.307.124.473.177-.208-.769-.384-1.552-.637-2.287-.225-.08-.435-.168-.631-.258C218.512,147.1,218.826,147.706,219.025,148.356Z" transform="translate(-216.989 -140.509)" fill="#c66802"/>
      <path id="Path_106744" data-name="Path 106744" d="M222.459,149.6c.177.011.355.017.537.02a11.871,11.871,0,0,1-.676-2.2c-.214-.011-.421-.031-.621-.053C221.945,148.109,222.2,148.856,222.459,149.6Z" transform="translate(-217.799 -140.731)" fill="#c66802"/>
      <path id="Path_106745" data-name="Path 106745" d="M223.98,149.615c.228-.011.456-.029.685-.055-.205-.716-.406-1.43-.628-2.137-.258.017-.51.022-.756.024A11.674,11.674,0,0,0,223.98,149.615Z" transform="translate(-218.182 -140.745)" fill="#c66802"/>
      <path id="Path_106746" data-name="Path 106746" d="M226.62,147.051a18.423,18.423,0,0,0,.756,1.968c.108-.033.219-.061.329-.095.135-.046.265-.1.4-.148-.2-.65-.374-1.308-.63-1.943-.126.04-.254.089-.377.117C226.934,146.989,226.777,147.02,226.62,147.051Z" transform="translate(-218.99 -140.603)" fill="#c66802"/>
      <path id="Path_106747" data-name="Path 106747" d="M231.325,144.605c.232.678.473,1.35.716,2.021q.291-.222.556-.456c-.033-.11-.068-.221-.108-.331-.208-.572-.409-1.149-.6-1.726C231.705,144.282,231.518,144.448,231.325,144.605Z" transform="translate(-220.129 -139.944)" fill="#c66802"/>
      <path id="Path_106748" data-name="Path 106748" d="M232.654,143.346c.228.669.475,1.332.7,2,.008.027.017.053.024.08.161-.161.309-.331.453-.5-.061-.21-.121-.424-.188-.64-.157-.5-.353-.984-.525-1.474C232.975,142.988,232.82,143.169,232.654,143.346Z" transform="translate(-220.451 -139.629)" fill="#c66802"/>
      <path id="Path_106749" data-name="Path 106749" d="M233.819,141.79l0,.009c.17.548.4,1.078.577,1.628.052.171.1.338.146.511a6.211,6.211,0,0,0,.4-.69c-.135-.44-.268-.882-.429-1.313-.113-.3-.218-.6-.309-.906A5.148,5.148,0,0,1,233.819,141.79Z" transform="translate(-220.732 -139.198)" fill="#c66802"/>
      <path id="Path_106750" data-name="Path 106750" d="M235.393,141.473c.042.11.075.218.111.329a4.015,4.015,0,0,0,.155-1.007c-.272-.721-.543-1.45-.76-2.181-.029.2-.07.444-.13.709A9.743,9.743,0,0,0,235.393,141.473Z" transform="translate(-220.963 -138.613)" fill="#c66802"/>
      <path id="Path_106751" data-name="Path 106751" d="M230.657,147.58c.192-.108.377-.224.556-.34-.24-.661-.473-1.323-.7-1.989-.192.142-.389.279-.587.4C230.155,146.3,230.413,146.939,230.657,147.58Z" transform="translate(-219.79 -140.22)" fill="#c66802"/>
      <path id="Path_106752" data-name="Path 106752" d="M229.069,148.414q.372-.157.722-.337c-.239-.634-.493-1.266-.725-1.9-.205.113-.411.212-.616.3C228.707,147.108,228.875,147.766,229.069,148.414Z" transform="translate(-219.434 -140.443)" fill="#c66802"/>
    </g>
    <path id="Path_106753" data-name="Path 106753" d="M217.7,146.137c.32.809.672,1.6.908,2.433a9.313,9.313,0,0,0,6.911.193c-.163-.67-.334-1.337-.532-1.993a.332.332,0,0,0-.051.014C221.378,147.585,219.072,146.924,217.7,146.137Z" transform="translate(-215.838 -136.823)" fill="#ffee52" opacity="0.25"/>
    <path id="Path_106754" data-name="Path 106754" d="M219.892,147.038c.217.743.4,1.5.6,2.247a9.52,9.52,0,0,0,3.745.121c-.17-.711-.384-1.411-.616-2.108A10.107,10.107,0,0,1,219.892,147.038Z" transform="translate(-216.369 -137.041)" fill="#ffee52" opacity="0.28"/>
    <g id="Group_38989" data-name="Group 38989" transform="translate(3.523 9.997)">
      <path id="Path_106755" data-name="Path 106755" d="M221.548,149.492c.263.038.534.064.813.077q-.375-1.1-.743-2.2c-.278-.029-.546-.067-.8-.111C221.1,147.988,221.318,148.743,221.548,149.492Z" transform="translate(-220.116 -147.09)" fill="#ffee52" opacity="0.35"/>
      <path id="Path_106756" data-name="Path 106756" d="M220.493,149.285c.066.015.137.024.205.039-.236-.769-.473-1.537-.784-2.28l-.022-.007C220.109,147.781,220.3,148.536,220.493,149.285Z" transform="translate(-219.892 -147.038)" fill="#ffee52" opacity="0.35"/>
      <path id="Path_106757" data-name="Path 106757" d="M223.419,149.623c.113,0,.23-.009.347-.014-.263-.711-.5-1.43-.734-2.152-.112,0-.232,0-.343,0C222.931,148.18,223.174,148.9,223.419,149.623Z" transform="translate(-220.569 -147.139)" fill="#ffee52" opacity="0.35"/>
      <path id="Path_106758" data-name="Path 106758" d="M225.262,149.5c.038,0,.07,0,.1-.009-.17-.711-.384-1.411-.616-2.108-.064.009-.13.011-.2.016C224.789,148.1,225.026,148.8,225.262,149.5Z" transform="translate(-221.02 -147.121)" fill="#ffee52" opacity="0.35"/>
    </g>
    <path id="Path_106759" data-name="Path 106759" d="M230.264,144.338c.239.654.462,1.317.674,1.982a7.856,7.856,0,0,0,3.277-3.5c-.258-.774-.5-1.552-.737-2.318a5.291,5.291,0,0,1-.518,1.162A9.664,9.664,0,0,1,230.264,144.338Z" transform="translate(-218.879 -135.458)" fill="#7a4103" opacity="0.32"/>
    <path id="Path_106760" data-name="Path 106760" d="M231.687,143.819c.221.692.435,1.381.656,2.071a8.038,8.038,0,0,0,1.609-1.673,23.44,23.44,0,0,1-.562-2.4c-.031.053-.053.108-.086.164A8.619,8.619,0,0,1,231.687,143.819Z" transform="translate(-219.224 -135.777)" fill="#7a4103" opacity="0.32"/>
    <path id="Path_106761" data-name="Path 106761" d="M233.19,141.014a9.2,9.2,0,0,1-1.973,2.141c.226.669.49,1.328.729,2,2.177-1.593,3.319-3.79,2.7-5.7-.064-.188-.444-1.463-.535-1.635A7.932,7.932,0,0,1,233.19,141.014Z" transform="translate(-219.11 -134.81)" fill="#7a4103" opacity="0.32"/>
    <path id="Path_106762" data-name="Path 106762" d="M221.237,134.42c-4.092,1.337-6.7,4.6-5.824,7.287s4.909,3.778,9,2.44,6.7-4.6,5.824-7.287S225.332,133.081,221.237,134.42Z" transform="translate(-215.244 -133.848)" fill="#fcd517"/>
    <path id="Path_106763" data-name="Path 106763" d="M225.256,134.029a38.264,38.264,0,0,1,5.212,3.8,21.262,21.262,0,0,1,1.922,1.946,3.905,3.905,0,0,0,.274-2.91C231.9,134.528,228.755,133.406,225.256,134.029Z" transform="translate(-217.667 -133.851)" fill="#ffbc00"/>
    <path id="Path_106764" data-name="Path 106764" d="M221.921,134.916a36.46,36.46,0,0,1,4.044,1.5c-.891-.656-1.793-1.308-2.672-1.982-.146.04-.294.077-.44.126C222.533,134.666,222.221,134.788,221.921,134.916Z" transform="translate(-216.86 -133.99)" fill="#ffbc00"/>
    <path id="Path_106765" data-name="Path 106765" d="M218.581,136.267c-2.484,1.608-3.834,3.982-3.168,6.025.879,2.685,4.909,3.778,9,2.44a10.551,10.551,0,0,0,4.216-2.517c-.232-.035-.471-.068-.7-.11a14.72,14.72,0,0,1-6.647-2.829A9.942,9.942,0,0,1,218.581,136.267Z" transform="translate(-215.244 -134.434)" fill="#fff7ab" opacity="0.54"/>
    <path id="Path_106766" data-name="Path 106766" d="M215.67,140.43a3.891,3.891,0,0,0-.256,2.87c.879,2.685,4.909,3.778,9,2.44a10.106,10.106,0,0,0,.97-.369,20.5,20.5,0,0,1-4.664-1.151C219.18,143.623,216.706,142.2,215.67,140.43Z" transform="translate(-215.244 -135.441)" fill="#fff7ab" opacity="0.54"/>
    <path id="Path_106767" data-name="Path 106767" d="M219.3,136.267a9.58,9.58,0,0,0-1.076.819c1.169,3.056,4.289,4.616,7.523,5.181a27.58,27.58,0,0,0,3.2.321c.139-.124.274-.247.4-.374-.232-.035-.471-.068-.7-.11a14.72,14.72,0,0,1-6.647-2.829A9.942,9.942,0,0,1,219.3,136.267Z" transform="translate(-215.966 -134.434)" fill="#fff7ab" opacity="0.54"/>
    <g id="Group_38990" data-name="Group 38990" transform="translate(0.425 5.048)">
      <path id="Path_106768" data-name="Path 106768" d="M215.8,143.9c1.235,2.256,4.96,3.1,8.748,1.863,3.093-1.01,5.338-3.122,5.869-5.25a8.489,8.489,0,0,1-5.71,4.751C218.808,146.905,216.428,144.6,215.8,143.9Z" transform="translate(-215.805 -140.508)" fill="#ffffd7"/>
    </g>
    <path id="Path_106769" data-name="Path 106769" d="M221.935,135.52c-3.273,1.067-5.432,3.422-4.833,5.261s3.737,2.459,7,1.392,5.432-3.422,4.83-5.259S225.2,134.451,221.935,135.52Z" transform="translate(-215.669 -134.126)" fill="url(#linear-gradient-4)"/>
    <path id="Path_106770" data-name="Path 106770" d="M219.442,137.261c-1.785,1.182-2.768,2.757-2.34,4.068.6,1.836,3.737,2.459,7,1.392a10.429,10.429,0,0,0,2.132-.963c-.194-.055-.391-.1-.581-.165A12.939,12.939,0,0,1,219.442,137.261Z" transform="translate(-215.669 -134.674)" fill="url(#linear-gradient-5)"/>
    <path id="Path_106771" data-name="Path 106771" d="M222.131,136.134c3.085-1.007,6.052-.506,6.878,1.1a1.827,1.827,0,0,0-.073-.318c-.6-1.84-3.739-2.463-7-1.394s-5.432,3.422-4.833,5.261a1.9,1.9,0,0,0,.128.3C216.952,139.3,219.049,137.141,222.131,136.134Z" transform="translate(-215.669 -134.126)" fill="#ed8203"/>
    <g id="Group_38991" data-name="Group 38991" transform="translate(2.935 1.899)">
      <path id="Path_106772" data-name="Path 106772" d="M225.424,138.135c.1.009.183.022.265.031s.157.017.225.022a.928.928,0,0,0,.195,0,1.083,1.083,0,0,0,.261-.062,1.66,1.66,0,0,0,.265-.133l.631-.38-.133-.4a13.888,13.888,0,0,0-1.436.139l.448-.594-.132-.4a8.611,8.611,0,0,0-.907.584.628.628,0,0,0-.23.166l-.252.336a8.7,8.7,0,0,0-1.279.271,6.822,6.822,0,0,0-1.05.393,4.288,4.288,0,0,0-.78.462,3.791,3.791,0,0,0-.683.579,4.135,4.135,0,0,0,.133.4.588.588,0,0,0,.338.285,2.22,2.22,0,0,0,.625.128c.243.022.495.037.753.044l-.866,1.145a2.447,2.447,0,0,1-.415-.039c-.115-.02-.224-.04-.316-.06s-.181-.042-.265-.055a1.117,1.117,0,0,0-.268,0,1.505,1.505,0,0,0-.271.064c-.093.033-1.1.141-1.167.181l.13.4a2.744,2.744,0,0,0,.831.221,6.813,6.813,0,0,0,1.167.051l-.6.221.133.4.662-.075a1.091,1.091,0,0,0,.371-.106.6.6,0,0,0,.232-.164l.283-.377a9.113,9.113,0,0,0,1.286-.285,7.1,7.1,0,0,0,1.065-.411,4.282,4.282,0,0,0,.8-.5,2.047,2.047,0,0,0,.493-.548.613.613,0,0,0,.1-.325.341.341,0,0,0-.112-.227.74.74,0,0,0-.277-.15,2.539,2.539,0,0,0-.4-.093c-.149-.022-.308-.037-.473-.051s-.336-.017-.506-.024l.813-1.076C225.23,138.118,225.332,138.124,225.424,138.135Zm-2.605.623a.617.617,0,0,1,.139-.152,1.2,1.2,0,0,1,.239-.144,2.555,2.555,0,0,1,.353-.133c.139-.039.3-.081.486-.114l-.694.919a1.364,1.364,0,0,1-.466-.117C222.773,138.961,222.753,138.875,222.819,138.758Zm1.357,1.635a1.782,1.782,0,0,1-1.273.645l.753-.994a1.281,1.281,0,0,1,.464.1Q224.277,140.218,224.176,140.393Z" transform="translate(-219.116 -136.354)" fill="#d67003"/>
    </g>
    <g id="Group_38992" data-name="Group 38992" transform="translate(2.935 1.899)">
      <path id="Path_106773" data-name="Path 106773" d="M225.294,137.73c.093.014.183.023.261.033s.157.015.23.022a.906.906,0,0,0,.193,0,1.078,1.078,0,0,0,.263-.064,1.715,1.715,0,0,0,.263-.13l.631-.38a2.489,2.489,0,0,0-.6-.2,4.307,4.307,0,0,0-.969-.068l.449-.593-.663.075a1.2,1.2,0,0,0-.374.106.585.585,0,0,0-.23.166l-.256.336a8.941,8.941,0,0,0-1.275.27,7.287,7.287,0,0,0-1.052.393,4.181,4.181,0,0,0-.778.464,1.706,1.706,0,0,0-.452.477.471.471,0,0,0,.238.789,2.194,2.194,0,0,0,.624.128c.247.022.5.038.757.045l-.866,1.142a3.115,3.115,0,0,1-.418-.036c-.115-.022-.221-.042-.316-.064s-.181-.039-.265-.052a.935.935,0,0,0-.265,0,1.231,1.231,0,0,0-.271.064,1.476,1.476,0,0,0-.241.106l-.8.478a2.748,2.748,0,0,0,.831.221,6.946,6.946,0,0,0,1.164.049l-.471.624.662-.076a1.119,1.119,0,0,0,.374-.106.59.59,0,0,0,.23-.165l.283-.374a9,9,0,0,0,1.286-.287,7.4,7.4,0,0,0,1.067-.411,4,4,0,0,0,.8-.5,2.027,2.027,0,0,0,.495-.55.62.62,0,0,0,.1-.322.322.322,0,0,0-.11-.227.673.673,0,0,0-.277-.151,2.6,2.6,0,0,0-.4-.092c-.149-.022-.308-.038-.473-.051s-.338-.02-.509-.027l.813-1.074C225.1,137.713,225.2,137.722,225.294,137.73Zm-2.605.628a.577.577,0,0,1,.137-.155,1.293,1.293,0,0,1,.239-.146,3.11,3.11,0,0,1,.353-.133,4.929,4.929,0,0,1,.488-.113l-.7.917a1.307,1.307,0,0,1-.466-.117C222.638,138.557,222.621,138.473,222.689,138.358Zm1.354,1.631a1.782,1.782,0,0,1-1.27.65l.753-1a1.359,1.359,0,0,1,.464.1C224.094,139.792,224.112,139.874,224.043,139.989Z" transform="translate(-219.116 -136.354)" fill="#fcd517"/>
    </g>
    <g id="Group_38993" data-name="Group 38993" transform="translate(2.935 3.453)">
      <path id="Path_106774" data-name="Path 106774" d="M221.3,142.549a1.119,1.119,0,0,0,.374-.106.59.59,0,0,0,.23-.165l.283-.374a9,9,0,0,0,1.286-.287,7.4,7.4,0,0,0,1.067-.411,4,4,0,0,0,.8-.5.44.44,0,0,0,.055-.051,8.228,8.228,0,0,1-3.624-2.247,3.6,3.6,0,0,0-.387.256,1.706,1.706,0,0,0-.452.477.471.471,0,0,0,.238.789,2.194,2.194,0,0,0,.624.128c.247.022.5.038.757.045l-.866,1.142a3.115,3.115,0,0,1-.418-.036c-.115-.022-.221-.042-.316-.064s-.181-.039-.265-.052a.935.935,0,0,0-.265,0,1.231,1.231,0,0,0-.271.064,1.476,1.476,0,0,0-.241.106l-.8.478a2.748,2.748,0,0,0,.831.221,6.946,6.946,0,0,0,1.164.049l-.471.624Zm2.223-2.413a1.359,1.359,0,0,1,.464.1c.1.049.122.13.053.246a1.782,1.782,0,0,1-1.27.65Z" transform="translate(-219.116 -138.404)" fill="url(#linear-gradient-6)"/>
    </g>
    <g id="Group_38994" data-name="Group 38994" transform="translate(2.935 1.899)">
      <path id="Path_106775" data-name="Path 106775" d="M221.3,142.859a1.119,1.119,0,0,0,.374-.106.59.59,0,0,0,.23-.165l.283-.374a9,9,0,0,0,1.286-.287,7.4,7.4,0,0,0,1.067-.411,4,4,0,0,0,.8-.5,2.027,2.027,0,0,0,.495-.55.62.62,0,0,0,.1-.322.322.322,0,0,0-.11-.227.673.673,0,0,0-.277-.151,2.307,2.307,0,0,0-.327-.075,2.425,2.425,0,0,1-1.151.95.174.174,0,0,1-.031.159,1.782,1.782,0,0,1-1.27.65l.268-.356a10.52,10.52,0,0,1-1.32.418l-.033.045c-.046,0-.084,0-.127-.007a15.489,15.489,0,0,1-2.156.324l-.29.173a2.748,2.748,0,0,0,.831.221,6.944,6.944,0,0,0,1.164.049l-.471.624Z" transform="translate(-219.116 -137.16)" fill="#ffee52"/>
      <path id="Path_106776" data-name="Path 106776" d="M225.99,136.429a1.2,1.2,0,0,0-.374.106.585.585,0,0,0-.23.166l-.256.336a8.941,8.941,0,0,0-1.275.27,7.287,7.287,0,0,0-1.052.393,4.181,4.181,0,0,0-.778.464,1.993,1.993,0,0,0-.271.245,5.69,5.69,0,0,1,2.191-.89,6.463,6.463,0,0,1,3.288.017l.539-.325a2.489,2.489,0,0,0-.6-.2,4.307,4.307,0,0,0-.969-.068l.449-.593Z" transform="translate(-219.755 -136.354)" fill="#ffee52"/>
    </g>
    <g id="Group_38995" data-name="Group 38995" transform="translate(2.935 3.453)">
      <path id="Path_106777" data-name="Path 106777" d="M221.768,141.406c.208-.227.585-.811,1.02-1.383-.373-.187-1.451.1-1.743-.437-.143-.263.263-.773.729-1.182a3.6,3.6,0,0,0-.387.256,1.706,1.706,0,0,0-.452.477.471.471,0,0,0,.238.789,2.194,2.194,0,0,0,.624.128c.247.022.5.038.757.045l-.866,1.142a3.115,3.115,0,0,1-.418-.036c-.115-.022-.221-.042-.316-.064s-.181-.039-.265-.052a.935.935,0,0,0-.265,0,1.231,1.231,0,0,0-.271.064,1.476,1.476,0,0,0-.241.106l-.8.478a2.748,2.748,0,0,0,.831.221,6.946,6.946,0,0,0,1.164.049l-.471.624.236-.027c.053-.055.314-.413.517-.691.062-.086-1.9-.161-1.843-.241a2.347,2.347,0,0,1,.8-.415C220.539,141.227,221.737,141.44,221.768,141.406Z" transform="translate(-219.116 -138.404)" fill="#fff8b8"/>
    </g>
    <path id="Path_106778" data-name="Path 106778" d="M218.577,135.972a15.149,15.149,0,0,1,5.244-2.064,11.348,11.348,0,0,0-2.583.526c-4.092,1.337-6.7,4.6-5.824,7.287C215.413,141.721,214.653,138.6,218.577,135.972Z" transform="translate(-215.244 -133.863)" fill="#f9af19"/>
  </g>
  <g id="Group_39079" data-name="Group 39079" transform="translate(0 10.272)">
    <path id="Path_107102" data-name="Path 107102" d="M283.782,169.9a9.385,9.385,0,0,1-5.9,2.025c-6.777-.641-7.83-4.771-7.83-4.771-.038.2,0,1.5,0,1.714,0,2.828,3.489,5.119,7.8,5.119s7.8-2.291,7.8-5.119c0-.195.033-1.527,0-1.714A7.928,7.928,0,0,1,283.782,169.9Z" transform="translate(-270.031 -162.035)" fill="#ed8203"/>
    <g id="Group_39071" data-name="Group 39071" transform="translate(0.461 5.663)">
      <path id="Path_107103" data-name="Path 107103" d="M270.712,168.549c-.011.546-.077,1.089-.07,1.639,0,.23,0,.462,0,.7a4.485,4.485,0,0,0,.548.8c0-.133.008-.268.007-.4a18.753,18.753,0,0,1-.014-2.1A5.586,5.586,0,0,1,270.712,168.549Z" transform="translate(-270.639 -168.037)" fill="#c66802"/>
      <path id="Path_107104" data-name="Path 107104" d="M278.1,175.3c.265.042.534.074.813.1-.025-.721-.155-1.448-.12-2.163-.221-.038-.42-.084-.628-.126C278.149,173.836,278.12,174.567,278.1,175.3Z" transform="translate(-272.444 -169.139)" fill="#c66802"/>
      <path id="Path_107105" data-name="Path 107105" d="M273.494,173.05c0,.2-.02.4-.039.609.2.117.4.23.616.332-.017-.8-.029-1.593-.022-2.394-.188-.1-.36-.205-.528-.311C273.523,171.874,273.513,172.462,273.494,173.05Z" transform="translate(-271.321 -168.699)" fill="#c66802"/>
      <path id="Path_107106" data-name="Path 107106" d="M272.508,172.98c.042-.793.117-1.593.108-2.371-.192-.146-.362-.3-.521-.442-.053.672.06,1.342.045,2.024,0,.155-.014.314-.024.471C272.241,172.772,272.369,172.878,272.508,172.98Z" transform="translate(-270.988 -168.428)" fill="#c66802"/>
      <path id="Path_107107" data-name="Path 107107" d="M275,172.077c0,.788.009,1.573.024,2.362.166.064.333.128.509.186a11.592,11.592,0,0,1,.039-2.3C275.366,172.242,275.18,172.16,275,172.077Z" transform="translate(-271.694 -168.891)" fill="#c66802"/>
      <path id="Path_107108" data-name="Path 107108" d="M276.443,174.937c.219.058.44.111.67.157.024-.741.057-1.485.066-2.225-.256-.064-.495-.136-.727-.211A11.571,11.571,0,0,0,276.443,174.937Z" transform="translate(-272.031 -169.031)" fill="#c66802"/>
      <path id="Path_107109" data-name="Path 107109" d="M279.746,173.374a19.2,19.2,0,0,0,.1,2.108c.114,0,.23.011.345.011.143,0,.283-.008.421-.015.016-.681.053-1.361.009-2.042-.137,0-.272,0-.4-.006C280.062,173.413,279.9,173.4,279.746,173.374Z" transform="translate(-272.841 -169.204)" fill="#c66802"/>
      <path id="Path_107110" data-name="Path 107110" d="M285.005,174.643q.345-.116.67-.256c0-.117,0-.23,0-.347-.018-.609-.029-1.22-.038-1.829-.224.1-.451.2-.685.293C284.963,173.218,284.983,173.932,285.005,174.643Z" transform="translate(-274.103 -168.923)" fill="#c66802"/>
      <path id="Path_107111" data-name="Path 107111" d="M287.232,173.578q.014-.329.017-.669c.009-.519-.029-1.045-.037-1.567-.193.128-.4.249-.61.367.009.707.04,1.414.046,2.121,0,.027,0,.055,0,.082C286.85,173.808,287.044,173.695,287.232,173.578Z" transform="translate(-274.503 -168.713)" fill="#c66802"/>
      <path id="Path_107112" data-name="Path 107112" d="M288.776,172.318c.007-.462.02-.924,0-1.381-.013-.323-.02-.643-.013-.959a4.679,4.679,0,0,1-.6.6l-.008,0c-.007.579.051,1.154.042,1.73,0,.177-.011.353-.02.53A5.645,5.645,0,0,0,288.776,172.318Z" transform="translate(-274.88 -168.382)" fill="#c66802"/>
      <path id="Path_107113" data-name="Path 107113" d="M289.741,170.746c0,.117,0,.232,0,.346a3.928,3.928,0,0,0,.458-.908c-.033-.771-.067-1.549-.044-2.311-.091.186-.206.4-.343.634A9.6,9.6,0,0,0,289.741,170.746Z" transform="translate(-275.255 -167.873)" fill="#c66802"/>
      <path id="Path_107114" data-name="Path 107114" d="M283.4,175.129c.219-.047.427-.1.634-.155-.022-.7-.037-1.4-.051-2.109-.225.074-.456.144-.685.2C283.319,173.754,283.368,174.442,283.4,175.129Z" transform="translate(-273.703 -169.082)" fill="#c66802"/>
      <path id="Path_107115" data-name="Path 107115" d="M282.431,175.333c-.029-.678-.077-1.354-.1-2.035-.23.042-.456.077-.676.1.044.676,0,1.354-.017,2.033C281.909,175.406,282.17,175.37,282.431,175.333Z" transform="translate(-273.301 -169.186)" fill="#c66802"/>
    </g>
    <path id="Path_107116" data-name="Path 107116" d="M278.191,174.594c.053-.687.1-1.372.113-2.059-.02,0-.035,0-.053,0-3.63-.343-5.616-1.686-6.679-2.862.055.866.143,1.733.112,2.594A9.3,9.3,0,0,0,278.191,174.594Z" transform="translate(-270.404 -162.645)" fill="#ffee52" opacity="0.25"/>
    <path id="Path_107117" data-name="Path 107117" d="M276.734,174.811c.057-.733.073-1.462.07-2.2a10.062,10.062,0,0,1-3.469-1.408c-.024.775-.08,1.548-.126,2.322A9.552,9.552,0,0,0,276.734,174.811Z" transform="translate(-270.8 -163.017)" fill="#ffee52" opacity="0.28"/>
    <g id="Group_39072" data-name="Group 39072" transform="translate(2.41 8.191)">
      <path id="Path_107118" data-name="Path 107118" d="M274.934,174.38q-.01-1.163-.016-2.326c-.256-.113-.5-.232-.727-.354.04.784.011,1.571,0,2.358C274.428,174.172,274.678,174.281,274.934,174.38Z" transform="translate(-273.447 -171.327)" fill="#ffee52" opacity="0.35"/>
      <path id="Path_107119" data-name="Path 107119" d="M273.21,173.53c.055.035.124.066.181.1a23.635,23.635,0,0,0-.033-2.409c-.006-.007-.017-.008-.022-.015C273.312,171.983,273.256,172.757,273.21,173.53Z" transform="translate(-273.21 -171.208)" fill="#ffee52" opacity="0.35"/>
      <path id="Path_107120" data-name="Path 107120" d="M275.927,174.76c.108.036.221.064.333.093-.027-.753-.031-1.514-.027-2.274-.108-.036-.221-.068-.325-.106C275.916,173.236,275.92,174,275.927,174.76Z" transform="translate(-273.863 -171.514)" fill="#ffee52" opacity="0.35"/>
      <path id="Path_107121" data-name="Path 107121" d="M277.82,175.245c.057-.733.073-1.462.07-2.2-.068-.014-.13-.031-.2-.049.007.74.016,1.483.025,2.222C277.753,175.228,277.784,175.239,277.82,175.245Z" transform="translate(-274.295 -171.642)" fill="#ffee52" opacity="0.35"/>
    </g>
    <path id="Path_107122" data-name="Path 107122" d="M283.7,172.183c.022.7.029,1.4.022,2.092a7.849,7.849,0,0,0,4.2-2.311c0-.815.009-1.628.021-2.432a5.3,5.3,0,0,1-.853.943A9.775,9.775,0,0,1,283.7,172.183Z" transform="translate(-273.338 -162.611)" fill="#7a4103" opacity="0.32"/>
    <path id="Path_107123" data-name="Path 107123" d="M285.366,174.153a8.132,8.132,0,0,0,2.049-1.089,23.358,23.358,0,0,1,.209-2.457c-.042.04-.081.089-.13.128a8.518,8.518,0,0,1-2.109,1.245C285.38,172.7,285.371,173.431,285.366,174.153Z" transform="translate(-273.743 -162.871)" fill="#7a4103" opacity="0.32"/>
    <path id="Path_107124" data-name="Path 107124" d="M287.362,169.9a9.1,9.1,0,0,1-2.541,1.421c0,.709.055,1.416.068,2.128,2.568-.838,4.336-2.569,4.336-4.58,0-.195.033-1.527,0-1.714A7.928,7.928,0,0,1,287.362,169.9Z" transform="translate(-273.611 -162.035)" fill="#7a4103" opacity="0.32"/>
    <path id="Path_107125" data-name="Path 107125" d="M270.053,165.519c0,2.823,3.489,5.117,7.8,5.117s7.8-2.294,7.8-5.117-3.493-5.118-7.8-5.118S270.053,162.69,270.053,165.519Z" transform="translate(-270.036 -160.401)" fill="#fcd517"/>
    <path id="Path_107126" data-name="Path 107126" d="M286.278,165.79a21.171,21.171,0,0,1,1.222,2.448,3.922,3.922,0,0,0,1.164-2.68c0-2.457-2.643-4.5-6.16-4.993A38.1,38.1,0,0,1,286.278,165.79Z" transform="translate(-273.05 -160.441)" fill="#ffbc00"/>
    <path id="Path_107127" data-name="Path 107127" d="M279.026,160.446a36.435,36.435,0,0,1,3.376,2.686c-.643-.9-1.3-1.8-1.922-2.717-.152,0-.3-.014-.457-.014C279.684,160.4,279.353,160.419,279.026,160.446Z" transform="translate(-272.208 -160.401)" fill="#ffbc00"/>
    <path id="Path_107128" data-name="Path 107128" d="M276.569,164.592a9.876,9.876,0,0,1-1.636-3.7c-2.861.758-4.88,2.6-4.88,4.746,0,2.823,3.489,5.117,7.8,5.117a10.611,10.611,0,0,0,4.79-1.085c-.214-.106-.424-.212-.636-.325A14.662,14.662,0,0,1,276.569,164.592Z" transform="translate(-270.036 -160.52)" fill="#fff7ab" opacity="0.54"/>
    <path id="Path_107129" data-name="Path 107129" d="M271.184,163.655a3.882,3.882,0,0,0-1.131,2.651c0,2.823,3.489,5.117,7.8,5.117.353,0,.7-.022,1.036-.051a20.686,20.686,0,0,1-4.077-2.545C273.531,167.782,271.62,165.665,271.184,163.655Z" transform="translate(-270.036 -161.189)" fill="#fff7ab" opacity="0.54"/>
    <path id="Path_107130" data-name="Path 107130" d="M277.719,164.592a9.875,9.875,0,0,1-1.636-3.7,10.027,10.027,0,0,0-1.279.446c.163,3.266,2.642,5.72,5.544,7.26a26.671,26.671,0,0,0,2.945,1.3c.17-.075.336-.148.5-.23-.214-.106-.424-.212-.636-.325A14.661,14.661,0,0,1,277.719,164.592Z" transform="translate(-271.186 -160.52)" fill="#fff7ab" opacity="0.54"/>
    <g id="Group_39073" data-name="Group 39073" transform="translate(0.08 5.743)">
      <path id="Path_107131" data-name="Path 107131" d="M270.137,167.978c.471,2.528,3.75,4.492,7.734,4.492,3.256,0,6.04-1.31,7.21-3.168a8.505,8.505,0,0,1-6.9,2.74C272.053,171.774,270.508,168.838,270.137,167.978Z" transform="translate(-270.137 -167.978)" fill="#ffffd7"/>
    </g>
    <path id="Path_107132" data-name="Path 107132" d="M272.128,165.041c0,1.934,2.786,3.5,6.225,3.5s6.224-1.566,6.224-3.5-2.786-3.5-6.224-3.5S272.128,163.108,272.128,165.041Z" transform="translate(-270.538 -160.677)" fill="url(#linear-gradient-7)"/>
    <path id="Path_107133" data-name="Path 107133" d="M275.617,162.016c-2.063.57-3.489,1.761-3.489,3.14,0,1.934,2.786,3.5,6.225,3.5a10.528,10.528,0,0,0,2.326-.254c-.17-.113-.343-.217-.5-.338A12.914,12.914,0,0,1,275.617,162.016Z" transform="translate(-270.538 -160.792)" fill="url(#linear-gradient-8)"/>
    <path id="Path_107134" data-name="Path 107134" d="M272.128,165.041a1.807,1.807,0,0,0,.029.324c.287-1.78,2.952-3.18,6.2-3.18s5.906,1.4,6.2,3.18a1.952,1.952,0,0,0,.027-.324c0-1.934-2.786-3.5-6.224-3.5S272.128,163.108,272.128,165.041Z" transform="translate(-270.538 -160.677)" fill="#ed8203"/>
    <g id="Group_39074" data-name="Group 39074" transform="translate(2.98 2.453)">
      <path id="Path_107135" data-name="Path 107135" d="M280.92,165.146c.086.042.168.077.241.113s.143.066.208.092a.934.934,0,0,0,.183.06,1.05,1.05,0,0,0,.271.022,1.507,1.507,0,0,0,.29-.042l.722-.166V164.8a13.989,13.989,0,0,0-1.411-.316l.607-.424v-.424a8.161,8.161,0,0,0-1.038.274.579.579,0,0,0-.272.086l-.344.239a9.064,9.064,0,0,0-1.3-.139,6.97,6.97,0,0,0-1.12.049,4.369,4.369,0,0,0-.882.195,3.853,3.853,0,0,0-.832.34,3.737,3.737,0,0,0,0,.424.576.576,0,0,0,.234.375,2.179,2.179,0,0,0,.55.316c.228.1.464.19.7.278l-1.176.816a2.486,2.486,0,0,1-.384-.166c-.1-.055-.2-.105-.28-.156s-.164-.1-.239-.133a.931.931,0,0,0-.249-.086,1.258,1.258,0,0,0-.279-.024c-.1,0-1.089-.208-1.164-.193v.424a2.728,2.728,0,0,0,.72.468,7.032,7.032,0,0,0,1.092.409l-.641.022v.424l.654.133a1.1,1.1,0,0,0,.387.016.606.606,0,0,0,.27-.084l.387-.27a9.091,9.091,0,0,0,1.311.128,6.888,6.888,0,0,0,1.142-.061,4.3,4.3,0,0,0,.917-.228,2.1,2.1,0,0,0,.64-.369.609.609,0,0,0,.195-.278.315.315,0,0,0-.033-.247.725.725,0,0,0-.215-.232,2.981,2.981,0,0,0-.351-.211c-.135-.066-.279-.13-.434-.194s-.314-.124-.475-.181l1.107-.769C280.741,165.071,280.836,165.111,280.92,165.146Zm-1.887,1.759a1.8,1.8,0,0,1-1.411.221l1.025-.712a1.371,1.371,0,0,1,.411.239C279.139,166.735,279.132,166.819,279.033,166.905Zm-.4-1.454a1.378,1.378,0,0,1-.407-.257c-.08-.083-.073-.172.027-.263a.592.592,0,0,1,.177-.1,1.267,1.267,0,0,1,.271-.064,2.739,2.739,0,0,1,.38-.018c.143,0,.309.02.5.045Z" transform="translate(-273.962 -163.637)" fill="#d67003"/>
    </g>
    <g id="Group_39075" data-name="Group 39075" transform="translate(2.98 2.294)">
      <path id="Path_107136" data-name="Path 107136" d="M280.92,164.673c.086.04.168.076.241.111s.143.067.208.095a.968.968,0,0,0,.183.058,1.12,1.12,0,0,0,.271.022,1.464,1.464,0,0,0,.29-.044l.722-.161a2.625,2.625,0,0,0-.51-.375,4.222,4.222,0,0,0-.9-.362l.607-.427-.65-.135a1.173,1.173,0,0,0-.389-.017.593.593,0,0,0-.272.089l-.344.24a8.66,8.66,0,0,0-1.3-.141,7.457,7.457,0,0,0-1.12.046,4.357,4.357,0,0,0-.882.2,1.721,1.721,0,0,0-.581.316c-.181.161-.265.309-.25.446a.579.579,0,0,0,.234.376,2.135,2.135,0,0,0,.55.315c.228.1.464.19.7.277l-1.176.817a2.749,2.749,0,0,1-.384-.163c-.1-.055-.2-.108-.28-.159s-.164-.093-.239-.133a.959.959,0,0,0-.249-.086,1.606,1.606,0,0,0-.279-.024,1.5,1.5,0,0,0-.261.027l-.9.205a2.728,2.728,0,0,0,.72.468,7.109,7.109,0,0,0,1.092.409l-.641.446.654.135a1.219,1.219,0,0,0,.387.016.574.574,0,0,0,.27-.089l.387-.268a8.984,8.984,0,0,0,1.311.128,6.885,6.885,0,0,0,1.142-.061,4.13,4.13,0,0,0,.917-.227,2.038,2.038,0,0,0,.64-.369.609.609,0,0,0,.195-.277.319.319,0,0,0-.033-.249.743.743,0,0,0-.215-.23,2.7,2.7,0,0,0-.351-.212c-.135-.064-.279-.13-.434-.195s-.314-.121-.475-.181l1.107-.769C280.741,164.6,280.836,164.636,280.92,164.673Zm-1.887,1.759a1.788,1.788,0,0,1-1.411.218l1.025-.711a1.37,1.37,0,0,1,.411.239C279.139,166.26,279.132,166.344,279.033,166.432Zm-.4-1.456a1.394,1.394,0,0,1-.407-.256c-.08-.084-.073-.173.027-.261a.565.565,0,0,1,.177-.1,1.181,1.181,0,0,1,.271-.064,2.908,2.908,0,0,1,.38-.015q.215.006.5.042Z" transform="translate(-273.962 -163.427)" fill="#fcd517"/>
    </g>
    <g id="Group_39076" data-name="Group 39076" transform="translate(2.98 2.614)">
      <path id="Path_107137" data-name="Path 107137" d="M275.787,167.644a1.219,1.219,0,0,0,.387.016.574.574,0,0,0,.27-.089l.387-.268a8.986,8.986,0,0,0,1.311.128,6.886,6.886,0,0,0,1.142-.061,4.132,4.132,0,0,0,.917-.227c.024-.009.042-.02.066-.031a8.228,8.228,0,0,1-2.745-3.261,3.666,3.666,0,0,0-.446.121,1.721,1.721,0,0,0-.581.316c-.181.161-.265.309-.25.446a.579.579,0,0,0,.234.376,2.135,2.135,0,0,0,.55.315c.228.1.464.19.7.277l-1.176.817a2.747,2.747,0,0,1-.384-.163c-.1-.055-.2-.108-.28-.159s-.164-.093-.239-.133a.959.959,0,0,0-.249-.086,1.606,1.606,0,0,0-.279-.024,1.5,1.5,0,0,0-.261.027l-.9.205a2.728,2.728,0,0,0,.72.468,7.107,7.107,0,0,0,1.092.409l-.641.446Zm2.859-1.6a1.37,1.37,0,0,1,.411.239c.082.081.075.165-.024.254a1.788,1.788,0,0,1-1.411.218Z" transform="translate(-273.962 -163.85)" fill="url(#linear-gradient-3)"/>
    </g>
    <g id="Group_39077" data-name="Group 39077" transform="translate(2.98 2.294)">
      <path id="Path_107138" data-name="Path 107138" d="M275.787,168.281a1.219,1.219,0,0,0,.387.016.574.574,0,0,0,.27-.089l.387-.268a8.986,8.986,0,0,0,1.311.128,6.886,6.886,0,0,0,1.142-.061,4.132,4.132,0,0,0,.917-.227,2.038,2.038,0,0,0,.64-.369.609.609,0,0,0,.195-.277.319.319,0,0,0-.033-.249.743.743,0,0,0-.215-.23,2.5,2.5,0,0,0-.29-.173,2.4,2.4,0,0,1-1.388.543.2.2,0,0,1-.077.146,1.788,1.788,0,0,1-1.411.218l.362-.252a11.522,11.522,0,0,1-1.376-.013l-.049.03a.941.941,0,0,1-.119-.046,15.568,15.568,0,0,1-2.152-.36l-.325.073a2.728,2.728,0,0,0,.72.468,7.107,7.107,0,0,0,1.092.409l-.641.446Z" transform="translate(-273.962 -164.167)" fill="#ffee52"/>
      <path id="Path_107139" data-name="Path 107139" d="M282.268,163.454a1.173,1.173,0,0,0-.389-.017.593.593,0,0,0-.272.089l-.344.24a8.66,8.66,0,0,0-1.3-.141,7.457,7.457,0,0,0-1.12.046,4.357,4.357,0,0,0-.882.2,2.532,2.532,0,0,0-.339.149,5.8,5.8,0,0,1,2.363-.164,6.472,6.472,0,0,1,3.12,1.036l.616-.137a2.625,2.625,0,0,0-.51-.375,4.222,4.222,0,0,0-.9-.362l.607-.427Z" transform="translate(-274.848 -163.427)" fill="#ffee52"/>
    </g>
    <g id="Group_39078" data-name="Group 39078" transform="translate(2.98 2.614)">
      <path id="Path_107140" data-name="Path 107140" d="M275.279,166.113c.189.036,1.261.61,1.3.588.268-.153.806-.588,1.4-1-.294-.294-1.412-.354-1.52-.957-.055-.293.49-.652,1.06-.9a3.666,3.666,0,0,0-.446.121,1.721,1.721,0,0,0-.581.316c-.181.161-.265.309-.25.446a.579.579,0,0,0,.234.376,2.135,2.135,0,0,0,.55.315c.228.1.464.19.7.277l-1.176.817a2.747,2.747,0,0,1-.384-.163c-.1-.055-.2-.108-.28-.159s-.164-.093-.239-.133a.959.959,0,0,0-.249-.086,1.606,1.606,0,0,0-.279-.024,1.5,1.5,0,0,0-.261.027l-.9.205a2.728,2.728,0,0,0,.72.468,7.107,7.107,0,0,0,1.092.409l-.641.446.232.049c.069-.04.427-.3.707-.5.086-.06-1.757-.743-1.677-.8A2.236,2.236,0,0,1,275.279,166.113Z" transform="translate(-273.962 -163.85)" fill="#fff8b8"/>
    </g>
    <path id="Path_107141" data-name="Path 107141" d="M270.053,165.519s.243-3.2,4.79-4.483a15.142,15.142,0,0,1,5.623-.333,11.428,11.428,0,0,0-2.616-.3C273.542,160.4,270.053,162.69,270.053,165.519Z" transform="translate(-270.036 -160.401)" fill="#f9af19"/>
  </g>
  <g id="Group_39160" data-name="Group 39160" transform="translate(4.075 22.039)">
    <path id="Path_107462" data-name="Path 107462" d="M331.159,185.422a9.377,9.377,0,0,1-5.9,2.027c-6.777-.644-7.833-4.773-7.833-4.773-.038.2,0,1.507,0,1.717,0,2.826,3.493,5.119,7.8,5.119s7.8-2.294,7.8-5.119c0-.2.033-1.527,0-1.717A7.913,7.913,0,0,1,331.159,185.422Z" transform="translate(-317.408 -177.559)" fill="#ed8203"/>
    <g id="Group_39152" data-name="Group 39152" transform="translate(0.463 5.665)">
      <path id="Path_107463" data-name="Path 107463" d="M318.092,184.075c-.011.543-.08,1.088-.073,1.639,0,.23,0,.465,0,.7a4.389,4.389,0,0,0,.548.8c0-.133.008-.268.006-.4a17.806,17.806,0,0,1-.013-2.09A6.24,6.24,0,0,1,318.092,184.075Z" transform="translate(-318.018 -183.563)" fill="#c66802"/>
      <path id="Path_107464" data-name="Path 107464" d="M325.476,190.823c.263.04.534.074.811.093-.023-.722-.153-1.447-.115-2.163-.223-.036-.422-.082-.63-.124C325.529,189.36,325.5,190.092,325.476,190.823Z" transform="translate(-319.823 -184.665)" fill="#c66802"/>
      <path id="Path_107465" data-name="Path 107465" d="M320.877,188.575c-.007.2-.022.4-.039.608.194.119.4.23.614.334-.015-.8-.029-1.6-.022-2.393-.188-.1-.362-.208-.528-.314C320.9,187.4,320.891,187.988,320.877,188.575Z" transform="translate(-318.701 -184.225)" fill="#c66802"/>
      <path id="Path_107466" data-name="Path 107466" d="M319.888,188.505c.042-.8.117-1.6.106-2.371-.19-.148-.36-.3-.519-.444-.053.674.06,1.344.045,2.027,0,.152-.014.312-.024.472C319.621,188.3,319.751,188.4,319.888,188.505Z" transform="translate(-318.367 -183.954)" fill="#c66802"/>
      <path id="Path_107467" data-name="Path 107467" d="M322.377,187.6q0,1.177.026,2.362c.164.064.331.126.506.183a11.653,11.653,0,0,1,.038-2.3C322.746,187.766,322.56,187.686,322.377,187.6Z" transform="translate(-319.073 -184.417)" fill="#c66802"/>
      <path id="Path_107468" data-name="Path 107468" d="M323.824,190.46c.219.06.44.113.668.161.027-.744.057-1.487.068-2.227-.256-.064-.493-.139-.727-.215A11.748,11.748,0,0,0,323.824,190.46Z" transform="translate(-319.411 -184.556)" fill="#c66802"/>
      <path id="Path_107469" data-name="Path 107469" d="M327.126,188.9a19.152,19.152,0,0,0,.1,2.106c.117,0,.23.013.344.013.144,0,.281-.011.422-.017.016-.678.055-1.361.009-2.04-.135,0-.272,0-.4-.006C327.441,188.939,327.283,188.92,327.126,188.9Z" transform="translate(-320.22 -184.73)" fill="#c66802"/>
      <path id="Path_107470" data-name="Path 107470" d="M332.385,190.169c.23-.077.453-.165.669-.256,0-.117,0-.232,0-.347-.017-.609-.029-1.222-.039-1.831-.221.1-.449.2-.683.294C332.341,188.741,332.361,189.455,332.385,190.169Z" transform="translate(-321.483 -184.448)" fill="#c66802"/>
      <path id="Path_107471" data-name="Path 107471" d="M334.612,189.1c.007-.223.015-.442.02-.669.007-.524-.031-1.045-.039-1.567-.193.126-.4.249-.61.367.011.707.038,1.412.046,2.121,0,.027,0,.055,0,.082C334.23,189.334,334.422,189.221,334.612,189.1Z" transform="translate(-321.882 -184.239)" fill="#c66802"/>
      <path id="Path_107472" data-name="Path 107472" d="M336.156,187.841c.007-.462.02-.922,0-1.383-.013-.321-.02-.639-.013-.957a4.7,4.7,0,0,1-.6.6s0,0-.006.007c-.007.577.049,1.151.044,1.73,0,.177-.013.351-.024.528A5.3,5.3,0,0,0,336.156,187.841Z" transform="translate(-322.26 -183.908)" fill="#c66802"/>
      <path id="Path_107473" data-name="Path 107473" d="M337.122,186.272c0,.117,0,.232,0,.346a4.035,4.035,0,0,0,.458-.91c-.033-.769-.067-1.546-.042-2.309-.092.183-.208.4-.346.634A9.8,9.8,0,0,0,337.122,186.272Z" transform="translate(-322.635 -183.399)" fill="#c66802"/>
      <path id="Path_107474" data-name="Path 107474" d="M330.781,190.653c.214-.044.429-.1.634-.155q-.033-1.054-.049-2.106c-.227.073-.458.141-.685.2C330.7,189.281,330.751,189.968,330.781,190.653Z" transform="translate(-321.083 -184.608)" fill="#c66802"/>
      <path id="Path_107475" data-name="Path 107475" d="M329.813,190.857c-.033-.676-.077-1.354-.1-2.033-.232.042-.455.075-.676.1.046.676,0,1.354-.017,2.031C329.285,190.93,329.552,190.9,329.813,190.857Z" transform="translate(-320.681 -184.712)" fill="#c66802"/>
    </g>
    <path id="Path_107476" data-name="Path 107476" d="M325.571,190.121c.053-.69.1-1.375.111-2.062a.378.378,0,0,1-.051,0c-3.63-.345-5.616-1.688-6.679-2.861.053.866.143,1.732.112,2.594A9.306,9.306,0,0,0,325.571,190.121Z" transform="translate(-317.782 -178.169)" fill="#ffee52" opacity="0.25"/>
    <path id="Path_107477" data-name="Path 107477" d="M324.115,190.335c.057-.731.07-1.463.068-2.194a10.085,10.085,0,0,1-3.467-1.41c-.022.775-.082,1.549-.126,2.325A9.564,9.564,0,0,0,324.115,190.335Z" transform="translate(-318.178 -178.541)" fill="#ffee52" opacity="0.28"/>
    <g id="Group_39153" data-name="Group 39153" transform="translate(2.412 8.19)">
      <path id="Path_107478" data-name="Path 107478" d="M322.316,189.906q-.014-1.166-.016-2.329c-.261-.111-.5-.232-.727-.353.04.784.007,1.573-.006,2.36C321.807,189.7,322.057,189.806,322.316,189.906Z" transform="translate(-320.826 -186.85)" fill="#ffee52" opacity="0.35"/>
      <path id="Path_107479" data-name="Path 107479" d="M320.59,189.056c.058.035.124.064.183.1.013-.8.027-1.608-.038-2.411,0-.006-.015-.008-.02-.015C320.694,187.506,320.634,188.28,320.59,189.056Z" transform="translate(-320.59 -186.731)" fill="#ffee52" opacity="0.35"/>
      <path id="Path_107480" data-name="Path 107480" d="M323.307,190.285c.108.033.223.06.333.093-.027-.758-.029-1.514-.027-2.274-.108-.038-.224-.068-.325-.108C323.3,188.761,323.3,189.521,323.307,190.285Z" transform="translate(-321.243 -187.037)" fill="#ffee52" opacity="0.35"/>
      <path id="Path_107481" data-name="Path 107481" d="M325.2,190.77c.057-.731.071-1.463.068-2.194-.067-.016-.128-.036-.193-.049,0,.738.011,1.483.022,2.22C325.134,190.756,325.165,190.763,325.2,190.77Z" transform="translate(-321.676 -187.166)" fill="#ffee52" opacity="0.35"/>
    </g>
    <path id="Path_107482" data-name="Path 107482" d="M331.076,187.707q.033,1.047.022,2.1a7.857,7.857,0,0,0,4.2-2.314c0-.813.011-1.628.018-2.43a5.279,5.279,0,0,1-.853.941A9.647,9.647,0,0,1,331.076,187.707Z" transform="translate(-320.716 -178.136)" fill="#7a4103" opacity="0.32"/>
    <path id="Path_107483" data-name="Path 107483" d="M332.746,189.679a8.117,8.117,0,0,0,2.048-1.091,23.037,23.037,0,0,1,.212-2.457c-.046.04-.086.089-.135.128a8.612,8.612,0,0,1-2.106,1.247C332.757,188.23,332.748,188.954,332.746,189.679Z" transform="translate(-321.12 -178.395)" fill="#7a4103" opacity="0.32"/>
    <path id="Path_107484" data-name="Path 107484" d="M334.739,185.422a9.1,9.1,0,0,1-2.541,1.423c0,.709.058,1.414.073,2.128,2.566-.84,4.333-2.572,4.333-4.58,0-.2.033-1.527,0-1.717A7.913,7.913,0,0,1,334.739,185.422Z" transform="translate(-320.988 -177.559)" fill="#7a4103" opacity="0.32"/>
    <path id="Path_107485" data-name="Path 107485" d="M317.43,181.042c0,2.826,3.493,5.118,7.8,5.118s7.8-2.291,7.8-5.118-3.493-5.117-7.8-5.117S317.43,178.216,317.43,181.042Z" transform="translate(-317.413 -175.925)" fill="#fcd517"/>
    <path id="Path_107486" data-name="Path 107486" d="M333.657,181.314a21.672,21.672,0,0,1,1.222,2.448,3.918,3.918,0,0,0,1.164-2.68c0-2.457-2.643-4.5-6.162-4.991A37.77,37.77,0,0,1,333.657,181.314Z" transform="translate(-320.427 -175.965)" fill="#ffbc00"/>
    <path id="Path_107487" data-name="Path 107487" d="M326.4,175.974a35.738,35.738,0,0,1,3.38,2.685c-.645-.9-1.3-1.8-1.924-2.72-.152,0-.3-.013-.458-.013C327.063,175.925,326.732,175.942,326.4,175.974Z" transform="translate(-319.585 -175.925)" fill="#ffbc00"/>
    <path id="Path_107488" data-name="Path 107488" d="M323.948,180.116a9.83,9.83,0,0,1-1.636-3.7c-2.861.756-4.883,2.594-4.883,4.744,0,2.826,3.493,5.118,7.8,5.118a10.594,10.594,0,0,0,4.788-1.085c-.211-.106-.424-.212-.631-.322A14.648,14.648,0,0,1,323.948,180.116Z" transform="translate(-317.413 -176.044)" fill="#fff7ab" opacity="0.54"/>
    <path id="Path_107489" data-name="Path 107489" d="M318.562,179.181a3.889,3.889,0,0,0-1.132,2.649c0,2.826,3.493,5.118,7.8,5.118.354,0,.7-.02,1.037-.052a20.609,20.609,0,0,1-4.077-2.543C320.908,183.306,319,181.192,318.562,179.181Z" transform="translate(-317.413 -176.713)" fill="#fff7ab" opacity="0.54"/>
    <path id="Path_107490" data-name="Path 107490" d="M325.1,180.116a9.83,9.83,0,0,1-1.636-3.7,9.826,9.826,0,0,0-1.281.446c.165,3.266,2.645,5.718,5.544,7.26a27.392,27.392,0,0,0,2.947,1.3c.168-.075.337-.15.495-.232-.211-.106-.424-.212-.631-.322A14.648,14.648,0,0,1,325.1,180.116Z" transform="translate(-318.563 -176.044)" fill="#fff7ab" opacity="0.54"/>
    <g id="Group_39154" data-name="Group 39154" transform="translate(0.081 5.742)">
      <path id="Path_107491" data-name="Path 107491" d="M317.514,183.5c.471,2.53,3.752,4.492,7.736,4.492,3.257,0,6.041-1.31,7.21-3.169a8.5,8.5,0,0,1-6.9,2.742C319.432,187.3,317.888,184.363,317.514,183.5Z" transform="translate(-317.514 -183.501)" fill="#ffffd7"/>
    </g>
    <path id="Path_107492" data-name="Path 107492" d="M319.506,180.564c0,1.934,2.788,3.5,6.226,3.5s6.224-1.566,6.224-3.5-2.786-3.5-6.224-3.5S319.506,178.633,319.506,180.564Z" transform="translate(-317.916 -176.201)" fill="url(#linear-gradient-10)"/>
    <path id="Path_107493" data-name="Path 107493" d="M322.995,177.539c-2.062.571-3.489,1.761-3.489,3.14,0,1.934,2.788,3.5,6.226,3.5a10.531,10.531,0,0,0,2.327-.254c-.168-.112-.343-.214-.5-.338A12.927,12.927,0,0,1,322.995,177.539Z" transform="translate(-317.916 -176.316)" fill="url(#linear-gradient-11)"/>
    <path id="Path_107494" data-name="Path 107494" d="M319.506,180.564a2.034,2.034,0,0,0,.028.327c.292-1.783,2.952-3.18,6.2-3.18s5.909,1.4,6.2,3.18a1.8,1.8,0,0,0,.028-.327c0-1.931-2.786-3.5-6.224-3.5S319.506,178.633,319.506,180.564Z" transform="translate(-317.916 -176.201)" fill="#ed8203"/>
    <g id="Group_39155" data-name="Group 39155" transform="translate(2.98 2.453)">
      <path id="Path_107495" data-name="Path 107495" d="M328.3,180.672c.088.04.165.077.239.113l.21.092a1.813,1.813,0,0,0,.183.06,1.31,1.31,0,0,0,.271.022,1.6,1.6,0,0,0,.292-.044l.718-.166v-.421a13.444,13.444,0,0,0-1.409-.314l.609-.427v-.424a8.277,8.277,0,0,0-1.041.274.586.586,0,0,0-.271.088l-.345.236a9.079,9.079,0,0,0-1.3-.137,6.907,6.907,0,0,0-1.12.047,4.273,4.273,0,0,0-.884.2,3.68,3.68,0,0,0-.829.338s-.013.29,0,.424a.566.566,0,0,0,.234.375,2.327,2.327,0,0,0,.55.318c.228.1.465.19.7.277l-1.176.815a3.164,3.164,0,0,1-.384-.163c-.106-.058-.2-.108-.283-.157s-.164-.1-.236-.135a1.049,1.049,0,0,0-.249-.084,1.151,1.151,0,0,0-.281-.027c-.1,0-1.089-.208-1.164-.19v.422a2.808,2.808,0,0,0,.72.468,7.109,7.109,0,0,0,1.092.409l-.641.022v.424l.656.135a1.216,1.216,0,0,0,.387.016.573.573,0,0,0,.27-.089l.384-.268a9.064,9.064,0,0,0,1.313.128,6.634,6.634,0,0,0,1.14-.059,4.229,4.229,0,0,0,.919-.228,2.026,2.026,0,0,0,.639-.371.591.591,0,0,0,.2-.277.337.337,0,0,0-.03-.249.756.756,0,0,0-.217-.23,2.313,2.313,0,0,0-.353-.21,4.661,4.661,0,0,0-.434-.195c-.155-.064-.311-.124-.473-.183l1.107-.769C328.118,180.594,328.213,180.637,328.3,180.672Zm-1.887,1.759a1.792,1.792,0,0,1-1.412.218l1.028-.713a1.406,1.406,0,0,1,.409.245C326.518,182.258,326.512,182.342,326.412,182.431Zm-.4-1.456a1.38,1.38,0,0,1-.407-.255c-.081-.083-.075-.174.027-.265a.6.6,0,0,1,.177-.1,1.184,1.184,0,0,1,.271-.064,2.872,2.872,0,0,1,.378-.015c.146,0,.309.02.5.042Z" transform="translate(-321.339 -179.161)" fill="#d67003"/>
    </g>
    <g id="Group_39156" data-name="Group 39156" transform="translate(2.98 2.295)">
      <path id="Path_107496" data-name="Path 107496" d="M328.3,180.2c.088.038.165.076.239.111l.21.093a1.076,1.076,0,0,0,.183.057,1.059,1.059,0,0,0,.271.023,1.41,1.41,0,0,0,.292-.042l.718-.163a2.383,2.383,0,0,0-.51-.374,4.369,4.369,0,0,0-.9-.367l.609-.424-.654-.133a1.16,1.16,0,0,0-.387-.017.576.576,0,0,0-.271.089l-.345.238a8.986,8.986,0,0,0-1.3-.139,7.18,7.18,0,0,0-1.12.046,4.264,4.264,0,0,0-.884.2,1.711,1.711,0,0,0-.577.314.468.468,0,0,0-.018.822,2.3,2.3,0,0,0,.55.318c.228.1.465.187.7.274l-1.176.82a3.02,3.02,0,0,1-.384-.166c-.106-.055-.2-.108-.283-.159s-.164-.092-.236-.13a.933.933,0,0,0-.249-.086,1.428,1.428,0,0,0-.537,0l-.908.205a2.868,2.868,0,0,0,.72.468,7.269,7.269,0,0,0,1.092.409l-.641.444.656.136a1.286,1.286,0,0,0,.387.016.62.62,0,0,0,.27-.089l.384-.269a9.187,9.187,0,0,0,1.313.13,6.937,6.937,0,0,0,1.14-.062,4.063,4.063,0,0,0,.919-.227,2,2,0,0,0,.639-.369.6.6,0,0,0,.2-.277.342.342,0,0,0-.03-.252.782.782,0,0,0-.217-.23,2.589,2.589,0,0,0-.353-.21c-.133-.067-.277-.13-.434-.195s-.311-.124-.473-.183l1.107-.766C328.118,180.12,328.213,180.16,328.3,180.2Zm-1.887,1.757a1.8,1.8,0,0,1-1.412.221l1.028-.714a1.465,1.465,0,0,1,.409.241C326.518,181.784,326.512,181.87,326.412,181.956Zm-.4-1.454a1.427,1.427,0,0,1-.407-.256c-.081-.086-.075-.173.027-.263a.554.554,0,0,1,.177-.1,1.322,1.322,0,0,1,.271-.062,2.874,2.874,0,0,1,.378-.015,4.589,4.589,0,0,1,.5.042Z" transform="translate(-321.339 -178.953)" fill="#fcd517"/>
    </g>
    <g id="Group_39157" data-name="Group 39157" transform="translate(2.98 2.613)">
      <path id="Path_107497" data-name="Path 107497" d="M323.166,183.169a1.286,1.286,0,0,0,.387.016.62.62,0,0,0,.27-.089l.384-.269a9.187,9.187,0,0,0,1.313.13,6.937,6.937,0,0,0,1.14-.062,4.063,4.063,0,0,0,.919-.227c.025-.009.042-.02.067-.031a8.255,8.255,0,0,1-2.747-3.264,3.774,3.774,0,0,0-.446.124,1.711,1.711,0,0,0-.577.314.468.468,0,0,0-.018.822,2.3,2.3,0,0,0,.55.318c.228.1.465.187.7.274l-1.176.82a3.02,3.02,0,0,1-.384-.166c-.106-.055-.2-.108-.283-.159s-.164-.092-.236-.13a.933.933,0,0,0-.249-.086,1.428,1.428,0,0,0-.537,0l-.908.205a2.868,2.868,0,0,0,.72.468,7.269,7.269,0,0,0,1.092.409l-.641.444Zm2.861-1.6a1.465,1.465,0,0,1,.409.241c.082.08.076.165-.024.252a1.8,1.8,0,0,1-1.412.221Z" transform="translate(-321.339 -179.373)" fill="url(#linear-gradient-3)"/>
    </g>
    <g id="Group_39158" data-name="Group 39158" transform="translate(2.98 2.295)">
      <path id="Path_107498" data-name="Path 107498" d="M323.166,183.806a1.286,1.286,0,0,0,.387.016.62.62,0,0,0,.27-.089l.384-.269a9.187,9.187,0,0,0,1.313.13,6.937,6.937,0,0,0,1.14-.062,4.063,4.063,0,0,0,.919-.227,2,2,0,0,0,.639-.369.6.6,0,0,0,.2-.277.342.342,0,0,0-.03-.252.782.782,0,0,0-.217-.23,2.984,2.984,0,0,0-.29-.172,2.4,2.4,0,0,1-1.388.546.192.192,0,0,1-.077.143,1.8,1.8,0,0,1-1.412.221l.365-.252a10.979,10.979,0,0,1-1.381-.015l-.047.033c-.044-.014-.08-.031-.119-.047a15.244,15.244,0,0,1-2.152-.362l-.327.075a2.868,2.868,0,0,0,.72.468,7.269,7.269,0,0,0,1.092.409l-.641.444Z" transform="translate(-321.339 -179.692)" fill="#ffee52"/>
      <path id="Path_107499" data-name="Path 107499" d="M329.645,178.98a1.16,1.16,0,0,0-.387-.017.576.576,0,0,0-.271.089l-.345.238a8.986,8.986,0,0,0-1.3-.139,7.18,7.18,0,0,0-1.12.046,4.264,4.264,0,0,0-.884.2,2.274,2.274,0,0,0-.337.146,5.843,5.843,0,0,1,2.365-.161,6.44,6.44,0,0,1,3.117,1.036l.614-.139a2.383,2.383,0,0,0-.51-.374,4.369,4.369,0,0,0-.9-.367l.609-.424Z" transform="translate(-322.226 -178.953)" fill="#ffee52"/>
    </g>
    <g id="Group_39159" data-name="Group 39159" transform="translate(2.98 2.613)">
      <path id="Path_107500" data-name="Path 107500" d="M322.658,181.636c.19.036,1.262.61,1.3.588.27-.152.811-.588,1.4-1-.294-.294-1.412-.353-1.523-.954-.053-.294.493-.652,1.06-.9a3.774,3.774,0,0,0-.446.124,1.711,1.711,0,0,0-.577.314.468.468,0,0,0-.018.822,2.3,2.3,0,0,0,.55.318c.228.1.465.187.7.274l-1.176.82a3.02,3.02,0,0,1-.384-.166c-.106-.055-.2-.108-.283-.159s-.164-.092-.236-.13a.933.933,0,0,0-.249-.086,1.428,1.428,0,0,0-.537,0l-.908.205a2.868,2.868,0,0,0,.72.468,7.269,7.269,0,0,0,1.092.409l-.641.444.232.051c.07-.04.429-.3.709-.5.084-.062-1.756-.743-1.677-.8A2.292,2.292,0,0,1,322.658,181.636Z" transform="translate(-321.339 -179.373)" fill="#fff8b8"/>
    </g>
    <path id="Path_107501" data-name="Path 107501" d="M317.43,181.042s.246-3.2,4.793-4.481a15.192,15.192,0,0,1,5.623-.336,11.445,11.445,0,0,0-2.616-.3C320.923,175.925,317.43,178.216,317.43,181.042Z" transform="translate(-317.413 -175.925)" fill="#f9af19"/>
  </g>
</svg>
