<svg id="coin" xmlns="http://www.w3.org/2000/svg" xmlns:xlink="http://www.w3.org/1999/xlink" width="34.83" height="19.101" viewBox="0 0 34.83 19.101">
  <defs>
    <linearGradient id="linear-gradient" x1="0.167" y1="-0.034" x2="0.833" y2="1.034" gradientUnits="objectBoundingBox">
      <stop offset="0" stop-color="#ffe53b"/>
      <stop offset="1" stop-color="#ffa200"/>
    </linearGradient>
    <linearGradient id="linear-gradient-2" x1="0.258" y1="0.048" x2="0.66" y2="1.134" gradientUnits="objectBoundingBox">
      <stop offset="0" stop-color="#fff73b"/>
      <stop offset="1" stop-color="#ffba00"/>
    </linearGradient>
    <linearGradient id="linear-gradient-3" y1="0.5" x2="1.407" y2="0.5" gradientUnits="objectBoundingBox">
      <stop offset="0" stop-color="#fff654"/>
      <stop offset="0.655" stop-color="#ffd947"/>
    </linearGradient>
    <linearGradient id="linear-gradient-4" x1="0.213" y1="-0.01" x2="0.787" y2="1.01" xlink:href="#linear-gradient"/>
    <linearGradient id="linear-gradient-5" x1="0.302" y1="0.045" x2="0.616" y2="1.154" xlink:href="#linear-gradient-2"/>
    <linearGradient id="linear-gradient-6" x1="0" y1="0.5" x2="1.407" y2="0.5" xlink:href="#linear-gradient-3"/>
    <linearGradient id="linear-gradient-7" x1="0.253" y1="0.114" x2="0.747" y2="0.886" xlink:href="#linear-gradient"/>
    <linearGradient id="linear-gradient-8" x1="0.328" y1="-0.036" x2="0.58" y2="1.032" xlink:href="#linear-gradient-2"/>
    <linearGradient id="linear-gradient-9" x1="0" y1="0.5" x2="1.407" y2="0.5" xlink:href="#linear-gradient-3"/>
    <linearGradient id="linear-gradient-10" x1="0.213" y1="-0.01" x2="0.787" y2="1.01" xlink:href="#linear-gradient"/>
    <linearGradient id="linear-gradient-11" x1="0.302" y1="0.045" x2="0.616" y2="1.154" xlink:href="#linear-gradient-2"/>
    <linearGradient id="linear-gradient-12" x1="0" y1="0.5" x2="1.407" y2="0.5" xlink:href="#linear-gradient-3"/>
    <linearGradient id="linear-gradient-13" x1="0.213" y1="-0.01" x2="0.787" y2="1.01" xlink:href="#linear-gradient"/>
    <linearGradient id="linear-gradient-14" x1="0.302" y1="0.045" x2="0.616" y2="1.154" xlink:href="#linear-gradient-2"/>
    <linearGradient id="linear-gradient-16" x1="0.213" y1="-0.01" x2="0.787" y2="1.01" xlink:href="#linear-gradient"/>
    <linearGradient id="linear-gradient-17" x1="0.302" y1="0.045" x2="0.616" y2="1.154" xlink:href="#linear-gradient-2"/>
  </defs>
  <g id="Group_39033" data-name="Group 39033" transform="translate(0 3.178)">
    <path id="Path_106901" data-name="Path 106901" d="M302.869,173.432c-5.779-2.266-5.662-6.154-5.662-6.154-.086.169-.381,1.322-.433,1.505-.711,2.478,1.774,5.364,5.547,6.447s7.415-.042,8.122-2.521c.05-.171.415-1.332.433-1.507a7.229,7.229,0,0,1-2.323,1.942A8.549,8.549,0,0,1,302.869,173.432Z" transform="translate(-296.653 -164.344)" fill="#ed8203"/>
    <g id="Group_39025" data-name="Group 39025" transform="translate(0.092 3.995)">
      <path id="Path_106902" data-name="Path 106902" d="M296.785,170.839a4.009,4.009,0,0,0,.276.847c.039-.118.077-.234.107-.353a17.7,17.7,0,0,1,.514-1.835,5.444,5.444,0,0,1-.246-.685c-.147.476-.344.932-.476,1.418C296.9,170.436,296.841,170.637,296.785,170.839Z" transform="translate(-296.785 -168.812)" fill="#c66802"/>
      <path id="Path_106903" data-name="Path 106903" d="M303.43,177.437c.162-.637.232-1.306.444-1.924-.185-.086-.35-.178-.52-.268-.2.639-.407,1.272-.611,1.908Q303.076,177.3,303.43,177.437Z" transform="translate(-298.625 -170.799)" fill="#c66802"/>
      <path id="Path_106904" data-name="Path 106904" d="M298.72,174.282c.145.151.294.3.458.445.185-.7.375-1.4.581-2.1-.137-.137-.264-.274-.383-.409-.147.516-.3,1.03-.467,1.54C298.853,173.931,298.787,174.106,298.72,174.282Z" transform="translate(-297.383 -169.863)" fill="#c66802"/>
      <path id="Path_106905" data-name="Path 106905" d="M297.706,172.935c.083.127.167.252.264.377.238-.685.506-1.368.693-2.051-.131-.175-.244-.35-.347-.52-.214.576-.286,1.193-.469,1.785C297.8,172.663,297.756,172.8,297.706,172.935Z" transform="translate(-297.069 -169.408)" fill="#c66802"/>
      <path id="Path_106906" data-name="Path 106906" d="M300.419,175.746a10.409,10.409,0,0,1,.612-2.013c-.157-.117-.3-.238-.439-.357-.2.691-.389,1.382-.574,2.077C300.149,175.553,300.282,175.652,300.419,175.746Z" transform="translate(-297.783 -170.222)" fill="#c66802"/>
      <path id="Path_106907" data-name="Path 106907" d="M301.808,176.645c.21-.643.426-1.286.621-1.933-.207-.121-.4-.244-.584-.37a10.834,10.834,0,0,0-.583,2C301.442,176.445,301.621,176.548,301.808,176.645Z" transform="translate(-298.168 -170.52)" fill="#c66802"/>
      <path id="Path_106908" data-name="Path 106908" d="M304.422,177.808c.1.032.2.068.3.1.125.039.247.065.375.095.183-.592.389-1.178.52-1.787-.115-.035-.24-.065-.346-.107-.141-.055-.274-.111-.409-.169A17.892,17.892,0,0,0,304.422,177.808Z" transform="translate(-299.143 -171.012)" fill="#c66802"/>
      <path id="Path_106909" data-name="Path 106909" d="M310.214,178.421c.028-.1.061-.2.087-.3.133-.54.28-1.078.425-1.614-.222.034-.447.062-.675.082-.169.631-.332,1.259-.491,1.892C309.781,178.467,310,178.449,310.214,178.421Z" transform="translate(-300.73 -171.188)" fill="#c66802"/>
      <path id="Path_106910" data-name="Path 106910" d="M311.326,178.209c.205-.039.4-.091.6-.147.062-.189.126-.383.187-.581.135-.455.236-.923.357-1.382-.2.063-.407.117-.625.167-.171.623-.323,1.25-.5,1.87C311.34,178.161,311.332,178.185,311.326,178.209Z" transform="translate(-301.276 -171.062)" fill="#c66802"/>
      <path id="Path_106911" data-name="Path 106911" d="M313.215,177.126c-.046.153-.1.306-.149.457a5.184,5.184,0,0,0,.653-.316c.12-.4.25-.8.348-1.211.066-.284.143-.566.227-.84a4.356,4.356,0,0,1-.672.381l-.008,0C313.461,176.1,313.366,176.618,313.215,177.126Z" transform="translate(-301.813 -170.79)" fill="#c66802"/>
      <path id="Path_106912" data-name="Path 106912" d="M315.1,175.975c-.024.1-.055.2-.083.306a3.685,3.685,0,0,0,.631-.681c.163-.686.33-1.375.544-2.038-.127.139-.284.3-.464.468A9.129,9.129,0,0,0,315.1,175.975Z" transform="translate(-302.416 -170.279)" fill="#c66802"/>
      <path id="Path_106913" data-name="Path 106913" d="M308.509,178.541q.238-.934.487-1.862c-.219.008-.435.012-.65,0-.158.607-.286,1.221-.431,1.83C308.116,178.529,308.314,178.537,308.509,178.541Z" transform="translate(-300.222 -171.242)" fill="#c66802"/>
      <path id="Path_106914" data-name="Path 106914" d="M306.839,178.41c.145-.6.274-1.21.423-1.809-.211-.02-.417-.048-.617-.087-.129.6-.341,1.189-.526,1.779C306.361,178.34,306.6,178.377,306.839,178.41Z" transform="translate(-299.668 -171.19)" fill="#c66802"/>
    </g>
    <path id="Path_106915" data-name="Path 106915" d="M297.971,170.12a23.143,23.143,0,0,1-.554,2.3,8.488,8.488,0,0,0,5.116,3.679c.222-.59.431-1.178.619-1.779-.012-.006-.033-.008-.046-.014C300.01,173.094,298.608,171.418,297.971,170.12Z" transform="translate(-296.889 -165.221)" fill="#ffee52" opacity="0.25"/>
    <path id="Path_106916" data-name="Path 106916" d="M298.525,174.1a8.578,8.578,0,0,0,2.767,2.011c.234-.627.431-1.263.61-1.9a9.383,9.383,0,0,1-2.684-2.107C299,172.768,298.761,173.433,298.525,174.1Z" transform="translate(-297.231 -165.832)" fill="#ffee52" opacity="0.28"/>
    <g id="Group_39026" data-name="Group 39026" transform="translate(1.294 6.265)">
      <path id="Path_106917" data-name="Path 106917" d="M299.89,175.333q.284-1.025.57-2.045c-.2-.165-.379-.328-.546-.493-.163.7-.389,1.378-.6,2.065C299.5,175.022,299.688,175.179,299.89,175.333Z" transform="translate(-298.77 -172.312)" fill="#ffee52" opacity="0.35"/>
      <path id="Path_106918" data-name="Path 106918" d="M298.66,174.235c.216-.7.429-1.4.574-2.122,0-.006-.012-.01-.016-.016-.214.671-.458,1.336-.693,2C298.567,174.146,298.618,174.188,298.66,174.235Z" transform="translate(-298.525 -172.097)" fill="#ffee52" opacity="0.35"/>
      <path id="Path_106919" data-name="Path 106919" d="M301.073,176.186c.167-.669.357-1.334.547-2-.084-.059-.175-.115-.256-.176q-.281,1.007-.56,2.011C300.889,176.076,300.982,176.129,301.073,176.186Z" transform="translate(-299.229 -172.687)" fill="#ffee52" opacity="0.35"/>
      <path id="Path_106920" data-name="Path 106920" d="M302.491,177.01c.234-.627.431-1.263.61-1.9-.055-.032-.1-.062-.156-.091-.183.647-.362,1.3-.538,1.951C302.436,176.981,302.463,177,302.491,177.01Z" transform="translate(-299.724 -172.998)" fill="#ffee52" opacity="0.35"/>
    </g>
    <path id="Path_106921" data-name="Path 106921" d="M308.212,177.976a7.162,7.162,0,0,0,4.267-.97c.2-.715.42-1.424.629-2.125a4.9,4.9,0,0,1-.985.612,8.825,8.825,0,0,1-3.4.641C308.564,176.753,308.392,177.367,308.212,177.976Z" transform="translate(-300.222 -166.692)" fill="#7a4103" opacity="0.32"/>
    <path id="Path_106922" data-name="Path 106922" d="M309.929,178.191A7.371,7.371,0,0,0,312,177.75a20.419,20.419,0,0,1,.808-2.1c-.053.026-.1.057-.151.081a7.873,7.873,0,0,1-2.162.561C310.3,176.926,310.112,177.558,309.929,178.191Z" transform="translate(-300.753 -166.929)" fill="#7a4103" opacity="0.32"/>
    <path id="Path_106923" data-name="Path 106923" d="M309.921,175.506c-.175.622-.31,1.251-.473,1.879,2.461-.086,4.443-1.16,4.947-2.922.05-.171.415-1.332.433-1.507a7.229,7.229,0,0,1-2.323,1.942A8.4,8.4,0,0,1,309.921,175.506Z" transform="translate(-300.604 -166.097)" fill="#7a4103" opacity="0.32"/>
    <path id="Path_106924" data-name="Path 106924" d="M297.4,165.967c-.713,2.479,1.771,5.366,5.547,6.45s7.411-.045,8.122-2.525-1.771-5.361-5.545-6.448S298.112,163.49,297.4,165.967Z" transform="translate(-296.846 -163.032)" fill="#fcd517"/>
    <path id="Path_106925" data-name="Path 106925" d="M313.232,169.915a19.078,19.078,0,0,1,.458,2.454,3.56,3.56,0,0,0,1.693-2.059c.621-2.15-1.183-4.6-4.141-5.924A34.523,34.523,0,0,1,313.232,169.915Z" transform="translate(-301.158 -163.45)" fill="#ffbc00"/>
    <path id="Path_106926" data-name="Path 106926" d="M307.927,163.325a32.821,32.821,0,0,1,2.284,3.206c-.338-.955-.687-1.906-1-2.865-.133-.044-.262-.091-.4-.131C308.513,163.45,308.219,163.384,307.927,163.325Z" transform="translate(-300.134 -163.123)" fill="#ffbc00"/>
    <path id="Path_106927" data-name="Path 106927" d="M297.4,165.969c-.713,2.479,1.771,5.366,5.547,6.45a9.64,9.64,0,0,0,4.471.254c-.161-.145-.322-.292-.473-.443a13.344,13.344,0,0,1-3.57-5.535,8.988,8.988,0,0,1-.5-3.654C300.175,162.985,297.941,164.087,297.4,165.969Z" transform="translate(-296.846 -163.034)" fill="#fff7ab" opacity="0.54"/>
    <path id="Path_106928" data-name="Path 106928" d="M299.057,164.331a3.555,3.555,0,0,0-1.657,2.037c-.713,2.479,1.771,5.366,5.547,6.45.308.086.617.157.921.217a18.791,18.791,0,0,1-2.932-3.258A9.947,9.947,0,0,1,299.057,164.331Z" transform="translate(-296.846 -163.433)" fill="#fff7ab" opacity="0.54"/>
    <path id="Path_106929" data-name="Path 106929" d="M303.517,163.11c-.682,2.9.876,5.679,3.03,7.759a24.757,24.757,0,0,0,2.255,1.882c.167-.023.332-.048.494-.079-.161-.145-.322-.292-.473-.443a13.345,13.345,0,0,1-3.57-5.535,8.988,8.988,0,0,1-.5-3.654A8.529,8.529,0,0,0,303.517,163.11Z" transform="translate(-298.722 -163.035)" fill="#fff7ab" opacity="0.54"/>
    <g id="Group_39027" data-name="Group 39027" transform="translate(0.438 3.498)">
      <path id="Path_106930" data-name="Path 106930" d="M297.3,168.094c-.224,2.338,2.158,4.882,5.65,5.886,2.853.818,5.623.37,7.116-.964a7.748,7.748,0,0,1-6.742.665C298.026,171.9,297.411,168.945,297.3,168.094Z" transform="translate(-297.286 -168.094)" fill="#ffffd7"/>
    </g>
    <path id="Path_106931" data-name="Path 106931" d="M299.691,166.059c-.485,1.695,1.562,3.768,4.574,4.634s5.851.191,6.339-1.5-1.563-3.77-4.574-4.634S300.179,164.365,299.691,166.059Z" transform="translate(-297.569 -163.386)" fill="url(#linear-gradient)"/>
    <path id="Path_106932" data-name="Path 106932" d="M299.691,166.062c-.485,1.695,1.562,3.768,4.574,4.634a9.418,9.418,0,0,0,2.105.361c-.121-.139-.246-.274-.357-.421a11.785,11.785,0,0,1-2.474-6.448C301.585,164.166,300.038,164.853,299.691,166.062Z" transform="translate(-297.569 -163.389)" fill="url(#linear-gradient-2)"/>
    <path id="Path_106933" data-name="Path 106933" d="M310.612,169.192c.485-1.694-1.563-3.77-4.574-4.634s-5.851-.193-6.339,1.5a1.4,1.4,0,0,0-.054.292c.7-1.489,3.385-2.043,6.23-1.227s4.826,2.711,4.63,4.345A1.665,1.665,0,0,0,310.612,169.192Z" transform="translate(-297.577 -163.386)" fill="#ed8203"/>
    <g id="Group_39028" data-name="Group 39028" transform="translate(3.086 2.744)">
      <path id="Path_106934" data-name="Path 106934" d="M307.573,168.682c.064.054.125.109.183.157s.107.093.159.133a.764.764,0,0,0,.147.1.963.963,0,0,0,.228.086,1.375,1.375,0,0,0,.265.037l.675.036.105-.37a12.746,12.746,0,0,0-1.157-.63l.641-.22.107-.371a8.147,8.147,0,0,0-.981-.022.589.589,0,0,0-.258.006l-.365.123a8.065,8.065,0,0,0-1.1-.445,5.966,5.966,0,0,0-1-.242,3.87,3.87,0,0,0-.825-.05,3.431,3.431,0,0,0-.811.088,3.834,3.834,0,0,0-.107.371.535.535,0,0,0,.109.388,2.259,2.259,0,0,0,.405.417c.176.141.357.282.548.417l-1.237.421a2.181,2.181,0,0,1-.292-.241c-.081-.075-.149-.145-.209-.21s-.119-.122-.173-.175a.952.952,0,0,0-.2-.139,1.1,1.1,0,0,0-.24-.091c-.086-.022-.9-.457-.971-.461l-.108.37a2.448,2.448,0,0,0,.514.59,6.977,6.977,0,0,0,.852.637l-.568-.143-.1.37.538.282a1.019,1.019,0,0,0,.337.113.58.58,0,0,0,.258-.006l.407-.141a8.247,8.247,0,0,0,1.114.443,6.608,6.608,0,0,0,1.015.234,3.879,3.879,0,0,0,.863.032,1.9,1.9,0,0,0,.655-.163.515.515,0,0,0,.242-.2.3.3,0,0,0,.034-.228.68.68,0,0,0-.131-.254,2.281,2.281,0,0,0-.256-.272c-.1-.093-.212-.186-.33-.283s-.244-.185-.369-.278l1.165-.4C307.434,168.567,307.508,168.626,307.573,168.682Zm-2.1,1.066a1.642,1.642,0,0,1-1.291-.164l1.078-.368a1.287,1.287,0,0,1,.3.317C305.612,169.623,305.584,169.7,305.475,169.748Zm.015-1.378a1.236,1.236,0,0,1-.292-.327c-.05-.095-.022-.169.088-.223a.511.511,0,0,1,.183-.042,1.019,1.019,0,0,1,.254.01,2.431,2.431,0,0,1,.337.083c.124.04.264.093.425.161Z" transform="translate(-301.117 -167.003)" fill="#d67003"/>
    </g>
    <g id="Group_39029" data-name="Group 39029" transform="translate(3.194 2.373)">
      <path id="Path_106935" data-name="Path 106935" d="M307.727,168.141c.065.059.125.111.184.16s.106.095.159.135a.872.872,0,0,0,.147.1,1.058,1.058,0,0,0,.229.086,1.422,1.422,0,0,0,.264.035l.673.038a2.192,2.192,0,0,0-.352-.455,3.865,3.865,0,0,0-.7-.546l.641-.22-.538-.282a1.089,1.089,0,0,0-.334-.111.568.568,0,0,0-.261.006l-.364.123a8.1,8.1,0,0,0-1.1-.448,6.51,6.51,0,0,0-1-.241,3.811,3.811,0,0,0-.826-.048,1.622,1.622,0,0,0-.584.129c-.2.1-.312.207-.332.33a.535.535,0,0,0,.109.389,2.131,2.131,0,0,0,.4.415c.179.143.361.284.55.42l-1.239.421a3.215,3.215,0,0,1-.292-.24l-.209-.211c-.06-.064-.115-.123-.173-.176a.911.911,0,0,0-.195-.139,1.233,1.233,0,0,0-.24-.091,1.274,1.274,0,0,0-.234-.042l-.845-.048a2.544,2.544,0,0,0,.512.592,6.392,6.392,0,0,0,.854.632l-.677.23.544.282a1.014,1.014,0,0,0,.335.111.526.526,0,0,0,.258-.008l.405-.137a8.6,8.6,0,0,0,1.118.443,6.431,6.431,0,0,0,1.015.232,3.636,3.636,0,0,0,.863.032,1.839,1.839,0,0,0,.651-.163.556.556,0,0,0,.245-.194.315.315,0,0,0,.033-.227.633.633,0,0,0-.133-.254,2.164,2.164,0,0,0-.254-.274c-.1-.091-.209-.183-.33-.278s-.244-.187-.368-.28l1.165-.4C307.589,168.031,307.661,168.089,307.727,168.141Zm-2.1,1.07a1.651,1.651,0,0,1-1.292-.163l1.078-.368a1.2,1.2,0,0,1,.3.316C305.767,169.084,305.739,169.157,305.63,169.211Zm.014-1.378a1.235,1.235,0,0,1-.292-.326c-.048-.095-.022-.169.091-.224a.542.542,0,0,1,.179-.046,1.164,1.164,0,0,1,.256.015,2.339,2.339,0,0,1,.337.08,4.4,4.4,0,0,1,.425.163Z" transform="translate(-301.274 -166.465)" fill="#fcd517"/>
    </g>
    <g id="Group_39030" data-name="Group 39030" transform="translate(3.194 2.374)">
      <path id="Path_106936" data-name="Path 106936" d="M302.507,169.365a1.014,1.014,0,0,0,.335.111.526.526,0,0,0,.258-.008l.405-.137a8.6,8.6,0,0,0,1.118.443,6.429,6.429,0,0,0,1.015.232,3.636,3.636,0,0,0,.863.032.607.607,0,0,1,.064-.008,7.547,7.547,0,0,1-1.583-3.553,3.047,3.047,0,0,0-.425-.006,1.622,1.622,0,0,0-.584.129c-.2.1-.312.207-.332.33a.535.535,0,0,0,.109.389,2.13,2.13,0,0,0,.4.415c.179.143.361.284.55.42l-1.239.421a3.215,3.215,0,0,1-.292-.24l-.209-.212c-.06-.064-.115-.123-.173-.176a.911.911,0,0,0-.195-.139,1.234,1.234,0,0,0-.24-.091,1.274,1.274,0,0,0-.234-.042l-.845-.048a2.544,2.544,0,0,0,.512.592,6.391,6.391,0,0,0,.854.632l-.677.23Zm2.91-.685a1.2,1.2,0,0,1,.3.316c.055.088.026.162-.082.216a1.651,1.651,0,0,1-1.292-.163Z" transform="translate(-301.274 -166.467)" fill="url(#linear-gradient-3)"/>
    </g>
    <g id="Group_39031" data-name="Group 39031" transform="translate(3.194 2.373)">
      <path id="Path_106937" data-name="Path 106937" d="M302.507,169.884a1.013,1.013,0,0,0,.335.111.526.526,0,0,0,.258-.008l.405-.137a8.6,8.6,0,0,0,1.118.443,6.429,6.429,0,0,0,1.015.232,3.635,3.635,0,0,0,.863.032,1.839,1.839,0,0,0,.651-.163.555.555,0,0,0,.245-.194.315.315,0,0,0,.033-.227.633.633,0,0,0-.133-.254,1.879,1.879,0,0,0-.209-.226,2.166,2.166,0,0,1-1.352.129c-.008.042-.044.076-.1.109a1.651,1.651,0,0,1-1.292-.163l.383-.131a10.2,10.2,0,0,1-1.207-.359l-.053.016c-.035-.024-.059-.048-.091-.07a13.87,13.87,0,0,1-1.792-.858l-.306-.018a2.544,2.544,0,0,0,.512.592,6.391,6.391,0,0,0,.854.632l-.677.23Z" transform="translate(-301.274 -166.985)" fill="#ffee52"/>
      <path id="Path_106938" data-name="Path 106938" d="M309.756,167.19a1.089,1.089,0,0,0-.334-.111.568.568,0,0,0-.261.006l-.364.123a8.1,8.1,0,0,0-1.1-.448,6.51,6.51,0,0,0-1-.241,3.811,3.811,0,0,0-.826-.048,2.162,2.162,0,0,0-.33.046,5.271,5.271,0,0,1,2.114.451,5.909,5.909,0,0,1,2.472,1.692l.572.032a2.192,2.192,0,0,0-.352-.455,3.865,3.865,0,0,0-.7-.546l.641-.22Z" transform="translate(-302.593 -166.465)" fill="#ffee52"/>
    </g>
    <g id="Group_39032" data-name="Group 39032" transform="translate(3.194 2.374)">
      <path id="Path_106939" data-name="Path 106939" d="M304.981,166.477a3.047,3.047,0,0,0-.425-.006,1.622,1.622,0,0,0-.584.129c-.2.1-.312.207-.332.33a.535.535,0,0,0,.109.389,2.13,2.13,0,0,0,.4.415c.179.143.361.284.55.42l-1.239.421a3.215,3.215,0,0,1-.292-.24l-.209-.212c-.06-.064-.115-.123-.173-.176a.911.911,0,0,0-.195-.139,1.234,1.234,0,0,0-.24-.091,1.274,1.274,0,0,0-.234-.042l-.845-.048a2.544,2.544,0,0,0,.512.592,6.391,6.391,0,0,0,.854.632l-.677.23.194.1c.071-.016.449-.151.747-.26.091-.03-1.352-1.092-1.269-1.122a2.065,2.065,0,0,1,.814.093c.155.08.949.854.993.846.27-.068.854-.312,1.475-.522-.183-.332-1.149-.667-1.092-1.223C303.851,166.725,304.42,166.548,304.981,166.477Z" transform="translate(-301.274 -166.467)" fill="#fff8b8"/>
    </g>
    <path id="Path_106940" data-name="Path 106940" d="M297.455,165.967s1.02-2.742,5.328-2.722a13.787,13.787,0,0,1,5.011,1.122,10.608,10.608,0,0,0-2.215-.923C301.8,162.36,298.166,163.49,297.455,165.967Z" transform="translate(-296.9 -163.032)" fill="#f9af19"/>
  </g>
  <g id="Group_39052" data-name="Group 39052" transform="translate(0.866 8.2)">
    <g id="Group_39051" data-name="Group 39051" transform="translate(0.001)">
      <path id="Path_106981" data-name="Path 106981" d="M306.446,187.853a8.563,8.563,0,0,1-5.384,1.843c-6.178-.584-7.141-4.35-7.141-4.35-.035.186,0,1.376,0,1.568,0,2.577,3.184,4.667,7.111,4.667s7.112-2.089,7.112-4.667c0-.179.028-1.394,0-1.568A7.239,7.239,0,0,1,306.446,187.853Z" transform="translate(-293.906 -180.68)" fill="#ed8203"/>
      <g id="Group_39043" data-name="Group 39043" transform="translate(0.42 5.166)">
        <path id="Path_106982" data-name="Path 106982" d="M294.582,186.746c-.012.5-.075.993-.066,1.493,0,.212,0,.425,0,.637a4.051,4.051,0,0,0,.5.733c0-.121.008-.244.006-.367a16.726,16.726,0,0,1-.012-1.908A5.176,5.176,0,0,1,294.582,186.746Z" transform="translate(-294.514 -186.278)" fill="#c66802"/>
        <path id="Path_106983" data-name="Path 106983" d="M301.968,193.3c.246.036.489.066.744.084-.022-.659-.14-1.317-.109-1.971-.2-.032-.381-.077-.572-.115C302.018,191.966,301.99,192.635,301.968,193.3Z" transform="translate(-296.816 -187.684)" fill="#c66802"/>
        <path id="Path_106984" data-name="Path 106984" d="M297.366,191.09c0,.185-.018.37-.036.556.181.106.368.209.564.3-.016-.727-.028-1.457-.02-2.186-.174-.088-.332-.187-.484-.284C297.39,190.016,297.38,190.552,297.366,191.09Z" transform="translate(-295.384 -187.122)" fill="#c66802"/>
        <path id="Path_106985" data-name="Path 106985" d="M296.348,190.93c.036-.727.1-1.454.1-2.162-.175-.135-.33-.27-.476-.4-.048.612.055,1.223.041,1.843,0,.143-.01.288-.022.433C296.1,190.739,296.22,190.838,296.348,190.93Z" transform="translate(-294.959 -186.778)" fill="#c66802"/>
        <path id="Path_106986" data-name="Path 106986" d="M298.872,190.273c0,.717.008,1.436.022,2.152.151.061.306.119.464.169a10.727,10.727,0,0,1,.034-2.1C299.211,190.422,299.037,190.348,298.872,190.273Z" transform="translate(-295.86 -187.367)" fill="#c66802"/>
        <path id="Path_106987" data-name="Path 106987" d="M300.314,192.931c.2.053.4.1.611.143.022-.677.05-1.352.06-2.029-.232-.061-.449-.127-.665-.2A10.79,10.79,0,0,0,300.314,192.931Z" transform="translate(-296.29 -187.546)" fill="#c66802"/>
        <path id="Path_106988" data-name="Path 106988" d="M303.617,191.567a17.475,17.475,0,0,0,.1,1.922c.1,0,.207.012.312.012.129,0,.256-.012.386-.015.012-.621.048-1.241.006-1.861-.121,0-.248,0-.363-.008C303.908,191.606,303.764,191.587,303.617,191.567Z" transform="translate(-297.323 -187.767)" fill="#c66802"/>
        <path id="Path_106989" data-name="Path 106989" d="M308.876,192.625c.211-.073.413-.153.611-.234,0-.106,0-.211,0-.316-.017-.558-.024-1.112-.035-1.671-.2.095-.413.187-.623.268C308.838,191.323,308.852,191.974,308.876,192.625Z" transform="translate(-298.935 -187.408)" fill="#c66802"/>
        <path id="Path_106990" data-name="Path 106990" d="M311.049,191.576c.008-.2.017-.4.02-.609.006-.478-.028-.951-.038-1.429-.176.115-.361.228-.554.335.008.645.035,1.288.041,1.935,0,.024,0,.05,0,.076C310.7,191.787,310.878,191.684,311.049,191.576Z" transform="translate(-299.444 -187.14)" fill="#c66802"/>
        <path id="Path_106991" data-name="Path 106991" d="M312.6,190.308c.006-.421.018-.842,0-1.261q-.021-.438-.012-.872a4.4,4.4,0,0,1-.542.552l-.008.006c-.006.524.044,1.048.038,1.578,0,.161-.01.321-.018.48A5.468,5.468,0,0,0,312.6,190.308Z" transform="translate(-299.925 -186.719)" fill="#c66802"/>
        <path id="Path_106992" data-name="Path 106992" d="M313.612,188.689c0,.105,0,.212,0,.317a3.671,3.671,0,0,0,.421-.829c-.035-.7-.062-1.414-.04-2.107-.085.167-.189.365-.315.579A8.953,8.953,0,0,0,313.612,188.689Z" transform="translate(-300.404 -186.069)" fill="#c66802"/>
        <path id="Path_106993" data-name="Path 106993" d="M307.271,193.123c.2-.042.389-.086.576-.137-.02-.641-.034-1.284-.046-1.926-.207.068-.413.133-.621.185C307.2,191.874,307.239,192.5,307.271,193.123Z" transform="translate(-298.426 -187.61)" fill="#c66802"/>
        <path id="Path_106994" data-name="Path 106994" d="M306.238,193.351c-.028-.621-.073-1.237-.093-1.854-.209.037-.415.066-.617.085.042.619,0,1.237-.016,1.854C305.758,193.417,306,193.387,306.238,193.351Z" transform="translate(-297.911 -187.745)" fill="#c66802"/>
      </g>
      <path id="Path_106995" data-name="Path 106995" d="M301.484,192.357c.046-.625.086-1.253.1-1.88-.016,0-.032,0-.048,0-3.308-.312-5.122-1.537-6.091-2.607.05.79.129,1.579.1,2.365A8.506,8.506,0,0,0,301.484,192.357Z" transform="translate(-294.382 -181.459)" fill="#ffee52" opacity="0.25"/>
      <path id="Path_106996" data-name="Path 106996" d="M300.3,192.688c.052-.667.066-1.334.062-2A9.361,9.361,0,0,1,297.2,189.4c-.02.7-.07,1.413-.113,2.116A8.624,8.624,0,0,0,300.3,192.688Z" transform="translate(-294.888 -181.933)" fill="#ffee52" opacity="0.28"/>
      <g id="Group_39044" data-name="Group 39044" transform="translate(2.197 7.471)">
        <path id="Path_106997" data-name="Path 106997" d="M298.745,192.341q-.012-1.061-.016-2.122c-.236-.1-.455-.211-.661-.322.035.715.008,1.433-.006,2.147C298.283,192.152,298.509,192.253,298.745,192.341Z" transform="translate(-297.387 -189.556)" fill="#ffee52" opacity="0.35"/>
        <path id="Path_106998" data-name="Path 106998" d="M297.085,191.52c.053.035.111.061.169.095.012-.733.024-1.465-.037-2.2a.058.058,0,0,0-.02-.012C297.178,190.109,297.127,190.817,297.085,191.52Z" transform="translate(-297.085 -189.404)" fill="#ffee52" opacity="0.35"/>
        <path id="Path_106999" data-name="Path 106999" d="M299.8,192.755c.1.03.2.058.3.084-.024-.689-.026-1.38-.024-2.074-.1-.032-.2-.062-.3-.1C299.788,191.362,299.792,192.06,299.8,192.755Z" transform="translate(-297.919 -189.795)" fill="#ffee52" opacity="0.35"/>
        <path id="Path_107000" data-name="Path 107000" d="M301.684,193.242c.052-.667.066-1.334.062-2-.062-.016-.117-.035-.177-.046.006.675.012,1.352.022,2.023A.861.861,0,0,0,301.684,193.242Z" transform="translate(-298.47 -189.958)" fill="#ffee52" opacity="0.35"/>
      </g>
      <path id="Path_107001" data-name="Path 107001" d="M307.571,190.143c.022.639.028,1.274.022,1.908a7.145,7.145,0,0,0,3.833-2.105c0-.744.01-1.487.018-2.221a4.818,4.818,0,0,1-.778.863A8.831,8.831,0,0,1,307.571,190.143Z" transform="translate(-298.126 -181.415)" fill="#7a4103" opacity="0.32"/>
      <path id="Path_107002" data-name="Path 107002" d="M309.244,192.036a7.278,7.278,0,0,0,1.866-1,21.515,21.515,0,0,1,.193-2.24c-.044.038-.078.082-.12.119a7.962,7.962,0,0,1-1.923,1.136C309.252,190.715,309.244,191.374,309.244,192.036Z" transform="translate(-298.643 -181.747)" fill="#7a4103" opacity="0.32"/>
      <path id="Path_107003" data-name="Path 107003" d="M311.014,187.853a8.406,8.406,0,0,1-2.315,1.3c0,.645.046,1.288.061,1.94,2.341-.765,3.953-2.345,3.953-4.175,0-.179.028-1.394,0-1.568A7.239,7.239,0,0,1,311.014,187.853Z" transform="translate(-298.474 -180.68)" fill="#7a4103" opacity="0.32"/>
      <path id="Path_107004" data-name="Path 107004" d="M293.928,183.261c0,2.577,3.184,4.667,7.111,4.667s7.112-2.089,7.112-4.667-3.184-4.666-7.112-4.666S293.928,180.684,293.928,183.261Z" transform="translate(-293.913 -178.595)" fill="#fcd517"/>
      <path id="Path_107005" data-name="Path 107005" d="M309.818,183.526a19.19,19.19,0,0,1,1.116,2.23A3.563,3.563,0,0,0,312,183.312c0-2.24-2.41-4.1-5.617-4.551A34.259,34.259,0,0,1,309.818,183.526Z" transform="translate(-297.758 -178.646)" fill="#ffbc00"/>
      <path id="Path_107006" data-name="Path 107006" d="M302.9,178.637a32.793,32.793,0,0,1,3.083,2.45c-.588-.825-1.187-1.642-1.755-2.479-.139-.006-.276-.014-.417-.014C303.5,178.6,303.2,178.613,302.9,178.637Z" transform="translate(-296.683 -178.595)" fill="#ffbc00"/>
      <path id="Path_107007" data-name="Path 107007" d="M299.87,182.461a9,9,0,0,1-1.492-3.371c-2.609.689-4.45,2.366-4.45,4.324,0,2.577,3.184,4.667,7.111,4.667a9.681,9.681,0,0,0,4.368-.988c-.194-.1-.389-.193-.579-.3A13.341,13.341,0,0,1,299.87,182.461Z" transform="translate(-293.913 -178.748)" fill="#fff7ab" opacity="0.54"/>
      <path id="Path_107008" data-name="Path 107008" d="M294.96,181.848a3.547,3.547,0,0,0-1.032,2.418c0,2.577,3.184,4.667,7.111,4.667.322,0,.637-.019.947-.044a18.819,18.819,0,0,1-3.718-2.324A9.912,9.912,0,0,1,294.96,181.848Z" transform="translate(-293.913 -179.6)" fill="#fff7ab" opacity="0.54"/>
      <path id="Path_107009" data-name="Path 107009" d="M301.338,182.461a9,9,0,0,1-1.492-3.371,9.038,9.038,0,0,0-1.166.405c.151,2.978,2.409,5.217,5.055,6.621a24.111,24.111,0,0,0,2.686,1.187c.153-.068.308-.135.453-.209-.194-.1-.389-.193-.579-.3A13.341,13.341,0,0,1,301.338,182.461Z" transform="translate(-295.38 -178.748)" fill="#fff7ab" opacity="0.54"/>
      <g id="Group_39045" data-name="Group 39045" transform="translate(0.072 5.238)">
        <path id="Path_107010" data-name="Path 107010" d="M294.01,186.174c.431,2.307,3.423,4.095,7.054,4.095,2.968,0,5.511-1.2,6.574-2.89a7.752,7.752,0,0,1-6.295,2.5C295.759,189.634,294.352,186.958,294.01,186.174Z" transform="translate(-294.01 -186.174)" fill="#ffffd7"/>
      </g>
      <path id="Path_107011" data-name="Path 107011" d="M296,182.928c0,1.763,2.543,3.192,5.678,3.192s5.677-1.429,5.677-3.192-2.543-3.193-5.677-3.193S296,181.165,296,182.928Z" transform="translate(-294.553 -178.947)" fill="url(#linear-gradient-4)"/>
      <path id="Path_107012" data-name="Path 107012" d="M299.185,180.21c-1.882.522-3.184,1.606-3.184,2.865,0,1.763,2.543,3.192,5.678,3.192a9.5,9.5,0,0,0,2.121-.236c-.153-.1-.312-.194-.461-.3A11.78,11.78,0,0,1,299.185,180.21Z" transform="translate(-294.553 -179.094)" fill="url(#linear-gradient-5)"/>
      <path id="Path_107013" data-name="Path 107013" d="M296,182.928a1.8,1.8,0,0,0,.028.294c.264-1.624,2.692-2.9,5.65-2.9s5.386,1.271,5.652,2.9a1.8,1.8,0,0,0,.026-.294c0-1.763-2.543-3.193-5.677-3.193S296,181.165,296,182.928Z" transform="translate(-294.553 -178.947)" fill="#ed8203"/>
      <g id="Group_39046" data-name="Group 39046" transform="translate(2.715 2.237)">
        <path id="Path_107014" data-name="Path 107014" d="M304.179,183.211c.081.035.153.069.22.1s.133.061.194.087a.891.891,0,0,0,.167.053.956.956,0,0,0,.243.02,1.586,1.586,0,0,0,.266-.039l.657-.149v-.387c-.2-.117-.939-.182-1.285-.288l.556-.387v-.386a7.946,7.946,0,0,0-.949.25.537.537,0,0,0-.247.081l-.314.217a7.975,7.975,0,0,0-1.185-.126,6.313,6.313,0,0,0-1.022.042,3.7,3.7,0,0,0-.806.181,3.379,3.379,0,0,0-.754.306,3.41,3.41,0,0,0,0,.387.516.516,0,0,0,.212.345,2.1,2.1,0,0,0,.5.286c.208.088.424.173.643.254l-1.072.746a2.487,2.487,0,0,1-.35-.151c-.095-.048-.183-.1-.258-.143s-.147-.086-.216-.121a.917.917,0,0,0-.225-.081,1.34,1.34,0,0,0-.256-.02c-.091,0-.993-.191-1.064-.177v.386a2.469,2.469,0,0,0,.659.427,6.45,6.45,0,0,0,.994.375l-.583.02v.385l.6.124a1.051,1.051,0,0,0,.352.012.55.55,0,0,0,.246-.077l.353-.248a7.933,7.933,0,0,0,1.193.12,6.591,6.591,0,0,0,1.042-.057,3.718,3.718,0,0,0,.838-.207,1.856,1.856,0,0,0,.584-.339.541.541,0,0,0,.179-.252.3.3,0,0,0-.032-.227.634.634,0,0,0-.2-.209,2.11,2.11,0,0,0-.318-.189c-.121-.064-.254-.123-.4-.182s-.284-.111-.431-.165l1.012-.7C304.018,183.14,304.1,183.175,304.179,183.211Zm-1.719,1.6a1.642,1.642,0,0,1-1.289.2l.937-.65a1.274,1.274,0,0,1,.375.22C302.557,184.656,302.551,184.734,302.46,184.815Zm-.366-1.33a1.334,1.334,0,0,1-.37-.232c-.077-.079-.069-.16.023-.24a.525.525,0,0,1,.164-.095,1.322,1.322,0,0,1,.245-.059,2.65,2.65,0,0,1,.345-.012c.133,0,.282.016.456.038Z" transform="translate(-297.834 -181.832)" fill="#d67003"/>
      </g>
      <g id="Group_39047" data-name="Group 39047" transform="translate(2.715 2.093)">
        <path id="Path_107015" data-name="Path 107015" d="M304.179,182.76c.081.034.153.068.22.1s.133.058.194.086a.875.875,0,0,0,.167.05.93.93,0,0,0,.243.022,1.466,1.466,0,0,0,.266-.04l.657-.149a2.264,2.264,0,0,0-.463-.339,3.842,3.842,0,0,0-.822-.337l.556-.386-.6-.123a1,1,0,0,0-.353-.012.56.56,0,0,0-.247.077l-.314.222a8.007,8.007,0,0,0-1.185-.131,6.806,6.806,0,0,0-1.022.044,3.96,3.96,0,0,0-.806.182,1.579,1.579,0,0,0-.526.288c-.167.147-.242.283-.228.4a.507.507,0,0,0,.212.343,2.053,2.053,0,0,0,.5.292c.208.086.424.171.643.25l-1.072.748a3.09,3.09,0,0,1-.35-.151c-.095-.053-.183-.1-.258-.145s-.147-.086-.216-.121a.811.811,0,0,0-.225-.078,1.147,1.147,0,0,0-.256-.022,1.162,1.162,0,0,0-.238.024l-.826.185a2.521,2.521,0,0,0,.659.427,6.383,6.383,0,0,0,.994.373l-.583.409.6.121a1,1,0,0,0,.352.014.541.541,0,0,0,.246-.077l.353-.245a8.925,8.925,0,0,0,1.193.117,6.6,6.6,0,0,0,1.042-.055,3.715,3.715,0,0,0,.838-.209,1.84,1.84,0,0,0,.584-.337.557.557,0,0,0,.179-.254.3.3,0,0,0-.032-.226.615.615,0,0,0-.2-.209,2.366,2.366,0,0,0-.318-.194c-.121-.06-.254-.121-.4-.177s-.284-.111-.431-.165l1.012-.7A2.648,2.648,0,0,1,304.179,182.76Zm-1.719,1.6a1.625,1.625,0,0,1-1.289.2l.937-.651a1.228,1.228,0,0,1,.375.222C302.557,184.207,302.551,184.281,302.46,184.361Zm-.366-1.328a1.19,1.19,0,0,1-.37-.232c-.077-.079-.069-.157.023-.24a.539.539,0,0,1,.164-.095,1.063,1.063,0,0,1,.245-.057,2.62,2.62,0,0,1,.345-.014c.133,0,.282.018.456.04Z" transform="translate(-297.834 -181.623)" fill="#fcd517"/>
      </g>
      <g id="Group_39048" data-name="Group 39048" transform="translate(2.715 2.383)">
        <path id="Path_107016" data-name="Path 107016" d="M299.5,185.5a1,1,0,0,0,.352.014.541.541,0,0,0,.246-.077l.353-.245a8.925,8.925,0,0,0,1.193.117,6.6,6.6,0,0,0,1.042-.055,3.715,3.715,0,0,0,.838-.209.327.327,0,0,0,.06-.03,7.487,7.487,0,0,1-2.5-2.974,3.476,3.476,0,0,0-.408.113,1.578,1.578,0,0,0-.526.288c-.167.147-.242.283-.228.4a.507.507,0,0,0,.212.343,2.053,2.053,0,0,0,.5.292c.208.086.424.171.643.25l-1.072.748a3.09,3.09,0,0,1-.35-.151c-.095-.053-.183-.1-.258-.145s-.147-.086-.216-.121a.811.811,0,0,0-.225-.078,1.147,1.147,0,0,0-.256-.022,1.161,1.161,0,0,0-.238.024l-.826.185a2.521,2.521,0,0,0,.659.427,6.383,6.383,0,0,0,.994.373l-.583.409Zm2.607-1.461a1.228,1.228,0,0,1,.375.222c.075.073.069.147-.022.227a1.625,1.625,0,0,1-1.289.2Z" transform="translate(-297.834 -182.043)" fill="url(#linear-gradient-6)"/>
      </g>
      <g id="Group_39049" data-name="Group 39049" transform="translate(2.715 2.093)">
        <path id="Path_107017" data-name="Path 107017" d="M299.5,186.317a1,1,0,0,0,.352.014.541.541,0,0,0,.246-.077l.353-.245a8.925,8.925,0,0,0,1.193.117,6.6,6.6,0,0,0,1.042-.055,3.715,3.715,0,0,0,.838-.209,1.84,1.84,0,0,0,.584-.337.557.557,0,0,0,.179-.254.3.3,0,0,0-.032-.226.615.615,0,0,0-.2-.209,1.929,1.929,0,0,0-.262-.157,2.18,2.18,0,0,1-1.266.5.162.162,0,0,1-.07.131,1.625,1.625,0,0,1-1.289.2l.335-.232a9.655,9.655,0,0,1-1.259-.01l-.043.03-.106-.044a13.843,13.843,0,0,1-1.962-.329l-.3.065a2.521,2.521,0,0,0,.659.427,6.383,6.383,0,0,0,.994.373l-.583.409Z" transform="translate(-297.834 -182.567)" fill="#ffee52"/>
        <path id="Path_107018" data-name="Path 107018" d="M305.733,181.646a1,1,0,0,0-.352-.012.56.56,0,0,0-.247.077l-.315.222a8.006,8.006,0,0,0-1.185-.131,6.806,6.806,0,0,0-1.022.044,3.96,3.96,0,0,0-.806.182,2.025,2.025,0,0,0-.3.133,5.3,5.3,0,0,1,2.152-.147,5.9,5.9,0,0,1,2.845.947l.56-.129a2.265,2.265,0,0,0-.463-.339,3.842,3.842,0,0,0-.822-.337l.556-.386Z" transform="translate(-298.967 -181.623)" fill="#ffee52"/>
      </g>
      <g id="Group_39050" data-name="Group 39050" transform="translate(2.715 2.383)">
        <path id="Path_107019" data-name="Path 107019" d="M299.037,184.108c.173.032,1.15.558,1.187.534.245-.139.737-.534,1.279-.909-.27-.267-1.288-.322-1.391-.87-.048-.268.447-.6.969-.82a3.476,3.476,0,0,0-.408.113,1.578,1.578,0,0,0-.526.288c-.167.147-.242.283-.228.4a.507.507,0,0,0,.212.343,2.053,2.053,0,0,0,.5.292c.208.086.424.171.643.25l-1.072.748a3.09,3.09,0,0,1-.35-.151c-.095-.053-.183-.1-.258-.145s-.147-.086-.216-.121a.811.811,0,0,0-.225-.078,1.147,1.147,0,0,0-.256-.022,1.161,1.161,0,0,0-.238.024l-.826.185a2.521,2.521,0,0,0,.659.427,6.383,6.383,0,0,0,.994.373l-.583.409.211.042c.063-.032.389-.268.645-.453.077-.056-1.6-.677-1.529-.729A2.021,2.021,0,0,1,299.037,184.108Z" transform="translate(-297.834 -182.043)" fill="#fff8b8"/>
      </g>
      <path id="Path_107020" data-name="Path 107020" d="M293.928,183.261s.222-2.917,4.368-4.088a13.752,13.752,0,0,1,5.126-.3,10.326,10.326,0,0,0-2.383-.276C297.112,178.6,293.928,180.684,293.928,183.261Z" transform="translate(-293.913 -178.595)" fill="#f9af19"/>
    </g>
    <path id="Path_107021" data-name="Path 107021" d="M307.86,181.964c-.03-.062-.062-.125-.093-.189s-.075-.137-.117-.205-.083-.139-.127-.2a1.811,1.811,0,0,0-.121-.163c-.056-.075-.113-.151-.177-.225-.024-.03-.053-.057-.081-.087a5.408,5.408,0,0,0-.874-.765,18.326,18.326,0,0,0-5.3-1.443.3.3,0,0,1-.183-.073c-.081.006-.161.008-.24.012-1.118,2.407-4.141,4.9-6.627,4.652-.032.2,0,1.368,0,1.559a3.619,3.619,0,0,0,1.15,2.541h0c.077.079.167.149.252.222a12.612,12.612,0,0,1,4.538-5.283,6.832,6.832,0,0,1,4.12-1.474c1.515-.129,2.8,1.033,4.086,1.785-.016-.08-.034-.161-.057-.24-.018-.06-.038-.119-.06-.177C307.922,182.127,307.894,182.045,307.86,181.964Z" transform="translate(-293.905 -178.599)" fill="#8b4002" opacity="0.45"/>
  </g>
  <g id="Group_39061" data-name="Group 39061" transform="translate(20.513 6.596)">
    <path id="Path_107022" data-name="Path 107022" d="M296.315,177.158a8.564,8.564,0,0,1-4.544,3.427c-6.055,1.364-8.142-1.918-8.142-1.918.026.187.427,1.306.487,1.489.8,2.45,4.477,3.445,8.209,2.226s6.113-4.2,5.309-6.647c-.055-.169-.4-1.332-.486-1.487A7.254,7.254,0,0,1,296.315,177.158Z" transform="translate(-283.473 -171.502)" fill="#ed8203"/>
    <g id="Group_39053" data-name="Group 39053" transform="translate(0.905 3.295)">
      <path id="Path_107023" data-name="Path 107023" d="M284.713,181.758c.147.476.242.965.4,1.44.068.2.131.4.2.6a3.99,3.99,0,0,0,.7.544c-.036-.117-.068-.232-.111-.351a16.54,16.54,0,0,1-.6-1.807A5.882,5.882,0,0,1,284.713,181.758Z" transform="translate(-284.713 -177.115)" fill="#c66802"/>
      <path id="Path_107024" data-name="Path 107024" d="M293.772,185.664c.242-.042.486-.091.73-.149-.224-.62-.54-1.212-.713-1.841-.2.032-.389.048-.581.068C293.4,184.38,293.585,185.023,293.772,185.664Z" transform="translate(-287.336 -177.707)" fill="#c66802"/>
      <path id="Path_107025" data-name="Path 107025" d="M288.711,185.024c.052.175.1.357.139.538.205.046.413.086.628.115-.242-.689-.478-1.374-.7-2.069-.194-.034-.373-.075-.546-.121C288.4,184,288.559,184.508,288.711,185.024Z" transform="translate(-285.801 -177.649)" fill="#c66802"/>
      <path id="Path_107026" data-name="Path 107026" d="M287.125,184.613c.04.137.079.276.115.417.137.059.28.115.429.165-.189-.7-.348-1.416-.578-2.087-.206-.073-.4-.153-.576-.234C286.658,183.468,286.946,184.019,287.125,184.613Z" transform="translate(-285.27 -177.46)" fill="#c66802"/>
      <path id="Path_107027" data-name="Path 107027" d="M290.552,185.826c.161.012.325.016.492.016a10.628,10.628,0,0,1-.619-2.006c-.2-.01-.383-.028-.565-.048Q290.194,184.811,290.552,185.826Z" transform="translate(-286.303 -177.742)" fill="#c66802"/>
      <path id="Path_107028" data-name="Path 107028" d="M292.078,185.849c.21-.01.417-.028.627-.05-.187-.653-.368-1.306-.572-1.951-.238.016-.465.02-.691.022A10.984,10.984,0,0,0,292.078,185.849Z" transform="translate(-286.791 -177.761)" fill="#c66802"/>
      <path id="Path_107029" data-name="Path 107029" d="M294.779,183.457a18.5,18.5,0,0,0,.687,1.8c.1-.032.2-.057.3-.088.124-.041.241-.087.362-.135-.179-.592-.34-1.192-.572-1.771-.117.036-.234.081-.344.109C295.065,183.4,294.924,183.428,294.779,183.457Z" transform="translate(-287.822 -177.579)" fill="#c66802"/>
      <path id="Path_107030" data-name="Path 107030" d="M299.487,180.988c.209.617.427,1.229.651,1.842.179-.135.344-.274.509-.417-.032-.1-.062-.2-.1-.3-.191-.522-.373-1.048-.554-1.576C299.832,180.692,299.66,180.843,299.487,180.988Z" transform="translate(-289.276 -176.739)" fill="#c66802"/>
      <path id="Path_107031" data-name="Path 107031" d="M300.814,179.725c.209.611.433,1.213.639,1.826.01.022.016.048.024.071.147-.149.284-.3.411-.455-.054-.194-.109-.387-.169-.586-.143-.453-.324-.9-.481-1.344Q301.04,179.481,300.814,179.725Z" transform="translate(-289.685 -176.337)" fill="#c66802"/>
      <path id="Path_107032" data-name="Path 107032" d="M301.98,178.149l-.006.008c.157.5.368.984.526,1.487.048.153.091.306.133.463a5.414,5.414,0,0,0,.363-.628c-.123-.4-.244-.8-.389-1.2-.1-.276-.2-.548-.284-.824A4.524,4.524,0,0,1,301.98,178.149Z" transform="translate(-290.044 -175.787)" fill="#c66802"/>
      <path id="Path_107033" data-name="Path 107033" d="M303.5,177.647c.036.1.066.2.1.3a3.552,3.552,0,0,0,.139-.917c-.248-.659-.5-1.324-.691-1.989-.028.183-.066.4-.121.643A8.885,8.885,0,0,0,303.5,177.647Z" transform="translate(-290.338 -175.041)" fill="#c66802"/>
      <path id="Path_107034" data-name="Path 107034" d="M298.753,183.8c.173-.1.342-.2.507-.312q-.326-.9-.643-1.814c-.175.129-.353.254-.536.369C298.293,182.635,298.529,183.215,298.753,183.8Z" transform="translate(-288.842 -177.09)" fill="#c66802"/>
      <path id="Path_107035" data-name="Path 107035" d="M297.178,184.644c.226-.1.443-.2.659-.308-.219-.58-.449-1.152-.663-1.733-.185.1-.373.194-.558.274C296.845,183.451,297,184.052,297.178,184.644Z" transform="translate(-288.389 -177.376)" fill="#c66802"/>
    </g>
    <path id="Path_107036" data-name="Path 107036" d="M285.859,182.565a23.092,23.092,0,0,1,.83,2.217,8.491,8.491,0,0,0,6.3.176c-.146-.611-.3-1.217-.485-1.818a.37.37,0,0,0-.044.014C289.215,183.881,287.114,183.282,285.859,182.565Z" transform="translate(-284.162 -174.07)" fill="#ffee52" opacity="0.25"/>
    <path id="Path_107037" data-name="Path 107037" d="M288.048,183.463c.2.677.37,1.366.548,2.049a8.588,8.588,0,0,0,3.419.109c-.157-.647-.35-1.288-.562-1.918A9.25,9.25,0,0,1,288.048,183.463Z" transform="translate(-284.838 -174.347)" fill="#ffee52" opacity="0.28"/>
    <g id="Group_39054" data-name="Group 39054" transform="translate(3.21 9.116)">
      <path id="Path_107038" data-name="Path 107038" d="M289.644,185.722c.242.032.488.056.742.068q-.342-1-.675-2.011c-.256-.024-.5-.06-.729-.1C289.237,184.348,289.434,185.037,289.644,185.722Z" transform="translate(-288.336 -183.53)" fill="#ffee52" opacity="0.35"/>
      <path id="Path_107039" data-name="Path 107039" d="M288.6,185.512c.062.014.129.022.189.034a21.787,21.787,0,0,0-.713-2.077l-.024-.006C288.248,184.14,288.418,184.829,288.6,185.512Z" transform="translate(-288.048 -183.463)" fill="#ffee52" opacity="0.35"/>
      <path id="Path_107040" data-name="Path 107040" d="M291.515,185.859c.1,0,.209-.01.316-.012-.24-.651-.456-1.306-.669-1.966-.1,0-.211,0-.312,0C291.071,184.539,291.291,185.2,291.515,185.859Z" transform="translate(-288.913 -183.592)" fill="#ffee52" opacity="0.35"/>
      <path id="Path_107041" data-name="Path 107041" d="M293.361,185.74c.032,0,.062-.006.095-.012-.157-.647-.35-1.288-.562-1.918-.061.006-.121.008-.182.012Q293.032,184.781,293.361,185.74Z" transform="translate(-289.488 -183.57)" fill="#ffee52" opacity="0.35"/>
    </g>
    <path id="Path_107042" data-name="Path 107042" d="M298.426,180.424q.323.9.612,1.809a7.173,7.173,0,0,0,2.99-3.2c-.238-.7-.453-1.414-.675-2.114a4.792,4.792,0,0,1-.469,1.06A8.852,8.852,0,0,1,298.426,180.424Z" transform="translate(-288.043 -172.328)" fill="#7a4103" opacity="0.32"/>
    <path id="Path_107043" data-name="Path 107043" d="M299.846,180.066c.2.629.4,1.259.6,1.89a7.463,7.463,0,0,0,1.467-1.525,20.411,20.411,0,0,1-.512-2.192c-.03.05-.048.1-.078.151A7.954,7.954,0,0,1,299.846,180.066Z" transform="translate(-288.482 -172.734)" fill="#7a4103" opacity="0.32"/>
    <path id="Path_107044" data-name="Path 107044" d="M301.179,177.158a8.453,8.453,0,0,1-1.8,1.953c.2.612.447,1.21.663,1.823,1.987-1.455,3.027-3.458,2.456-5.2-.055-.169-.4-1.332-.486-1.487A7.253,7.253,0,0,1,301.179,177.158Z" transform="translate(-288.337 -171.502)" fill="#7a4103" opacity="0.32"/>
    <path id="Path_107045" data-name="Path 107045" d="M288.87,170.795c-3.734,1.219-6.113,4.2-5.311,6.645s4.477,3.445,8.21,2.226,6.113-4.2,5.309-6.645S292.6,169.575,288.87,170.795Z" transform="translate(-283.404 -170.274)" fill="#fcd517"/>
    <path id="Path_107046" data-name="Path 107046" d="M293.418,170.442a34.785,34.785,0,0,1,4.751,3.459,19.5,19.5,0,0,1,1.755,1.776,3.557,3.557,0,0,0,.247-2.652C299.477,170.9,296.608,169.874,293.418,170.442Z" transform="translate(-286.496 -170.278)" fill="#ffbc00"/>
    <path id="Path_107047" data-name="Path 107047" d="M290.932,170.976c-.294.1-.578.205-.852.322a33.033,33.033,0,0,1,3.689,1.373c-.814-.6-1.636-1.193-2.436-1.81C291.2,170.9,291.065,170.934,290.932,170.976Z" transform="translate(-285.466 -170.456)" fill="#ffbc00"/>
    <path id="Path_107048" data-name="Path 107048" d="M286.449,172.692c-2.266,1.469-3.5,3.633-2.889,5.494.8,2.45,4.477,3.445,8.21,2.226a9.645,9.645,0,0,0,3.842-2.3c-.212-.032-.427-.062-.639-.1a13.409,13.409,0,0,1-6.061-2.579A8.965,8.965,0,0,1,286.449,172.692Z" transform="translate(-283.404 -171.021)" fill="#fff7ab" opacity="0.54"/>
    <path id="Path_107049" data-name="Path 107049" d="M283.792,176.854a3.55,3.55,0,0,0-.232,2.617c.8,2.45,4.477,3.445,8.21,2.226a9.438,9.438,0,0,0,.885-.338,18.685,18.685,0,0,1-4.256-1.05A9.934,9.934,0,0,1,283.792,176.854Z" transform="translate(-283.405 -172.306)" fill="#fff7ab" opacity="0.54"/>
    <path id="Path_107050" data-name="Path 107050" d="M287.37,172.692a9.225,9.225,0,0,0-.984.747c1.066,2.787,3.913,4.209,6.863,4.725a23.865,23.865,0,0,0,2.922.29c.125-.111.248-.222.363-.339-.211-.032-.427-.062-.639-.1a13.409,13.409,0,0,1-6.061-2.579A8.964,8.964,0,0,1,287.37,172.692Z" transform="translate(-284.325 -171.021)" fill="#fff7ab" opacity="0.54"/>
    <g id="Group_39055" data-name="Group 39055" transform="translate(0.389 4.602)">
      <path id="Path_107051" data-name="Path 107051" d="M283.967,180.02c1.125,2.061,4.523,2.831,7.977,1.7,2.821-.923,4.866-2.847,5.353-4.789a7.762,7.762,0,0,1-5.208,4.332C286.705,182.767,284.533,180.663,283.967,180.02Z" transform="translate(-283.967 -176.933)" fill="#ffffd7"/>
    </g>
    <path id="Path_107052" data-name="Path 107052" d="M289.659,171.9c-2.982.973-4.953,3.123-4.407,4.8s3.408,2.245,6.387,1.274,4.953-3.123,4.407-4.8S292.637,170.925,289.659,171.9Z" transform="translate(-283.947 -170.629)" fill="url(#linear-gradient-7)"/>
    <path id="Path_107053" data-name="Path 107053" d="M287.388,173.686c-1.628,1.078-2.524,2.514-2.136,3.707.55,1.679,3.407,2.245,6.387,1.274a9.535,9.535,0,0,0,1.946-.883c-.179-.048-.359-.088-.534-.149A11.782,11.782,0,0,1,287.388,173.686Z" transform="translate(-283.947 -171.328)" fill="url(#linear-gradient-8)"/>
    <path id="Path_107054" data-name="Path 107054" d="M289.84,172.461c2.813-.921,5.517-.466,6.27,1a1.64,1.64,0,0,0-.064-.29c-.548-1.674-3.41-2.243-6.387-1.27s-4.953,3.123-4.407,4.8a1.765,1.765,0,0,0,.117.276C285.116,175.344,287.027,173.378,289.84,172.461Z" transform="translate(-283.947 -170.629)" fill="#ed8203"/>
    <g id="Group_39056" data-name="Group 39056" transform="translate(2.678 1.733)">
      <path id="Path_107055" data-name="Path 107055" d="M293.031,174.4c.085.01.165.02.24.028s.143.017.209.023a.778.778,0,0,0,.176,0,.989.989,0,0,0,.238-.057,1.4,1.4,0,0,0,.24-.119l.578-.348-.12-.367a13.147,13.147,0,0,0-1.311.127l.407-.54-.121-.367a7.49,7.49,0,0,0-.825.53.561.561,0,0,0-.212.153l-.229.306a7.853,7.853,0,0,0-1.165.246,6.409,6.409,0,0,0-.959.359,3.927,3.927,0,0,0-.709.421,3.478,3.478,0,0,0-.623.526s.071.256.121.368a.516.516,0,0,0,.307.261,2.1,2.1,0,0,0,.57.118c.224.019.455.035.687.039l-.787,1.044a2.352,2.352,0,0,1-.379-.037c-.107-.016-.206-.036-.29-.056a2.351,2.351,0,0,0-.242-.046.782.782,0,0,0-.242,0,1.11,1.11,0,0,0-.247.058c-.087.028-1,.125-1.064.164l.118.366a2.566,2.566,0,0,0,.758.2,6.624,6.624,0,0,0,1.062.046l-.55.2.121.365.6-.068a1.047,1.047,0,0,0,.343-.095.556.556,0,0,0,.209-.151l.258-.342a8.438,8.438,0,0,0,1.171-.262,6.426,6.426,0,0,0,.973-.375,3.885,3.885,0,0,0,.731-.457,1.883,1.883,0,0,0,.449-.5.56.56,0,0,0,.093-.3.313.313,0,0,0-.1-.207.656.656,0,0,0-.252-.137,2.573,2.573,0,0,0-.364-.085c-.135-.018-.276-.034-.431-.046s-.306-.016-.462-.022l.742-.981C292.854,174.388,292.947,174.394,293.031,174.4Zm-2.376.568a.586.586,0,0,1,.125-.139A1.261,1.261,0,0,1,291,174.7a2.515,2.515,0,0,1,.324-.121,4.34,4.34,0,0,1,.444-.1l-.635.836a1.184,1.184,0,0,1-.423-.106C290.611,175.158,290.593,175.079,290.655,174.972Zm1.237,1.491a1.626,1.626,0,0,1-1.158.59l.685-.909a1.3,1.3,0,0,1,.423.093C291.935,176.283,291.953,176.357,291.893,176.463Z" transform="translate(-287.279 -172.782)" fill="#d67003"/>
    </g>
    <g id="Group_39057" data-name="Group 39057" transform="translate(2.678 1.733)">
      <path id="Path_107056" data-name="Path 107056" d="M292.912,174.035c.083.012.165.02.236.03s.145.014.21.02a.838.838,0,0,0,.177,0,1.117,1.117,0,0,0,.238-.057,1.272,1.272,0,0,0,.24-.12l.58-.347a2.271,2.271,0,0,0-.547-.177,3.756,3.756,0,0,0-.885-.063l.407-.54-.6.068a1.009,1.009,0,0,0-.339.095.543.543,0,0,0-.211.151l-.232.306a8.149,8.149,0,0,0-1.165.246,6.934,6.934,0,0,0-.959.36,3.783,3.783,0,0,0-.708.423,1.534,1.534,0,0,0-.413.433.523.523,0,0,0-.091.458.532.532,0,0,0,.309.262,2.073,2.073,0,0,0,.568.117c.223.022.455.035.689.04l-.788,1.044a2.622,2.622,0,0,1-.379-.034c-.109-.02-.2-.039-.288-.057s-.169-.038-.246-.05a.892.892,0,0,0-.24,0,1.327,1.327,0,0,0-.25.059,1.263,1.263,0,0,0-.218.1l-.725.435a2.521,2.521,0,0,0,.758.2,6.751,6.751,0,0,0,1.06.046l-.429.568.6-.071a1.028,1.028,0,0,0,.342-.1.578.578,0,0,0,.209-.149l.258-.343a8.683,8.683,0,0,0,1.173-.26,6.5,6.5,0,0,0,.969-.377,3.715,3.715,0,0,0,.733-.458,1.915,1.915,0,0,0,.45-.5.566.566,0,0,0,.093-.3.314.314,0,0,0-.1-.206.65.65,0,0,0-.252-.137,2.233,2.233,0,0,0-.364-.082c-.135-.022-.28-.037-.429-.046s-.308-.019-.466-.024l.744-.981C292.733,174.021,292.826,174.027,292.912,174.035Zm-2.378.572a.537.537,0,0,1,.127-.141,1.115,1.115,0,0,1,.218-.131,2.093,2.093,0,0,1,.322-.123c.127-.037.274-.071.444-.1l-.635.838a1.227,1.227,0,0,1-.423-.107C290.492,174.791,290.472,174.715,290.534,174.607Zm1.237,1.487a1.622,1.622,0,0,1-1.16.591l.689-.909a1.3,1.3,0,0,1,.423.095C291.816,175.915,291.832,175.992,291.772,176.094Z" transform="translate(-287.279 -172.782)" fill="#fcd517"/>
    </g>
    <g id="Group_39058" data-name="Group 39058" transform="translate(2.678 3.147)">
      <path id="Path_107057" data-name="Path 107057" d="M289.272,178.608a1.028,1.028,0,0,0,.342-.1.578.578,0,0,0,.209-.149l.258-.343a8.681,8.681,0,0,0,1.173-.26,6.5,6.5,0,0,0,.969-.377,3.715,3.715,0,0,0,.733-.458c.019-.016.032-.033.048-.046a7.532,7.532,0,0,1-3.3-2.051,2.7,2.7,0,0,0-.351.236,1.534,1.534,0,0,0-.413.433.523.523,0,0,0-.091.458.532.532,0,0,0,.309.262,2.072,2.072,0,0,0,.568.117c.223.022.455.035.689.04l-.788,1.044a2.625,2.625,0,0,1-.379-.034c-.109-.02-.2-.039-.288-.057s-.169-.038-.246-.05a.893.893,0,0,0-.24,0,1.326,1.326,0,0,0-.25.059,1.263,1.263,0,0,0-.218.1l-.725.435a2.521,2.521,0,0,0,.758.2,6.751,6.751,0,0,0,1.06.046l-.429.568Zm2.029-2.2a1.3,1.3,0,0,1,.423.095c.093.044.109.121.048.223a1.622,1.622,0,0,1-1.16.591Z" transform="translate(-287.279 -174.828)" fill="url(#linear-gradient-9)"/>
    </g>
    <g id="Group_39059" data-name="Group 39059" transform="translate(2.678 1.733)">
      <path id="Path_107058" data-name="Path 107058" d="M289.272,179a1.028,1.028,0,0,0,.342-.1.577.577,0,0,0,.209-.149l.258-.343a8.683,8.683,0,0,0,1.173-.26,6.5,6.5,0,0,0,.969-.377,3.715,3.715,0,0,0,.733-.458,1.915,1.915,0,0,0,.45-.5.566.566,0,0,0,.093-.3.314.314,0,0,0-.1-.206.65.65,0,0,0-.252-.137,1.941,1.941,0,0,0-.3-.068,2.19,2.19,0,0,1-1.05.867.165.165,0,0,1-.026.144,1.622,1.622,0,0,1-1.16.591l.244-.323a9.581,9.581,0,0,1-1.2.379l-.032.044-.117-.006a14.526,14.526,0,0,1-1.967.294l-.261.158a2.521,2.521,0,0,0,.758.2,6.753,6.753,0,0,0,1.06.046l-.429.568Z" transform="translate(-287.279 -173.81)" fill="#ffee52"/>
      <path id="Path_107059" data-name="Path 107059" d="M293.776,172.85a1.009,1.009,0,0,0-.339.095.543.543,0,0,0-.211.151l-.232.306a8.149,8.149,0,0,0-1.165.246,6.934,6.934,0,0,0-.959.36,3.783,3.783,0,0,0-.708.423,2.121,2.121,0,0,0-.25.22,5.3,5.3,0,0,1,2-.81,5.923,5.923,0,0,1,3,.015l.493-.294a2.272,2.272,0,0,0-.547-.177,3.756,3.756,0,0,0-.885-.063l.407-.54Z" transform="translate(-288.093 -172.782)" fill="#ffee52"/>
    </g>
    <g id="Group_39060" data-name="Group 39060" transform="translate(2.678 3.147)">
      <path id="Path_107060" data-name="Path 107060" d="M289.7,177.564c.185-.207.531-.737.929-1.259-.339-.171-1.324.093-1.59-.4-.129-.24.24-.705.666-1.08a2.7,2.7,0,0,0-.351.236,1.534,1.534,0,0,0-.413.433.523.523,0,0,0-.091.458.532.532,0,0,0,.309.262,2.072,2.072,0,0,0,.568.117c.223.022.455.035.689.04l-.788,1.044a2.625,2.625,0,0,1-.379-.034c-.109-.02-.2-.039-.288-.057s-.169-.038-.246-.05a.893.893,0,0,0-.24,0,1.326,1.326,0,0,0-.25.059,1.263,1.263,0,0,0-.218.1l-.725.435a2.521,2.521,0,0,0,.758.2,6.751,6.751,0,0,0,1.06.046l-.429.568.218-.026c.046-.048.286-.377.469-.632.057-.077-1.733-.145-1.68-.218a2.124,2.124,0,0,1,.725-.379C288.572,177.4,289.666,177.6,289.7,177.564Z" transform="translate(-287.279 -174.828)" fill="#fff8b8"/>
    </g>
    <path id="Path_107061" data-name="Path 107061" d="M286.444,172.217a13.744,13.744,0,0,1,4.779-1.884,10.554,10.554,0,0,0-2.353.48c-3.734,1.219-6.113,4.2-5.311,6.645C283.559,177.458,282.864,174.615,286.444,172.217Z" transform="translate(-283.404 -170.293)" fill="#f9af19"/>
  </g>
  <g id="Group_39151" data-name="Group 39151" transform="translate(14.807 2.336)">
    <path id="Path_107422" data-name="Path 107422" d="M257.687,189.657A8.573,8.573,0,0,1,252.3,191.5c-6.179-.585-7.143-4.35-7.143-4.35-.034.183,0,1.374,0,1.563,0,2.577,3.184,4.668,7.113,4.668s7.112-2.091,7.112-4.668c0-.178.03-1.392,0-1.563A7.24,7.24,0,0,1,257.687,189.657Z" transform="translate(-245.147 -182.484)" fill="#ed8203"/>
    <g id="Group_39143" data-name="Group 39143" transform="translate(0.422 5.164)">
      <path id="Path_107423" data-name="Path 107423" d="M245.826,188.547c-.012.5-.073.993-.068,1.5,0,.209,0,.421,0,.634a3.971,3.971,0,0,0,.5.732c0-.121.008-.242.006-.367a16.241,16.241,0,0,1-.012-1.906A4.781,4.781,0,0,1,245.826,188.547Z" transform="translate(-245.758 -188.08)" fill="#c66802"/>
      <path id="Path_107424" data-name="Path 107424" d="M253.212,195.1c.244.037.489.066.742.085-.02-.659-.139-1.32-.107-1.973-.2-.032-.383-.073-.572-.113C253.265,193.77,253.234,194.435,253.212,195.1Z" transform="translate(-248.06 -189.487)" fill="#c66802"/>
      <path id="Path_107425" data-name="Path 107425" d="M248.613,192.892c-.006.185-.022.37-.036.556.178.107.365.208.56.3-.014-.73-.026-1.455-.02-2.183-.169-.093-.33-.189-.481-.286C248.636,191.82,248.625,192.356,248.613,192.892Z" transform="translate(-246.628 -188.925)" fill="#c66802"/>
      <path id="Path_107426" data-name="Path 107426" d="M247.59,192.733c.038-.727.106-1.457.1-2.162-.173-.135-.331-.27-.473-.4-.048.608.052,1.225.04,1.841,0,.143-.012.288-.022.435C247.346,192.542,247.465,192.64,247.59,192.733Z" transform="translate(-246.203 -188.58)" fill="#c66802"/>
      <path id="Path_107427" data-name="Path 107427" d="M250.116,192.077q0,1.073.022,2.154c.149.056.3.115.462.167a10.9,10.9,0,0,1,.036-2.1C250.455,192.226,250.283,192.15,250.116,192.077Z" transform="translate(-247.104 -189.17)" fill="#c66802"/>
      <path id="Path_107428" data-name="Path 107428" d="M251.556,194.734c.2.053.4.1.61.145.024-.677.055-1.354.062-2.029-.234-.058-.451-.126-.663-.195A10.712,10.712,0,0,0,251.556,194.734Z" transform="translate(-247.534 -189.348)" fill="#c66802"/>
      <path id="Path_107429" data-name="Path 107429" d="M254.864,193.372a17.649,17.649,0,0,0,.095,1.922c.1,0,.207.01.314.01.129,0,.258-.008.384-.014.015-.619.048-1.243.008-1.86-.125,0-.247,0-.363-.008C255.152,193.408,255.007,193.388,254.864,193.372Z" transform="translate(-248.567 -189.57)" fill="#c66802"/>
      <path id="Path_107430" data-name="Path 107430" d="M260.117,194.427c.212-.068.417-.149.613-.232,0-.107,0-.212,0-.319-.017-.558-.028-1.112-.037-1.669-.2.1-.411.186-.623.266C260.079,193.127,260.1,193.778,260.117,194.427Z" transform="translate(-250.178 -189.21)" fill="#c66802"/>
      <path id="Path_107431" data-name="Path 107431" d="M262.293,193.382c.008-.2.017-.405.019-.612.006-.476-.026-.951-.037-1.427-.176.115-.361.223-.554.335.008.645.035,1.287.043,1.932,0,.026,0,.053,0,.077C261.947,193.591,262.122,193.486,262.293,193.382Z" transform="translate(-250.688 -188.943)" fill="#c66802"/>
      <path id="Path_107432" data-name="Path 107432" d="M263.84,192.11c.008-.422.021-.843,0-1.261q-.018-.439-.012-.871a4.649,4.649,0,0,1-.542.552l-.006,0c-.008.526.044,1.05.038,1.578,0,.161-.01.32-.018.481A5.635,5.635,0,0,0,263.84,192.11Z" transform="translate(-251.169 -188.522)" fill="#c66802"/>
      <path id="Path_107433" data-name="Path 107433" d="M264.856,190.492c0,.105,0,.21,0,.317a3.952,3.952,0,0,0,.419-.83c-.035-.7-.064-1.413-.042-2.107-.085.167-.187.366-.312.578A8.851,8.851,0,0,0,264.856,190.492Z" transform="translate(-251.648 -187.871)" fill="#c66802"/>
      <path id="Path_107434" data-name="Path 107434" d="M258.512,194.926c.2-.041.388-.087.58-.139-.022-.641-.036-1.282-.048-1.923-.207.069-.415.131-.623.184C258.438,193.674,258.482,194.3,258.512,194.926Z" transform="translate(-249.668 -189.413)" fill="#c66802"/>
      <path id="Path_107435" data-name="Path 107435" d="M257.48,195.153c-.026-.619-.071-1.237-.089-1.854-.211.038-.417.066-.621.086.043.619,0,1.237-.014,1.854C257,195.219,257.242,195.191,257.48,195.153Z" transform="translate(-249.155 -189.547)" fill="#c66802"/>
    </g>
    <path id="Path_107436" data-name="Path 107436" d="M252.728,194.16c.048-.628.086-1.255.1-1.881h-.046c-3.308-.312-5.122-1.54-6.091-2.61a23.444,23.444,0,0,1,.1,2.368A8.487,8.487,0,0,0,252.728,194.16Z" transform="translate(-245.624 -183.262)" fill="#ffee52" opacity="0.25"/>
    <path id="Path_107437" data-name="Path 107437" d="M251.543,194.49c.05-.665.064-1.332.062-2a9.255,9.255,0,0,1-3.163-1.286c-.02.705-.072,1.412-.113,2.118A8.64,8.64,0,0,0,251.543,194.49Z" transform="translate(-246.13 -183.736)" fill="#ffee52" opacity="0.28"/>
    <g id="Group_39144" data-name="Group 39144" transform="translate(2.199 7.47)">
      <path id="Path_107438" data-name="Path 107438" d="M249.99,194.142c-.01-.707-.014-1.414-.016-2.121-.234-.1-.455-.212-.663-.323.036.715.008,1.435,0,2.148C249.527,193.953,249.754,194.054,249.99,194.142Z" transform="translate(-248.632 -191.358)" fill="#ffee52" opacity="0.35"/>
      <path id="Path_107439" data-name="Path 107439" d="M248.329,193.324c.05.034.113.058.167.093.012-.733.024-1.465-.034-2.2,0-.006-.015-.008-.021-.012C248.422,191.911,248.37,192.618,248.329,193.324Z" transform="translate(-248.329 -191.206)" fill="#ffee52" opacity="0.35"/>
      <path id="Path_107440" data-name="Path 107440" d="M251.043,194.556c.1.032.2.057.306.088-.024-.693-.028-1.384-.024-2.075-.1-.035-.2-.066-.3-.1C251.032,193.166,251.037,193.863,251.043,194.556Z" transform="translate(-249.163 -191.597)" fill="#ffee52" opacity="0.35"/>
      <path id="Path_107441" data-name="Path 107441" d="M252.928,195.043c.05-.665.064-1.332.062-2-.062-.014-.117-.032-.177-.047,0,.675.014,1.351.02,2.025C252.867,195.029,252.9,195.038,252.928,195.043Z" transform="translate(-249.714 -191.759)" fill="#ffee52" opacity="0.35"/>
    </g>
    <path id="Path_107442" data-name="Path 107442" d="M258.815,191.947c.022.637.026,1.271.022,1.908a7.161,7.161,0,0,0,3.833-2.105c0-.744.008-1.487.016-2.222a4.758,4.758,0,0,1-.778.864A8.874,8.874,0,0,1,258.815,191.947Z" transform="translate(-249.368 -183.218)" fill="#7a4103" opacity="0.32"/>
    <path id="Path_107443" data-name="Path 107443" d="M260.485,193.839a7.373,7.373,0,0,0,1.868-.993,20.772,20.772,0,0,1,.191-2.241c-.041.037-.077.081-.121.119a7.882,7.882,0,0,1-1.92,1.133C260.5,192.517,260.489,193.178,260.485,193.839Z" transform="translate(-249.884 -183.551)" fill="#7a4103" opacity="0.32"/>
    <path id="Path_107444" data-name="Path 107444" d="M262.255,189.657a8.422,8.422,0,0,1-2.315,1.3c0,.646.048,1.289.063,1.938,2.341-.766,3.953-2.343,3.953-4.177,0-.178.03-1.392,0-1.563A7.239,7.239,0,0,1,262.255,189.657Z" transform="translate(-249.716 -182.484)" fill="#7a4103" opacity="0.32"/>
    <path id="Path_107445" data-name="Path 107445" d="M245.169,185.066c0,2.577,3.184,4.666,7.113,4.666s7.112-2.089,7.112-4.666-3.186-4.667-7.112-4.667S245.169,182.488,245.169,185.066Z" transform="translate(-245.154 -180.399)" fill="#fcd517"/>
    <path id="Path_107446" data-name="Path 107446" d="M261.064,185.329a19.5,19.5,0,0,1,1.114,2.23,3.561,3.561,0,0,0,1.062-2.442c0-2.241-2.412-4.1-5.617-4.552A34.758,34.758,0,0,1,261.064,185.329Z" transform="translate(-249 -180.45)" fill="#ffbc00"/>
    <path id="Path_107447" data-name="Path 107447" d="M254.142,180.441a33.47,33.47,0,0,1,3.081,2.448c-.586-.824-1.185-1.64-1.755-2.478-.137-.006-.274-.012-.415-.012C254.745,180.4,254.44,180.417,254.142,180.441Z" transform="translate(-247.925 -180.399)" fill="#ffbc00"/>
    <path id="Path_107448" data-name="Path 107448" d="M251.113,184.263a8.946,8.946,0,0,1-1.493-3.371c-2.609.689-4.451,2.365-4.451,4.326,0,2.577,3.184,4.666,7.113,4.666a9.685,9.685,0,0,0,4.368-.989c-.2-.1-.389-.194-.581-.3A13.341,13.341,0,0,1,251.113,184.263Z" transform="translate(-245.154 -180.551)" fill="#fff7ab" opacity="0.54"/>
    <path id="Path_107449" data-name="Path 107449" d="M246.2,183.653a3.544,3.544,0,0,0-1.034,2.418c0,2.577,3.184,4.666,7.113,4.666.32,0,.634-.018.945-.046a18.952,18.952,0,0,1-3.718-2.319A9.946,9.946,0,0,1,246.2,183.653Z" transform="translate(-245.154 -181.404)" fill="#fff7ab" opacity="0.54"/>
    <path id="Path_107450" data-name="Path 107450" d="M252.582,184.263a8.946,8.946,0,0,1-1.493-3.371,8.78,8.78,0,0,0-1.165.405c.149,2.98,2.407,5.216,5.055,6.621a24.036,24.036,0,0,0,2.684,1.187c.155-.066.308-.137.455-.209-.2-.1-.389-.194-.581-.3A13.341,13.341,0,0,1,252.582,184.263Z" transform="translate(-246.622 -180.551)" fill="#fff7ab" opacity="0.54"/>
    <g id="Group_39145" data-name="Group 39145" transform="translate(0.074 5.237)">
      <path id="Path_107451" data-name="Path 107451" d="M245.254,187.976c.431,2.307,3.421,4.1,7.054,4.1,2.969,0,5.509-1.194,6.574-2.891a7.753,7.753,0,0,1-6.3,2.5C247,191.437,245.594,188.762,245.254,187.976Z" transform="translate(-245.254 -187.976)" fill="#ffffd7"/>
    </g>
    <path id="Path_107452" data-name="Path 107452" d="M247.245,184.731c0,1.762,2.541,3.193,5.678,3.193s5.676-1.431,5.676-3.193-2.543-3.192-5.676-3.192S247.245,182.97,247.245,184.731Z" transform="translate(-245.795 -180.751)" fill="url(#linear-gradient-10)"/>
    <path id="Path_107453" data-name="Path 107453" d="M250.426,182.014c-1.882.522-3.181,1.6-3.181,2.864,0,1.763,2.541,3.193,5.678,3.193a9.722,9.722,0,0,0,2.121-.234c-.155-.1-.312-.2-.459-.308A11.8,11.8,0,0,1,250.426,182.014Z" transform="translate(-245.795 -180.898)" fill="url(#linear-gradient-11)"/>
    <path id="Path_107454" data-name="Path 107454" d="M247.245,184.731a1.749,1.749,0,0,0,.026.3c.264-1.624,2.691-2.9,5.652-2.9s5.388,1.274,5.65,2.9a1.824,1.824,0,0,0,.026-.3c0-1.761-2.543-3.192-5.676-3.192S247.245,182.97,247.245,184.731Z" transform="translate(-245.795 -180.751)" fill="#ed8203"/>
    <g id="Group_39146" data-name="Group 39146" transform="translate(2.717 2.237)">
      <path id="Path_107455" data-name="Path 107455" d="M255.425,185.011c.079.039.153.073.218.1s.133.06.191.084a.81.81,0,0,0,.167.055,1.184,1.184,0,0,0,.246.022,1.424,1.424,0,0,0,.265-.042l.655-.149V184.7c-.2-.117-.939-.183-1.284-.288l.556-.388v-.385a7.572,7.572,0,0,0-.949.248.537.537,0,0,0-.247.08l-.314.218a8.265,8.265,0,0,0-1.185-.127,6.847,6.847,0,0,0-1.024.043,3.927,3.927,0,0,0-.8.181,3.339,3.339,0,0,0-.755.306,3.8,3.8,0,0,0,0,.387.524.524,0,0,0,.212.344,2.136,2.136,0,0,0,.5.288q.317.133.642.254l-1.071.744a3.305,3.305,0,0,1-.351-.149c-.093-.05-.179-.1-.256-.145s-.149-.086-.216-.12a.976.976,0,0,0-.229-.079,1.133,1.133,0,0,0-.254-.022c-.089,0-.993-.189-1.062-.176v.387a2.532,2.532,0,0,0,.659.427,6.373,6.373,0,0,0,.993.373l-.585.02v.387l.6.123a1.154,1.154,0,0,0,.353.014.523.523,0,0,0,.248-.08l.353-.244a8.288,8.288,0,0,0,1.193.117,6.073,6.073,0,0,0,1.042-.057,3.836,3.836,0,0,0,.838-.205,1.831,1.831,0,0,0,.582-.339.55.55,0,0,0,.18-.252.3.3,0,0,0-.03-.229.686.686,0,0,0-.2-.21,2.285,2.285,0,0,0-.318-.189c-.123-.062-.254-.12-.4-.179s-.284-.113-.431-.167l1.009-.7C255.26,184.943,255.346,184.977,255.425,185.011Zm-1.72,1.6a1.629,1.629,0,0,1-1.286.2l.932-.652a1.347,1.347,0,0,1,.375.223C253.8,186.46,253.8,186.537,253.7,186.615Zm-.369-1.326a1.284,1.284,0,0,1-.368-.234c-.075-.078-.068-.157.022-.24a.617.617,0,0,1,.161-.093,1.1,1.1,0,0,1,.25-.058,2.493,2.493,0,0,1,.347-.015,4.271,4.271,0,0,1,.453.041Z" transform="translate(-249.078 -183.635)" fill="#d67003"/>
    </g>
    <g id="Group_39147" data-name="Group 39147" transform="translate(2.717 2.093)">
      <path id="Path_107456" data-name="Path 107456" d="M255.425,184.562c.079.035.153.071.218.1s.133.059.191.086a1.067,1.067,0,0,0,.167.053,1.017,1.017,0,0,0,.246.02,1.338,1.338,0,0,0,.265-.038l.655-.149a2.149,2.149,0,0,0-.464-.342,4.326,4.326,0,0,0-.82-.335l.556-.385-.6-.125a1.152,1.152,0,0,0-.353-.012.493.493,0,0,0-.247.08l-.314.218a7.71,7.71,0,0,0-1.185-.127,6.585,6.585,0,0,0-1.024.043,3.935,3.935,0,0,0-.8.179,1.633,1.633,0,0,0-.528.288c-.165.149-.24.284-.227.405a.517.517,0,0,0,.212.345,2.16,2.16,0,0,0,.5.29c.211.087.425.173.642.25l-1.071.747a3.436,3.436,0,0,1-.351-.151c-.093-.053-.179-.1-.256-.145s-.149-.085-.216-.121a.976.976,0,0,0-.229-.079,1.27,1.27,0,0,0-.254-.022,1.169,1.169,0,0,0-.236.026l-.827.185a2.48,2.48,0,0,0,.659.427,6.373,6.373,0,0,0,.993.373l-.585.407.6.123a1.113,1.113,0,0,0,.353.015.557.557,0,0,0,.248-.079l.353-.246a7.913,7.913,0,0,0,1.193.117,6.086,6.086,0,0,0,1.042-.054,3.717,3.717,0,0,0,.838-.208,1.924,1.924,0,0,0,.582-.336.585.585,0,0,0,.18-.252.3.3,0,0,0-.03-.229.663.663,0,0,0-.2-.209,2.59,2.59,0,0,0-.318-.194c-.123-.059-.254-.119-.4-.176s-.284-.113-.431-.167l1.009-.7A2.686,2.686,0,0,1,255.425,184.562Zm-1.72,1.6a1.638,1.638,0,0,1-1.286.2l.932-.65a1.3,1.3,0,0,1,.375.22C253.8,186.007,253.8,186.083,253.7,186.166Zm-.369-1.328a1.214,1.214,0,0,1-.368-.234c-.075-.078-.068-.157.022-.239a.638.638,0,0,1,.161-.095,1.144,1.144,0,0,1,.25-.055,2.3,2.3,0,0,1,.347-.015,4.207,4.207,0,0,1,.453.039Z" transform="translate(-249.078 -183.428)" fill="#fcd517"/>
    </g>
    <g id="Group_39148" data-name="Group 39148" transform="translate(2.717 2.384)">
      <path id="Path_107457" data-name="Path 107457" d="M250.742,187.307a1.113,1.113,0,0,0,.353.015.557.557,0,0,0,.248-.079L251.7,187a7.913,7.913,0,0,0,1.193.117,6.086,6.086,0,0,0,1.042-.054,3.717,3.717,0,0,0,.838-.208c.022-.008.038-.018.06-.028a7.5,7.5,0,0,1-2.5-2.976,3.754,3.754,0,0,0-.407.111,1.633,1.633,0,0,0-.528.288c-.165.149-.24.284-.227.405a.517.517,0,0,0,.212.345,2.16,2.16,0,0,0,.5.29c.211.087.425.173.642.25l-1.071.747a3.436,3.436,0,0,1-.351-.151c-.093-.053-.179-.1-.256-.145s-.149-.085-.216-.121a.976.976,0,0,0-.229-.079,1.27,1.27,0,0,0-.254-.022,1.169,1.169,0,0,0-.236.026l-.827.185a2.48,2.48,0,0,0,.659.427,6.373,6.373,0,0,0,.993.373l-.585.407Zm2.609-1.46a1.3,1.3,0,0,1,.375.22c.075.07.068.147-.022.229a1.638,1.638,0,0,1-1.286.2Z" transform="translate(-249.078 -183.848)" fill="url(#linear-gradient-12)"/>
    </g>
    <g id="Group_39149" data-name="Group 39149" transform="translate(2.717 2.093)">
      <path id="Path_107458" data-name="Path 107458" d="M250.742,188.119a1.113,1.113,0,0,0,.353.015.557.557,0,0,0,.248-.079l.353-.246a7.913,7.913,0,0,0,1.193.117,6.086,6.086,0,0,0,1.042-.054,3.717,3.717,0,0,0,.838-.208,1.924,1.924,0,0,0,.582-.336.585.585,0,0,0,.18-.252.3.3,0,0,0-.03-.229.663.663,0,0,0-.2-.209,2.57,2.57,0,0,0-.262-.16,2.188,2.188,0,0,1-1.265.5.17.17,0,0,1-.07.131,1.638,1.638,0,0,1-1.286.2l.33-.229a10.568,10.568,0,0,1-1.259-.014l-.044.03a1.077,1.077,0,0,1-.107-.044,13.619,13.619,0,0,1-1.96-.328l-.3.066a2.48,2.48,0,0,0,.659.427,6.373,6.373,0,0,0,.993.373l-.585.407Z" transform="translate(-249.078 -184.369)" fill="#ffee52"/>
      <path id="Path_107459" data-name="Path 107459" d="M256.976,183.448a1.152,1.152,0,0,0-.353-.012.493.493,0,0,0-.247.08l-.314.218a7.711,7.711,0,0,0-1.185-.127,6.585,6.585,0,0,0-1.024.043,3.935,3.935,0,0,0-.8.179,2.127,2.127,0,0,0-.306.133,5.363,5.363,0,0,1,2.154-.147,5.9,5.9,0,0,1,2.845.947l.558-.127a2.148,2.148,0,0,0-.464-.342,4.325,4.325,0,0,0-.82-.335l.556-.385Z" transform="translate(-250.21 -183.428)" fill="#ffee52"/>
    </g>
    <g id="Group_39150" data-name="Group 39150" transform="translate(2.717 2.384)">
      <path id="Path_107460" data-name="Path 107460" d="M250.279,185.911c.175.033,1.152.558,1.191.536.243-.141.735-.536,1.275-.908-.268-.266-1.29-.327-1.389-.873-.048-.265.45-.6.968-.818a3.754,3.754,0,0,0-.407.111,1.633,1.633,0,0,0-.528.288c-.165.149-.24.284-.227.405a.517.517,0,0,0,.212.345,2.16,2.16,0,0,0,.5.29c.211.087.425.173.642.25l-1.071.747a3.436,3.436,0,0,1-.351-.151c-.093-.053-.179-.1-.256-.145s-.149-.085-.216-.121a.976.976,0,0,0-.229-.079,1.27,1.27,0,0,0-.254-.022,1.169,1.169,0,0,0-.236.026l-.827.185a2.48,2.48,0,0,0,.659.427,6.373,6.373,0,0,0,.993.373l-.585.407.212.044c.062-.034.388-.27.644-.455.081-.055-1.6-.677-1.527-.73A2.044,2.044,0,0,1,250.279,185.911Z" transform="translate(-249.078 -183.848)" fill="#fff8b8"/>
    </g>
    <path id="Path_107461" data-name="Path 107461" d="M245.169,185.066s.224-2.917,4.37-4.088a13.8,13.8,0,0,1,5.128-.3,10.417,10.417,0,0,0-2.385-.274C248.353,180.4,245.169,182.488,245.169,185.066Z" transform="translate(-245.154 -180.399)" fill="#f9af19"/>
  </g>
  <g id="Group_39178" data-name="Group 39178" transform="translate(5.384)">
    <path id="Path_107542" data-name="Path 107542" d="M208.586,198.277a8.55,8.55,0,0,1-5.386,1.844c-6.18-.585-7.141-4.35-7.141-4.35-.034.187,0,1.374,0,1.568,0,2.575,3.184,4.666,7.111,4.666s7.114-2.091,7.114-4.666c0-.182.026-1.394,0-1.568A7.267,7.267,0,0,1,208.586,198.277Z" transform="translate(-196.044 -191.104)" fill="#ed8203"/>
    <g id="Group_39170" data-name="Group 39170" transform="translate(0.42 5.167)">
      <path id="Path_107543" data-name="Path 107543" d="M196.721,197.17c-.01.5-.075.993-.069,1.5,0,.207,0,.423,0,.632a4.042,4.042,0,0,0,.5.735c0-.122.008-.243.006-.368a16.279,16.279,0,0,1-.012-1.908A5.239,5.239,0,0,1,196.721,197.17Z" transform="translate(-196.651 -196.703)" fill="#c66802"/>
      <path id="Path_107544" data-name="Path 107544" d="M204.106,203.726c.244.037.49.065.742.085-.02-.659-.137-1.32-.106-1.973-.2-.035-.383-.075-.572-.115C204.156,202.392,204.128,203.059,204.106,203.726Z" transform="translate(-198.954 -198.109)" fill="#c66802"/>
      <path id="Path_107545" data-name="Path 107545" d="M199.506,201.515c0,.185-.018.37-.035.556q.266.161.561.3c-.015-.728-.026-1.453-.02-2.181-.171-.093-.331-.189-.48-.288C199.534,200.443,199.521,200.978,199.506,201.515Z" transform="translate(-197.522 -197.547)" fill="#c66802"/>
      <path id="Path_107546" data-name="Path 107546" d="M198.484,201.354c.038-.726.106-1.457.1-2.164-.173-.135-.328-.27-.473-.405-.048.614.055,1.225.038,1.848,0,.141-.008.284-.02.431C198.238,201.163,198.359,201.261,198.484,201.354Z" transform="translate(-197.097 -197.202)" fill="#c66802"/>
      <path id="Path_107547" data-name="Path 107547" d="M201.01,200.7c0,.717.008,1.437.023,2.154.151.058.306.115.465.167a10.371,10.371,0,0,1,.034-2.1C201.347,200.846,201.175,200.772,201.01,200.7Z" transform="translate(-197.998 -197.792)" fill="#c66802"/>
      <path id="Path_107548" data-name="Path 107548" d="M202.451,203.357c.2.053.4.1.612.143.022-.675.053-1.352.061-2.029-.232-.058-.449-.124-.663-.193A10.825,10.825,0,0,0,202.451,203.357Z" transform="translate(-198.429 -197.971)" fill="#c66802"/>
      <path id="Path_107549" data-name="Path 107549" d="M205.758,202a18.134,18.134,0,0,0,.093,1.918c.109,0,.212.012.317.012.131,0,.258-.01.385-.014.014-.619.048-1.241.008-1.86-.121,0-.247,0-.362-.01C206.048,202.032,205.9,202.014,205.758,202Z" transform="translate(-199.461 -198.194)" fill="#c66802"/>
      <path id="Path_107550" data-name="Path 107550" d="M211.012,203.048c.214-.066.415-.147.614-.229,0-.109,0-.214,0-.319-.018-.558-.028-1.114-.035-1.668-.205.095-.415.183-.626.265C210.974,201.751,210.994,202.4,211.012,203.048Z" transform="translate(-201.072 -197.834)" fill="#c66802"/>
      <path id="Path_107551" data-name="Path 107551" d="M213.188,202c.01-.2.016-.405.018-.612.008-.476-.026-.953-.037-1.427-.175.113-.36.223-.554.332.008.643.036,1.29.042,1.934,0,.026,0,.053,0,.075C212.841,202.214,213.017,202.109,213.188,202Z" transform="translate(-201.582 -197.566)" fill="#c66802"/>
      <path id="Path_107552" data-name="Path 107552" d="M214.737,200.733c.006-.423.018-.84,0-1.261-.012-.294-.021-.585-.012-.872a4.384,4.384,0,0,1-.54.552s-.006,0-.01,0c-.006.526.044,1.05.039,1.58,0,.157-.008.32-.019.479A5.382,5.382,0,0,0,214.737,200.733Z" transform="translate(-202.063 -197.144)" fill="#c66802"/>
      <path id="Path_107553" data-name="Path 107553" d="M215.75,199.114c0,.1,0,.211,0,.316a3.552,3.552,0,0,0,.417-.828c-.03-.7-.06-1.411-.04-2.107-.083.169-.187.366-.314.578A9.112,9.112,0,0,0,215.75,199.114Z" transform="translate(-202.542 -196.494)" fill="#c66802"/>
      <path id="Path_107554" data-name="Path 107554" d="M209.407,203.55c.2-.041.391-.089.578-.14-.021-.641-.032-1.281-.047-1.92-.205.067-.413.129-.622.182C209.332,202.3,209.376,202.923,209.407,203.55Z" transform="translate(-200.563 -198.037)" fill="#c66802"/>
      <path id="Path_107555" data-name="Path 107555" d="M208.377,203.774c-.028-.617-.07-1.235-.093-1.858a5.685,5.685,0,0,1-.617.088c.041.619,0,1.237-.016,1.856C207.9,203.84,208.137,203.81,208.377,203.774Z" transform="translate(-200.048 -198.168)" fill="#c66802"/>
    </g>
    <path id="Path_107556" data-name="Path 107556" d="M203.624,202.783c.046-.628.084-1.253.1-1.881-.015,0-.032,0-.046,0-3.309-.31-5.124-1.536-6.091-2.608.05.79.129,1.58.1,2.366A8.512,8.512,0,0,0,203.624,202.783Z" transform="translate(-196.52 -191.883)" fill="#ffee52" opacity="0.25"/>
    <path id="Path_107557" data-name="Path 107557" d="M202.437,203.113c.053-.667.066-1.334.064-2a9.324,9.324,0,0,1-3.165-1.286c-.02.7-.07,1.41-.113,2.119A8.741,8.741,0,0,0,202.437,203.113Z" transform="translate(-197.026 -192.357)" fill="#ffee52" opacity="0.28"/>
    <g id="Group_39171" data-name="Group 39171" transform="translate(2.198 7.472)">
      <path id="Path_107558" data-name="Path 107558" d="M200.883,202.766q-.011-1.062-.016-2.122c-.236-.1-.455-.212-.663-.323.036.715.008,1.433,0,2.148Q200.53,202.629,200.883,202.766Z" transform="translate(-199.525 -199.981)" fill="#ffee52" opacity="0.35"/>
      <path id="Path_107559" data-name="Path 107559" d="M199.224,201.948c.052.03.113.059.167.091.015-.734.025-1.467-.034-2.2,0,0-.015-.008-.02-.012C199.317,200.534,199.266,201.239,199.224,201.948Z" transform="translate(-199.224 -199.829)" fill="#ffee52" opacity="0.35"/>
      <path id="Path_107560" data-name="Path 107560" d="M201.939,203.181c.1.028.2.055.3.083-.026-.691-.028-1.38-.026-2.074-.1-.032-.2-.062-.294-.1C201.927,201.791,201.931,202.484,201.939,203.181Z" transform="translate(-200.058 -200.22)" fill="#ffee52" opacity="0.35"/>
      <path id="Path_107561" data-name="Path 107561" d="M203.823,203.667c.053-.667.066-1.334.064-2-.064-.015-.119-.032-.177-.046,0,.675.01,1.352.022,2.027C203.763,203.653,203.79,203.661,203.823,203.667Z" transform="translate(-200.609 -200.383)" fill="#ffee52" opacity="0.35"/>
    </g>
    <path id="Path_107562" data-name="Path 107562" d="M209.709,200.57c.022.634.028,1.271.022,1.908a7.155,7.155,0,0,0,3.833-2.107c0-.745.01-1.485.018-2.22a4.759,4.759,0,0,1-.775.862A8.9,8.9,0,0,1,209.709,200.57Z" transform="translate(-200.264 -191.839)" fill="#7a4103" opacity="0.32"/>
    <path id="Path_107563" data-name="Path 107563" d="M211.38,202.462a7.534,7.534,0,0,0,1.87-.993,20.165,20.165,0,0,1,.191-2.241c-.041.037-.079.081-.119.117a7.842,7.842,0,0,1-1.926,1.134C211.39,201.143,211.382,201.8,211.38,202.462Z" transform="translate(-200.78 -192.172)" fill="#7a4103" opacity="0.32"/>
    <path id="Path_107564" data-name="Path 107564" d="M213.154,198.277a8.465,8.465,0,0,1-2.319,1.3c0,.643.05,1.289.064,1.936,2.341-.762,3.953-2.341,3.953-4.173,0-.182.026-1.394,0-1.568A7.267,7.267,0,0,1,213.154,198.277Z" transform="translate(-200.612 -191.104)" fill="#7a4103" opacity="0.32"/>
    <path id="Path_107565" data-name="Path 107565" d="M196.066,193.686c0,2.577,3.184,4.666,7.111,4.666s7.114-2.089,7.114-4.666-3.187-4.667-7.114-4.667S196.066,191.108,196.066,193.686Z" transform="translate(-196.051 -189.019)" fill="#fcd517"/>
    <path id="Path_107566" data-name="Path 107566" d="M211.958,193.951a19.446,19.446,0,0,1,1.114,2.23,3.559,3.559,0,0,0,1.064-2.444c0-2.239-2.412-4.1-5.619-4.552A34.606,34.606,0,0,1,211.958,193.951Z" transform="translate(-199.896 -189.07)" fill="#ffbc00"/>
    <path id="Path_107567" data-name="Path 107567" d="M205.036,189.064a31.937,31.937,0,0,1,3.081,2.45c-.587-.824-1.183-1.642-1.754-2.48-.139,0-.276-.015-.417-.015C205.639,189.019,205.337,189.038,205.036,189.064Z" transform="translate(-198.821 -189.019)" fill="#ffbc00"/>
    <path id="Path_107568" data-name="Path 107568" d="M202.008,192.888a9.01,9.01,0,0,1-1.491-3.373c-2.611.689-4.451,2.365-4.451,4.324,0,2.577,3.184,4.666,7.111,4.666a9.651,9.651,0,0,0,4.368-.987c-.2-.1-.389-.194-.579-.294A13.384,13.384,0,0,1,202.008,192.888Z" transform="translate(-196.051 -189.172)" fill="#fff7ab" opacity="0.54"/>
    <path id="Path_107569" data-name="Path 107569" d="M197.1,192.276a3.544,3.544,0,0,0-1.032,2.416c0,2.577,3.184,4.666,7.111,4.666.32,0,.637-.016.945-.044a19.221,19.221,0,0,1-3.719-2.319A9.978,9.978,0,0,1,197.1,192.276Z" transform="translate(-196.051 -190.025)" fill="#fff7ab" opacity="0.54"/>
    <path id="Path_107570" data-name="Path 107570" d="M203.475,192.888a9.01,9.01,0,0,1-1.491-3.373,8.949,8.949,0,0,0-1.169.405c.151,2.978,2.412,5.216,5.057,6.623a24.136,24.136,0,0,0,2.686,1.185c.153-.066.306-.137.453-.209-.2-.1-.389-.194-.579-.294A13.384,13.384,0,0,1,203.475,192.888Z" transform="translate(-197.518 -189.172)" fill="#fff7ab" opacity="0.54"/>
    <g id="Group_39172" data-name="Group 39172" transform="translate(0.072 5.239)">
      <path id="Path_107571" data-name="Path 107571" d="M196.148,196.6c.429,2.305,3.421,4.094,7.054,4.094,2.97,0,5.509-1.192,6.574-2.889a7.752,7.752,0,0,1-6.295,2.5C197.9,200.06,196.489,197.385,196.148,196.6Z" transform="translate(-196.148 -196.599)" fill="#ffffd7"/>
    </g>
    <path id="Path_107572" data-name="Path 107572" d="M198.142,193.354c0,1.761,2.541,3.191,5.676,3.191s5.676-1.43,5.676-3.191-2.541-3.192-5.676-3.192S198.142,191.593,198.142,193.354Z" transform="translate(-196.692 -189.372)" fill="url(#linear-gradient-13)"/>
    <path id="Path_107573" data-name="Path 107573" d="M201.321,190.637c-1.88.52-3.179,1.606-3.179,2.864,0,1.761,2.541,3.191,5.676,3.191a9.76,9.76,0,0,0,2.123-.232c-.157-.1-.314-.2-.461-.308A11.779,11.779,0,0,1,201.321,190.637Z" transform="translate(-196.692 -189.519)" fill="url(#linear-gradient-14)"/>
    <path id="Path_107574" data-name="Path 107574" d="M198.142,193.354a2.091,2.091,0,0,0,.024.3c.264-1.626,2.694-2.9,5.652-2.9s5.386,1.272,5.65,2.9a1.826,1.826,0,0,0,.026-.3c0-1.761-2.541-3.192-5.676-3.192S198.142,191.593,198.142,193.354Z" transform="translate(-196.692 -189.372)" fill="#ed8203"/>
    <g id="Group_39173" data-name="Group 39173" transform="translate(2.718 2.239)">
      <path id="Path_107575" data-name="Path 107575" d="M206.32,193.636c.079.035.151.066.22.1s.131.06.191.084a.923.923,0,0,0,.167.055,1.035,1.035,0,0,0,.246.02,1.617,1.617,0,0,0,.264-.04l.657-.151v-.385c-.2-.117-.939-.183-1.286-.288l.556-.384v-.387a6.972,6.972,0,0,0-.949.25.523.523,0,0,0-.248.08l-.314.216a7.97,7.97,0,0,0-1.185-.127,6.625,6.625,0,0,0-1.022.044,3.834,3.834,0,0,0-.806.18,3.249,3.249,0,0,0-.753.308,2.808,2.808,0,0,0,0,.385.505.505,0,0,0,.211.344,2.2,2.2,0,0,0,.5.29c.205.086.421.171.641.25l-1.072.746a2.385,2.385,0,0,1-.35-.151c-.1-.05-.182-.1-.256-.143s-.149-.084-.217-.122a1.126,1.126,0,0,0-.226-.079,1.318,1.318,0,0,0-.256-.02c-.091,0-.993-.191-1.062-.178v.389a2.465,2.465,0,0,0,.657.427,6.711,6.711,0,0,0,.993.373l-.582.02v.385l.6.125a1.036,1.036,0,0,0,.353.012.523.523,0,0,0,.245-.078l.35-.244a8.057,8.057,0,0,0,1.2.115,6.021,6.021,0,0,0,1.044-.055,3.776,3.776,0,0,0,.838-.207,1.949,1.949,0,0,0,.582-.335.59.59,0,0,0,.18-.254.3.3,0,0,0-.033-.229.644.644,0,0,0-.2-.208,2.2,2.2,0,0,0-.32-.191c-.123-.064-.254-.122-.395-.179s-.286-.111-.433-.167l1.009-.7C206.157,193.566,206.242,193.6,206.32,193.636Zm-1.72,1.6a1.613,1.613,0,0,1-1.288.2l.935-.648a1.281,1.281,0,0,1,.373.219C204.7,195.083,204.69,195.157,204.6,195.238Zm-.369-1.328a1.239,1.239,0,0,1-.37-.232c-.073-.078-.064-.159.028-.24a.541.541,0,0,1,.159-.093,1.193,1.193,0,0,1,.248-.058,2.22,2.22,0,0,1,.346-.014c.131,0,.282.019.453.039Z" transform="translate(-199.976 -192.258)" fill="#d67003"/>
    </g>
    <g id="Group_39174" data-name="Group 39174" transform="translate(2.718 2.094)">
      <path id="Path_107576" data-name="Path 107576" d="M206.32,193.183l.22.1c.066.032.131.059.191.086a.943.943,0,0,0,.167.05,1,1,0,0,0,.246.022,1.544,1.544,0,0,0,.264-.04l.657-.149a2.4,2.4,0,0,0-.466-.338,3.736,3.736,0,0,0-.82-.335l.556-.387-.6-.123a1,1,0,0,0-.353-.014.525.525,0,0,0-.248.078l-.314.218a7.6,7.6,0,0,0-1.185-.124,6.229,6.229,0,0,0-1.022.042,3.836,3.836,0,0,0-.806.179,1.649,1.649,0,0,0-.526.286c-.167.149-.244.286-.227.409a.507.507,0,0,0,.211.343,2.079,2.079,0,0,0,.5.29c.205.089.421.171.641.25l-1.072.747a2.942,2.942,0,0,1-.35-.151c-.1-.053-.182-.1-.256-.145s-.149-.085-.217-.121a.839.839,0,0,0-.226-.079,1.177,1.177,0,0,0-.256-.02,1.163,1.163,0,0,0-.236.022l-.826.185a2.413,2.413,0,0,0,.657.429,6.946,6.946,0,0,0,.993.375l-.582.405.6.123a1.116,1.116,0,0,0,.353.017.554.554,0,0,0,.245-.081l.35-.246a8.559,8.559,0,0,0,1.2.117,6.313,6.313,0,0,0,1.044-.054,3.9,3.9,0,0,0,.838-.208,1.883,1.883,0,0,0,.582-.338.561.561,0,0,0,.18-.254.3.3,0,0,0-.033-.227.657.657,0,0,0-.2-.207,2.261,2.261,0,0,0-.32-.191c-.123-.063-.254-.121-.395-.18s-.286-.111-.433-.165l1.009-.7C206.157,193.114,206.242,193.151,206.32,193.183Zm-1.72,1.606a1.63,1.63,0,0,1-1.288.2l.935-.648a1.222,1.222,0,0,1,.373.219C204.7,194.631,204.69,194.708,204.6,194.789Zm-.369-1.328a1.3,1.3,0,0,1-.37-.234c-.073-.077-.064-.158.028-.24a.487.487,0,0,1,.159-.093,1.108,1.108,0,0,1,.248-.059,3.059,3.059,0,0,1,.346-.014,4.013,4.013,0,0,1,.453.04Z" transform="translate(-199.976 -192.049)" fill="#fcd517"/>
    </g>
    <g id="Group_39175" data-name="Group 39175" transform="translate(2.718 2.384)">
      <path id="Path_107577" data-name="Path 107577" d="M201.64,195.929a1.116,1.116,0,0,0,.353.017.554.554,0,0,0,.245-.081l.35-.246a8.559,8.559,0,0,0,1.2.117,6.312,6.312,0,0,0,1.044-.054,3.893,3.893,0,0,0,.838-.208.347.347,0,0,1,.059-.028,7.531,7.531,0,0,1-2.5-2.978,3.566,3.566,0,0,0-.407.113,1.65,1.65,0,0,0-.526.286c-.167.149-.244.286-.227.409a.507.507,0,0,0,.211.343,2.079,2.079,0,0,0,.5.29c.205.089.421.171.641.25l-1.072.747a2.943,2.943,0,0,1-.35-.151c-.1-.053-.182-.1-.256-.145s-.149-.085-.217-.121a.839.839,0,0,0-.226-.079,1.178,1.178,0,0,0-.256-.02,1.163,1.163,0,0,0-.236.022l-.826.185a2.414,2.414,0,0,0,.657.429,6.946,6.946,0,0,0,.993.375l-.582.405Zm2.608-1.46a1.222,1.222,0,0,1,.373.219c.077.073.07.149-.02.23a1.63,1.63,0,0,1-1.288.2Z" transform="translate(-199.976 -192.468)" fill="url(#linear-gradient-12)"/>
    </g>
    <g id="Group_39176" data-name="Group 39176" transform="translate(2.718 2.094)">
      <path id="Path_107578" data-name="Path 107578" d="M201.64,196.743a1.116,1.116,0,0,0,.353.017.554.554,0,0,0,.245-.081l.35-.246a8.559,8.559,0,0,0,1.2.117,6.312,6.312,0,0,0,1.044-.054,3.893,3.893,0,0,0,.838-.208,1.883,1.883,0,0,0,.582-.338.561.561,0,0,0,.18-.254.3.3,0,0,0-.033-.227.657.657,0,0,0-.2-.207,2.268,2.268,0,0,0-.263-.158,2.152,2.152,0,0,1-1.266.493.169.169,0,0,1-.071.135,1.63,1.63,0,0,1-1.288.2l.33-.229a9.381,9.381,0,0,1-1.257-.014l-.042.032c-.037-.014-.073-.028-.109-.044a13.9,13.9,0,0,1-1.962-.33l-.3.066a2.414,2.414,0,0,0,.657.429,6.946,6.946,0,0,0,.993.375l-.582.405Z" transform="translate(-199.976 -192.992)" fill="#ffee52"/>
      <path id="Path_107579" data-name="Path 107579" d="M207.871,192.073a1,1,0,0,0-.352-.014.525.525,0,0,0-.248.078l-.314.218a7.6,7.6,0,0,0-1.185-.124,6.229,6.229,0,0,0-1.022.042,3.837,3.837,0,0,0-.806.179,2.232,2.232,0,0,0-.3.133,5.232,5.232,0,0,1,2.152-.145,5.845,5.845,0,0,1,2.845.945l.561-.129a2.4,2.4,0,0,0-.466-.338,3.737,3.737,0,0,0-.82-.335l.556-.387Z" transform="translate(-201.108 -192.049)" fill="#ffee52"/>
    </g>
    <g id="Group_39177" data-name="Group 39177" transform="translate(2.718 2.384)">
      <path id="Path_107580" data-name="Path 107580" d="M201.179,194.531c.171.035,1.149.558,1.187.538.244-.139.735-.538,1.275-.91-.267-.266-1.288-.321-1.388-.873-.048-.265.449-.592.967-.818a3.566,3.566,0,0,0-.407.113,1.65,1.65,0,0,0-.526.286c-.167.149-.244.286-.227.409a.507.507,0,0,0,.211.343,2.079,2.079,0,0,0,.5.29c.205.089.421.171.641.25l-1.072.747a2.943,2.943,0,0,1-.35-.151c-.1-.053-.182-.1-.256-.145s-.149-.085-.217-.121a.839.839,0,0,0-.226-.079,1.178,1.178,0,0,0-.256-.02,1.163,1.163,0,0,0-.236.022l-.826.185a2.414,2.414,0,0,0,.657.429,6.946,6.946,0,0,0,.993.375l-.582.405.212.045c.062-.035.388-.27.644-.453.077-.057-1.6-.679-1.529-.733A2.116,2.116,0,0,1,201.179,194.531Z" transform="translate(-199.976 -192.468)" fill="#fff8b8"/>
    </g>
    <path id="Path_107581" data-name="Path 107581" d="M196.066,193.686s.222-2.917,4.368-4.086a13.9,13.9,0,0,1,5.128-.306,10.542,10.542,0,0,0-2.385-.274C199.25,189.019,196.066,191.108,196.066,193.686Z" transform="translate(-196.051 -189.019)" fill="#f9af19"/>
  </g>
  <g id="Group_39187" data-name="Group 39187" transform="translate(6.863 5.457)">
    <path id="Path_107582" data-name="Path 107582" d="M291.717,198.881a8.545,8.545,0,0,1-5.384,1.845c-6.18-.584-7.143-4.352-7.143-4.352-.035.185,0,1.374,0,1.568,0,2.577,3.184,4.667,7.11,4.667s7.115-2.089,7.115-4.667c0-.179.028-1.394,0-1.568A7.28,7.28,0,0,1,291.717,198.881Z" transform="translate(-279.176 -191.71)" fill="#ed8203"/>
    <g id="Group_39179" data-name="Group 39179" transform="translate(0.422 5.164)">
      <path id="Path_107583" data-name="Path 107583" d="M279.853,197.773c-.01.5-.073.994-.066,1.5,0,.211,0,.423,0,.634a4.01,4.01,0,0,0,.5.733c0-.121.008-.244,0-.367a16.258,16.258,0,0,1-.01-1.908A4.806,4.806,0,0,1,279.853,197.773Z" transform="translate(-279.786 -197.306)" fill="#c66802"/>
      <path id="Path_107584" data-name="Path 107584" d="M287.241,204.331c.241.034.489.064.741.084-.022-.657-.137-1.319-.109-1.973-.2-.034-.383-.075-.57-.113C287.291,202.995,287.265,203.664,287.241,204.331Z" transform="translate(-282.089 -198.713)" fill="#c66802"/>
      <path id="Path_107585" data-name="Path 107585" d="M282.637,202.118c0,.185-.018.369-.034.556.179.106.366.207.56.3-.012-.727-.026-1.453-.02-2.182-.169-.091-.328-.187-.48-.286C282.663,201.048,282.655,201.58,282.637,202.118Z" transform="translate(-280.656 -198.15)" fill="#c66802"/>
      <path id="Path_107586" data-name="Path 107586" d="M281.616,201.957c.039-.725.107-1.454.1-2.162-.173-.135-.33-.272-.473-.406-.048.614.053,1.227.038,1.845,0,.145-.012.286-.022.433C281.372,201.766,281.491,201.865,281.616,201.957Z" transform="translate(-280.232 -197.805)" fill="#c66802"/>
      <path id="Path_107587" data-name="Path 107587" d="M284.145,201.3q0,1.076.02,2.156c.151.057.306.115.465.165a10.6,10.6,0,0,1,.035-2.1C284.482,201.452,284.31,201.378,284.145,201.3Z" transform="translate(-281.132 -198.395)" fill="#c66802"/>
      <path id="Path_107588" data-name="Path 107588" d="M285.584,203.959c.2.052.4.1.61.147.024-.677.053-1.354.063-2.029-.234-.059-.451-.127-.665-.2A10.808,10.808,0,0,0,285.584,203.959Z" transform="translate(-281.563 -198.574)" fill="#c66802"/>
      <path id="Path_107589" data-name="Path 107589" d="M288.889,202.6a17.257,17.257,0,0,0,.1,1.918c.105,0,.21.012.312.012.131,0,.258-.01.387-.012.012-.622.048-1.241.008-1.863-.125,0-.25,0-.363-.006C289.179,202.636,289.034,202.617,288.889,202.6Z" transform="translate(-282.595 -198.797)" fill="#c66802"/>
      <path id="Path_107590" data-name="Path 107590" d="M294.146,203.655c.211-.07.413-.151.612-.234,0-.109,0-.212,0-.318-.016-.556-.026-1.112-.036-1.668-.2.095-.411.185-.623.268C294.106,202.354,294.126,203,294.146,203.655Z" transform="translate(-284.207 -198.437)" fill="#c66802"/>
      <path id="Path_107591" data-name="Path 107591" d="M296.321,202.607c.006-.2.014-.405.018-.61.008-.478-.028-.955-.036-1.431-.178.117-.361.228-.556.335.008.647.037,1.292.042,1.935,0,.024,0,.05,0,.077C295.974,202.817,296.15,202.712,296.321,202.607Z" transform="translate(-284.715 -198.168)" fill="#c66802"/>
      <path id="Path_107592" data-name="Path 107592" d="M297.87,201.337c.006-.419.018-.842,0-1.259-.012-.294-.02-.586-.012-.872a4.483,4.483,0,0,1-.542.55l-.008.006c-.006.526.044,1.048.038,1.578,0,.159-.01.319-.018.48A5.26,5.26,0,0,0,297.87,201.337Z" transform="translate(-285.198 -197.748)" fill="#c66802"/>
      <path id="Path_107593" data-name="Path 107593" d="M298.886,199.719c0,.1,0,.211,0,.317a3.853,3.853,0,0,0,.417-.829c-.03-.7-.063-1.414-.043-2.109-.08.169-.187.369-.312.579A8.73,8.73,0,0,0,298.886,199.719Z" transform="translate(-285.676 -197.097)" fill="#c66802"/>
      <path id="Path_107594" data-name="Path 107594" d="M292.54,204.155c.2-.042.391-.088.578-.141q-.03-.961-.046-1.92c-.207.066-.415.129-.625.181C292.465,202.9,292.509,203.528,292.54,204.155Z" transform="translate(-283.696 -198.64)" fill="#c66802"/>
      <path id="Path_107595" data-name="Path 107595" d="M291.506,204.38c-.026-.621-.068-1.239-.091-1.858a6.192,6.192,0,0,1-.614.087c.04.619,0,1.239-.018,1.856C291.028,204.445,291.27,204.414,291.506,204.38Z" transform="translate(-283.182 -198.772)" fill="#c66802"/>
    </g>
    <path id="Path_107596" data-name="Path 107596" d="M286.756,203.384c.046-.627.087-1.251.1-1.878-.016,0-.035,0-.046,0-3.311-.312-5.122-1.537-6.091-2.611.048.792.131,1.581.1,2.367A8.493,8.493,0,0,0,286.756,203.384Z" transform="translate(-279.652 -192.488)" fill="#ffee52" opacity="0.25"/>
    <path id="Path_107597" data-name="Path 107597" d="M285.57,203.716c.05-.667.065-1.334.063-2a9.236,9.236,0,0,1-3.164-1.286c-.022.707-.07,1.411-.115,2.116A8.66,8.66,0,0,0,285.57,203.716Z" transform="translate(-280.158 -192.963)" fill="#ffee52" opacity="0.28"/>
    <g id="Group_39180" data-name="Group 39180" transform="translate(2.197 7.469)">
      <path id="Path_107598" data-name="Path 107598" d="M284.016,203.368c-.006-.707-.01-1.415-.017-2.122-.234-.1-.453-.212-.661-.324.035.717.01,1.434,0,2.152C283.554,203.179,283.78,203.278,284.016,203.368Z" transform="translate(-282.657 -200.583)" fill="#ffee52" opacity="0.35"/>
      <path id="Path_107599" data-name="Path 107599" d="M282.355,202.548c.055.035.113.062.167.1.014-.735.026-1.469-.032-2.2l-.02-.01C282.448,201.139,282.4,201.843,282.355,202.548Z" transform="translate(-282.355 -200.432)" fill="#ffee52" opacity="0.35"/>
      <path id="Path_107600" data-name="Path 107600" d="M285.072,203.783c.1.03.205.056.306.086-.026-.691-.028-1.382-.026-2.076-.1-.032-.2-.062-.294-.1C285.061,202.392,285.063,203.09,285.072,203.783Z" transform="translate(-283.189 -200.823)" fill="#ffee52" opacity="0.35"/>
      <path id="Path_107601" data-name="Path 107601" d="M286.956,204.27c.05-.667.065-1.334.063-2-.061-.014-.119-.032-.178-.046,0,.675.012,1.35.022,2.027C286.894,204.256,286.924,204.264,286.956,204.27Z" transform="translate(-283.74 -200.986)" fill="#ffee52" opacity="0.35"/>
    </g>
    <path id="Path_107602" data-name="Path 107602" d="M292.844,201.174c.018.637.026,1.272.018,1.908a7.154,7.154,0,0,0,3.834-2.108c0-.741.01-1.485.019-2.218a4.636,4.636,0,0,1-.776.861A8.9,8.9,0,0,1,292.844,201.174Z" transform="translate(-283.397 -192.446)" fill="#7a4103" opacity="0.32"/>
    <path id="Path_107603" data-name="Path 107603" d="M294.514,203.065a7.377,7.377,0,0,0,1.868-.993,20.4,20.4,0,0,1,.191-2.24c-.038.036-.078.082-.119.117a7.931,7.931,0,0,1-1.924,1.136C294.524,201.746,294.516,202.4,294.514,203.065Z" transform="translate(-283.913 -192.778)" fill="#7a4103" opacity="0.32"/>
    <path id="Path_107604" data-name="Path 107604" d="M296.286,198.881a8.428,8.428,0,0,1-2.317,1.3c0,.645.048,1.29.064,1.939,2.34-.762,3.951-2.344,3.951-4.175,0-.179.028-1.394,0-1.568A7.28,7.28,0,0,1,296.286,198.881Z" transform="translate(-283.744 -191.71)" fill="#7a4103" opacity="0.32"/>
    <path id="Path_107605" data-name="Path 107605" d="M279.2,194.29c0,2.577,3.184,4.667,7.11,4.667s7.115-2.089,7.115-4.667-3.186-4.664-7.115-4.664S279.2,191.715,279.2,194.29Z" transform="translate(-279.183 -189.626)" fill="#fcd517"/>
    <path id="Path_107606" data-name="Path 107606" d="M295.091,194.556a20.03,20.03,0,0,1,1.114,2.23,3.571,3.571,0,0,0,1.062-2.446c0-2.238-2.412-4.1-5.62-4.551A34.749,34.749,0,0,1,295.091,194.556Z" transform="translate(-283.028 -189.676)" fill="#ffbc00"/>
    <path id="Path_107607" data-name="Path 107607" d="M288.171,189.668a32.876,32.876,0,0,1,3.081,2.45c-.587-.826-1.185-1.644-1.755-2.481-.138,0-.276-.012-.417-.012C288.773,189.626,288.471,189.642,288.171,189.668Z" transform="translate(-281.954 -189.626)" fill="#ffbc00"/>
    <path id="Path_107608" data-name="Path 107608" d="M285.139,193.491a9.015,9.015,0,0,1-1.491-3.373c-2.607.691-4.45,2.366-4.45,4.324,0,2.577,3.184,4.667,7.11,4.667a9.636,9.636,0,0,0,4.368-.988c-.194-.1-.386-.191-.578-.294A13.421,13.421,0,0,1,285.139,193.491Z" transform="translate(-279.183 -189.778)" fill="#fff7ab" opacity="0.54"/>
    <path id="Path_107609" data-name="Path 107609" d="M280.229,192.879a3.543,3.543,0,0,0-1.031,2.416c0,2.577,3.184,4.667,7.11,4.667.325,0,.637-.018.947-.044a18.816,18.816,0,0,1-3.717-2.32A9.944,9.944,0,0,1,280.229,192.879Z" transform="translate(-279.183 -190.631)" fill="#fff7ab" opacity="0.54"/>
    <path id="Path_107610" data-name="Path 107610" d="M286.607,193.491a9.016,9.016,0,0,1-1.491-3.373,8.953,8.953,0,0,0-1.165.407c.149,2.976,2.41,5.215,5.055,6.619a24.139,24.139,0,0,0,2.686,1.187c.153-.069.306-.135.451-.21-.194-.1-.386-.191-.578-.294A13.421,13.421,0,0,1,286.607,193.491Z" transform="translate(-280.651 -189.778)" fill="#fff7ab" opacity="0.54"/>
    <g id="Group_39181" data-name="Group 39181" transform="translate(0.073 5.236)">
      <path id="Path_107611" data-name="Path 107611" d="M279.282,197.2c.431,2.305,3.419,4.095,7.052,4.095,2.97,0,5.511-1.193,6.574-2.89a7.749,7.749,0,0,1-6.292,2.5C281.031,200.662,279.621,197.988,279.282,197.2Z" transform="translate(-279.282 -197.202)" fill="#ffffd7"/>
    </g>
    <path id="Path_107612" data-name="Path 107612" d="M281.273,193.959c0,1.761,2.541,3.19,5.676,3.19s5.678-1.429,5.678-3.19-2.541-3.194-5.678-3.194S281.273,192.194,281.273,193.959Z" transform="translate(-279.823 -189.978)" fill="url(#linear-gradient-16)"/>
    <path id="Path_107613" data-name="Path 107613" d="M284.454,191.241c-1.881.52-3.181,1.606-3.181,2.865,0,1.761,2.541,3.19,5.676,3.19a9.607,9.607,0,0,0,2.124-.232c-.156-.1-.312-.2-.462-.308A11.777,11.777,0,0,1,284.454,191.241Z" transform="translate(-279.823 -190.125)" fill="url(#linear-gradient-17)"/>
    <path id="Path_107614" data-name="Path 107614" d="M281.273,193.959a1.467,1.467,0,0,0,.028.294c.262-1.624,2.69-2.9,5.648-2.9s5.386,1.273,5.652,2.9a1.765,1.765,0,0,0,.026-.294c0-1.765-2.541-3.194-5.678-3.194S281.273,192.194,281.273,193.959Z" transform="translate(-279.823 -189.978)" fill="#ed8203"/>
    <g id="Group_39182" data-name="Group 39182" transform="translate(2.717 2.236)">
      <path id="Path_107615" data-name="Path 107615" d="M289.454,194.24l.218.1c.068.035.133.061.191.085a.931.931,0,0,0,.167.054,1.057,1.057,0,0,0,.246.021,1.562,1.562,0,0,0,.264-.039l.659-.151v-.384c-.2-.117-.941-.184-1.286-.288l.554-.387v-.387a7.035,7.035,0,0,0-.949.25.51.51,0,0,0-.246.079l-.316.217a7.642,7.642,0,0,0-1.185-.124,6.587,6.587,0,0,0-1.022.04,3.994,3.994,0,0,0-.8.181,3.362,3.362,0,0,0-.755.308s-.012.264,0,.387a.517.517,0,0,0,.212.343,2.069,2.069,0,0,0,.5.288c.209.088.425.171.643.252l-1.072.744a1.988,1.988,0,0,1-.348-.149c-.1-.05-.183-.1-.258-.143s-.149-.085-.218-.123a.956.956,0,0,0-.227-.079,1.476,1.476,0,0,0-.254-.02c-.091,0-.991-.189-1.062-.175v.388a2.549,2.549,0,0,0,.657.423,6.139,6.139,0,0,0,.993.375l-.582.02v.385l.6.124a1.066,1.066,0,0,0,.355.015.567.567,0,0,0,.244-.079l.355-.246a7.7,7.7,0,0,0,1.194.115,6.137,6.137,0,0,0,1.04-.055,3.6,3.6,0,0,0,.836-.207,1.9,1.9,0,0,0,.585-.337.541.541,0,0,0,.179-.254.287.287,0,0,0-.032-.227.626.626,0,0,0-.2-.207,2.221,2.221,0,0,0-.321-.191c-.121-.063-.252-.121-.395-.18s-.284-.113-.431-.169l1.01-.7C289.289,194.169,289.375,194.2,289.454,194.24Zm-1.723,1.6a1.624,1.624,0,0,1-1.288.2l.937-.647a1.252,1.252,0,0,1,.373.22C287.828,195.689,287.822,195.76,287.731,195.841Zm-.366-1.328a1.273,1.273,0,0,1-.371-.232c-.073-.079-.066-.158.026-.24a.564.564,0,0,1,.159-.093,1.413,1.413,0,0,1,.25-.061,3.007,3.007,0,0,1,.344-.014c.133.006.284.018.455.042Z" transform="translate(-283.107 -192.861)" fill="#d67003"/>
    </g>
    <g id="Group_39183" data-name="Group 39183" transform="translate(2.717 2.093)">
      <path id="Path_107616" data-name="Path 107616" d="M289.454,193.787c.078.036.149.073.218.1s.133.061.191.087a.806.806,0,0,0,.167.05.871.871,0,0,0,.246.02,1.227,1.227,0,0,0,.264-.038l.659-.147a2.43,2.43,0,0,0-.467-.343,4.1,4.1,0,0,0-.818-.332l.554-.387-.594-.124a1.183,1.183,0,0,0-.355-.012.5.5,0,0,0-.246.079l-.316.22a8.219,8.219,0,0,0-1.185-.129,6.644,6.644,0,0,0-1.022.044,4,4,0,0,0-.8.18,1.6,1.6,0,0,0-.527.286.518.518,0,0,0-.228.408.512.512,0,0,0,.212.343,2.047,2.047,0,0,0,.5.288c.209.088.425.173.643.252l-1.072.748a2.59,2.59,0,0,1-.348-.151c-.1-.053-.183-.1-.258-.145s-.149-.084-.218-.119a.783.783,0,0,0-.227-.08,1.4,1.4,0,0,0-.254-.024,1.457,1.457,0,0,0-.236.028l-.826.186a2.494,2.494,0,0,0,.657.427,6.483,6.483,0,0,0,.993.373l-.582.407.6.121a1.05,1.05,0,0,0,.355.016.532.532,0,0,0,.244-.079l.355-.243a8.539,8.539,0,0,0,1.194.115,6.361,6.361,0,0,0,1.04-.055,3.818,3.818,0,0,0,.836-.207,1.97,1.97,0,0,0,.585-.339.538.538,0,0,0,.179-.252.291.291,0,0,0-.032-.23.673.673,0,0,0-.2-.209,2.764,2.764,0,0,0-.321-.191c-.121-.06-.252-.117-.395-.177s-.284-.111-.431-.165l1.01-.7C289.289,193.719,289.375,193.755,289.454,193.787Zm-1.723,1.606a1.64,1.64,0,0,1-1.288.2l.937-.651a1.252,1.252,0,0,1,.373.22C287.828,195.236,287.822,195.31,287.731,195.393Zm-.366-1.326a1.255,1.255,0,0,1-.371-.238c-.073-.075-.066-.155.026-.236a.494.494,0,0,1,.159-.095,1.424,1.424,0,0,1,.25-.059,3.045,3.045,0,0,1,.344-.012,4.126,4.126,0,0,1,.455.038Z" transform="translate(-283.107 -192.654)" fill="#fcd517"/>
    </g>
    <g id="Group_39184" data-name="Group 39184" transform="translate(2.717 2.381)">
      <path id="Path_107617" data-name="Path 107617" d="M284.771,196.531a1.05,1.05,0,0,0,.355.016.532.532,0,0,0,.244-.079l.355-.243a8.539,8.539,0,0,0,1.194.115,6.361,6.361,0,0,0,1.04-.055,3.818,3.818,0,0,0,.836-.207c.024-.01.041-.02.063-.028a7.523,7.523,0,0,1-2.5-2.978,4.106,4.106,0,0,0-.407.113,1.6,1.6,0,0,0-.527.286.518.518,0,0,0-.228.408.512.512,0,0,0,.212.343,2.047,2.047,0,0,0,.5.288c.209.088.425.173.643.252l-1.072.748a2.59,2.59,0,0,1-.348-.151c-.1-.053-.183-.1-.258-.145s-.149-.084-.218-.119a.783.783,0,0,0-.227-.08,1.4,1.4,0,0,0-.254-.024,1.457,1.457,0,0,0-.236.028l-.826.186a2.494,2.494,0,0,0,.657.427,6.483,6.483,0,0,0,.993.373l-.582.407Zm2.609-1.459a1.252,1.252,0,0,1,.373.22c.075.073.068.147-.022.229a1.64,1.64,0,0,1-1.288.2Z" transform="translate(-283.107 -193.071)" fill="url(#linear-gradient-12)"/>
    </g>
    <g id="Group_39185" data-name="Group 39185" transform="translate(2.717 2.093)">
      <path id="Path_107618" data-name="Path 107618" d="M284.771,197.345a1.05,1.05,0,0,0,.355.016.532.532,0,0,0,.244-.079l.355-.243a8.537,8.537,0,0,0,1.194.115,6.361,6.361,0,0,0,1.04-.055,3.818,3.818,0,0,0,.836-.207,1.97,1.97,0,0,0,.585-.339.539.539,0,0,0,.179-.252.291.291,0,0,0-.032-.23.673.673,0,0,0-.2-.209,2.573,2.573,0,0,0-.262-.155,2.2,2.2,0,0,1-1.266.5.182.182,0,0,1-.073.131,1.64,1.64,0,0,1-1.288.2l.335-.232a9.362,9.362,0,0,1-1.257-.014l-.046.032c-.038-.014-.073-.03-.109-.043a14.485,14.485,0,0,1-1.961-.33l-.3.067a2.494,2.494,0,0,0,.657.427,6.482,6.482,0,0,0,.993.373l-.582.407Z" transform="translate(-283.107 -193.597)" fill="#ffee52"/>
      <path id="Path_107619" data-name="Path 107619" d="M291,192.675a1.183,1.183,0,0,0-.355-.012.5.5,0,0,0-.246.079l-.316.22a8.219,8.219,0,0,0-1.185-.129,6.644,6.644,0,0,0-1.022.044,4,4,0,0,0-.8.18,2.215,2.215,0,0,0-.306.135,5.281,5.281,0,0,1,2.154-.149,5.919,5.919,0,0,1,2.846.947l.56-.126a2.43,2.43,0,0,0-.467-.343,4.1,4.1,0,0,0-.818-.332l.554-.387Z" transform="translate(-284.239 -192.654)" fill="#ffee52"/>
    </g>
    <g id="Group_39186" data-name="Group 39186" transform="translate(2.717 2.381)">
      <path id="Path_107620" data-name="Path 107620" d="M284.31,195.136c.171.032,1.149.556,1.187.536.244-.141.735-.536,1.278-.911-.27-.266-1.29-.32-1.389-.87-.05-.266.447-.6.967-.82a4.106,4.106,0,0,0-.407.113,1.6,1.6,0,0,0-.527.286.518.518,0,0,0-.228.408.512.512,0,0,0,.212.343,2.047,2.047,0,0,0,.5.288c.209.088.425.173.643.252l-1.072.748a2.59,2.59,0,0,1-.348-.151c-.1-.053-.183-.1-.258-.145s-.149-.084-.218-.119a.783.783,0,0,0-.227-.08,1.4,1.4,0,0,0-.254-.024,1.457,1.457,0,0,0-.236.028l-.826.186a2.494,2.494,0,0,0,.657.427,6.483,6.483,0,0,0,.993.373l-.582.407.211.044c.062-.035.389-.27.645-.455.079-.055-1.6-.677-1.53-.731A2.143,2.143,0,0,1,284.31,195.136Z" transform="translate(-283.107 -193.071)" fill="#fff8b8"/>
    </g>
    <path id="Path_107621" data-name="Path 107621" d="M279.2,194.29s.221-2.917,4.37-4.086a13.8,13.8,0,0,1,5.126-.3,10.526,10.526,0,0,0-2.386-.274C282.382,189.626,279.2,191.715,279.2,194.29Z" transform="translate(-279.183 -189.626)" fill="#f9af19"/>
  </g>
</svg>
