<svg xmlns="http://www.w3.org/2000/svg" width="74.35" height="79.367" viewBox="0 0 74.35 79.367">
  <g id="coin1" transform="translate(15 15)">
    <g id="Group_1317" data-name="Group 1317">
      <path id="Path_3285" data-name="Path 3285" d="M5684.57,4248.956c5.1,3.24-20.454,13.206-14.937,29.87s34.721,8.729,34.721,8.729-18.52,23.39-40.008,0C5648.837,4263.95,5679.468,4245.725,5684.57,4248.956Z" transform="translate(-5660.004 -4248.583)" fill="#f5b233"/>
      <g id="dollar" transform="translate(1.875 0.39)">
        <path id="Path_3016" data-name="Path 3016" d="M24.474,0A24.476,24.476,0,0,0,0,24.31a24.64,24.64,0,0,0,24.474,24.5A24.406,24.406,0,0,0,24.474,0Z" transform="translate(0)" fill="#fedb41"/>
        <path id="Path_3017" data-name="Path 3017" d="M282.375,24.31c0,13.414-11.374,24.5-25.375,24.5V0C271,0,282.375,10.9,282.375,24.31Z" transform="translate(-233.619)" fill="#fc3"/>
        <path id="Path_3018" data-name="Path 3018" d="M78.5,60A18.435,18.435,0,1,0,96.815,78.341,18.524,18.524,0,0,0,78.5,60Z" transform="translate(-54.029 -54.029)" fill="#fea832"/>
        <path id="Path_3019" data-name="Path 3019" d="M276.4,78.341c0,10.1-8.717,18.529-19.405,18.529V60C267.688,60,276.4,68.239,276.4,78.341Z" transform="translate(-233.619 -54.029)" fill="#fe9923"/>
        <path id="Path_3020" data-name="Path 3020" d="M190.648,131h-1.493v-5.5h1.493a1.423,1.423,0,0,1,1.493,1.375c0,1.815,2.985,1.815,2.985,0a4.306,4.306,0,0,0-4.478-4.124h-1.493v-1.375a1.5,1.5,0,0,0-2.985,0v1.375h-1.692A4.306,4.306,0,0,0,180,126.874v2.749a4.306,4.306,0,0,0,4.478,4.124h1.692v5.682h-1.692a1.423,1.423,0,0,1-1.493-1.375c0-1.814-2.985-1.814-2.985,0a4.306,4.306,0,0,0,4.478,4.124h1.692v1.375a1.5,1.5,0,0,0,2.985,0v-1.375h1.493a4.306,4.306,0,0,0,4.478-4.124v-2.933A4.306,4.306,0,0,0,190.648,131Zm-4.478,0h-1.692a1.423,1.423,0,0,1-1.493-1.375v-2.749a1.423,1.423,0,0,1,1.493-1.375h1.692Zm5.971,7.057a1.423,1.423,0,0,1-1.493,1.375h-1.493v-5.682h1.493a1.423,1.423,0,0,1,1.493,1.375Z" transform="translate(-163.185 -108.059)" fill="#fedb41"/>
        <path id="Path_3021" data-name="Path 3021" d="M259.986,131h-1.493v-5.5h1.493a1.423,1.423,0,0,1,1.493,1.375c0,1.815,2.985,1.815,2.985,0a4.306,4.306,0,0,0-4.478-4.124h-1.493v-1.375A1.389,1.389,0,0,0,257,120v24.928a1.389,1.389,0,0,0,1.493-1.375v-1.375h1.493a4.306,4.306,0,0,0,4.478-4.124v-2.933A4.306,4.306,0,0,0,259.986,131Zm1.493,7.057a1.423,1.423,0,0,1-1.493,1.375h-1.493v-5.682h1.493a1.423,1.423,0,0,1,1.493,1.375Z" transform="translate(-232.715 -108.059)" fill="#fc3"/>
      </g>
    </g>
  </g>
</svg>
