<svg fill="#c6c6c6" height="512" viewBox="0 0 512 512" width="512" xmlns="http://www.w3.org/2000/svg"><g><path d="m476 32h-440a28.032 28.032 0 0 0 -28 28v392a28.032 28.032 0 0 0 28 28h440a28.032 28.032 0 0 0 28-28v-392a28.032 28.032 0 0 0 -28-28zm-440 16h440a12.013 12.013 0 0 1 12 12v20h-464v-20a12.013 12.013 0 0 1 12-12zm440 416h-440a12.013 12.013 0 0 1 -12-12v-356h464v356a12.013 12.013 0 0 1 -12 12z"/><path d="m48 72h8a8 8 0 0 0 0-16h-8a8 8 0 0 0 0 16z"/><path d="m80 72h8a8 8 0 0 0 0-16h-8a8 8 0 0 0 0 16z"/><path d="m112 72h8a8 8 0 0 0 0-16h-8a8 8 0 0 0 0 16z"/><path d="m428 120h-344a28.032 28.032 0 0 0 -28 28v200a28.032 28.032 0 0 0 28 28h344a28.032 28.032 0 0 0 28-28v-200a28.032 28.032 0 0 0 -28-28zm12 228a12.013 12.013 0 0 1 -12 12h-344a12.013 12.013 0 0 1 -12-12v-200a12.013 12.013 0 0 1 12-12h344a12.013 12.013 0 0 1 12 12z"/><path d="m299.578 240.845-80-40a8 8 0 0 0 -11.578 7.155v80a8 8 0 0 0 11.578 7.155l80-40a8 8 0 0 0 0-14.31zm-75.578 34.211v-54.112l54.111 27.056z"/><path d="m424 400h-73.376a24 24 0 0 0 -45.248 0h-217.376a8 8 0 0 0 0 16h217.376a24 24 0 0 0 45.248 0h73.376a8 8 0 0 0 0-16zm-96 16a8 8 0 1 1 8-8 8.009 8.009 0 0 1 -8 8z"/></g></svg>