<svg xmlns="http://www.w3.org/2000/svg" width="14.854" height="9.438" viewBox="0 0 14.854 9.438">
  <g id="videocam" transform="translate(0.5 0.5)">
    <path id="Path_4" data-name="Path 4" d="M27.955,10.8a.563.563,0,0,0-.307.089l-2.851,1.8a.282.282,0,0,0-.132.237v2.505a.282.282,0,0,0,.132.237l2.851,1.8a.592.592,0,0,0,.307.089h.686a.281.281,0,0,0,.283-.28v-6.2a.283.283,0,0,0-.283-.28Z" transform="translate(-15.071 -9.956)" fill="none" stroke="#fff" stroke-width="1"/>
    <path id="Path_5" data-name="Path 5" d="M10.21,17.438H3.948a1.7,1.7,0,0,1-1.7-1.694v-5.05A1.7,1.7,0,0,1,3.944,9h6.263A1.7,1.7,0,0,1,11.9,10.694v5.047A1.7,1.7,0,0,1,10.21,17.438Z" transform="translate(-2.25 -9)" fill="none" stroke="#fff" stroke-width="1"/>
  </g>
</svg>
