<svg xmlns="http://www.w3.org/2000/svg" width="17.385" height="9.934" viewBox="0 0 17.385 9.934">
  <g id="Icon_ionic-ios-videocam" data-name="Icon ionic-ios-videocam" transform="translate(-2.25 -9)">
    <path id="Path_4" data-name="Path 4" d="M28.538,10.8a.663.663,0,0,0-.361.1l-3.357,2.119a.332.332,0,0,0-.155.279v2.949a.332.332,0,0,0,.155.279l3.357,2.119a.7.7,0,0,0,.361.1h.807a.33.33,0,0,0,.334-.33v-7.3a.333.333,0,0,0-.334-.33Z" transform="translate(-10.045 -0.807)" fill="#fff"/>
    <path id="Path_5" data-name="Path 5" d="M11.621,18.934H4.248a2,2,0,0,1-2-1.995V10.995A2,2,0,0,1,4.245,9h7.373a2,2,0,0,1,1.995,1.995v5.941A2,2,0,0,1,11.621,18.934Z" fill="#fff"/>
  </g>
</svg>
