<svg xmlns="http://www.w3.org/2000/svg" width="26.53" height="23.359" viewBox="0 0 26.53 23.359">
  <g id="wallet-3" transform="translate(0.1 0.1)">
    <path id="Path_6454" data-name="Path 6454" d="M24.856,44.621h-.626V40.764a2.825,2.825,0,0,0-2.786-2.855h-.578l.005-1.433a1.9,1.9,0,0,0-1.879-1.926H2.284A2.313,2.313,0,0,0,0,36.858V55.783a1.9,1.9,0,0,0,1.879,1.926H21.448a2.825,2.825,0,0,0,2.786-2.855V50.991h.626a1.489,1.489,0,0,0,1.469-1.505V46.127A1.5,1.5,0,0,0,24.856,44.621ZM2.284,35.878H18.991a.59.59,0,0,1,.583.592l-.005,1.439H2.284a1.016,1.016,0,0,1,0-2.031Zm20.649,18.97a1.512,1.512,0,0,1-1.49,1.527H1.874a.592.592,0,0,1-.583-.6V39a2.229,2.229,0,0,0,.994.232H21.443a1.512,1.512,0,0,1,1.49,1.527v3.857H18.511a1.489,1.489,0,0,0-1.469,1.505v3.359a1.489,1.489,0,0,0,1.469,1.505h4.423v3.857Zm2.1-5.362a.173.173,0,0,1-.173.177H18.516a.173.173,0,0,1-.173-.177V46.127a.176.176,0,0,1,.173-.177h6.339a.176.176,0,0,1,.173.177v3.359Z" transform="translate(0 -34.55)" fill="#3eb2fd" stroke="#3eb2fd" stroke-width="0.2"/>
  </g>
</svg>
